<svg width="196" height="44" viewBox="0 0 196 44" fill="none" xmlns="http://www.w3.org/2000/svg">
<mask id="mask0_3460_171458" style="mask-type:luminance" maskUnits="userSpaceOnUse" x="50" y="10" width="21" height="23">
<path d="M70.3139 10.1855H50.9775V32.1586H70.3139V10.1855Z" fill="white"/>
</mask>
<g mask="url(#mask0_3460_171458)">
<path d="M60.707 15.0517C60.7502 13.8798 61.0849 12.8544 61.711 11.9964C62.3373 11.1384 63.3737 10.521 64.7989 10.1758C64.7989 10.2176 64.8204 10.2595 64.8312 10.3013V10.521C64.8312 11.0233 64.7017 11.5988 64.4534 12.237C64.1943 12.8544 63.784 13.4299 63.2441 13.953C62.7367 14.4134 62.2725 14.7168 61.8622 14.8529C61.7218 14.8947 61.5383 14.9261 61.3116 14.968C61.1065 14.9994 60.9121 15.0203 60.707 15.0412V15.0517Z" fill="white"/>
<path d="M70.2707 26.3623C70.0116 27.0843 69.5257 27.9946 69.0399 28.8003C68.5433 29.5954 67.9926 30.3802 67.5716 30.7988C67.2369 31.144 66.8806 31.4998 66.4488 31.7509C65.9845 32.0229 65.4662 32.159 64.8185 32.159C64.4514 32.159 64.0843 32.0858 63.7389 31.9916C63.3934 31.8974 63.0371 31.7823 62.7024 31.6672C61.9898 31.437 61.4068 31.2696 60.9318 31.2696C60.4567 31.2696 59.9818 31.4266 59.3339 31.6672C58.7509 31.866 57.9952 32.159 57.2394 32.159C55.6415 32.159 54.6483 30.872 54.4 30.579C54.0545 30.1919 50.9775 26.8645 50.9775 21.6956C50.9775 19.0797 51.8629 17.301 53.0505 16.1709C54.2165 15.0618 55.6307 14.6328 56.6348 14.6328C57.6389 14.6328 58.5026 15.0827 59.1504 15.4071C59.8522 15.7628 60.3596 16.0035 60.9318 16.0035C61.504 16.0035 62.0654 15.7628 62.8536 15.3967C63.5769 15.0618 64.5054 14.6328 65.6066 14.6328C67.1181 14.6328 68.3813 15.3652 69.3962 16.6522C69.6553 16.9766 69.6121 17.437 69.299 17.709C68.0898 18.7763 67.496 20.0842 67.496 21.6956C67.496 23.9871 69.1694 24.9915 69.9252 25.431C70.2599 25.6194 70.4003 26.0065 70.2707 26.3623Z" fill="white"/>
</g>
<path d="M80.069 15.8993H78.1963V9.5072H80.1813C80.7911 9.5072 81.3123 9.63411 81.7451 9.88803C82.1799 10.1419 82.5129 10.506 82.7438 10.9804C82.9748 11.4548 83.0903 12.0239 83.0903 12.6877C83.0903 13.3577 82.9717 13.933 82.7345 14.4137C82.4993 14.8923 82.156 15.2596 81.7045 15.5155C81.255 15.7714 80.7099 15.8993 80.069 15.8993ZM78.78 15.3751H80.0347C80.584 15.3751 81.0438 15.2668 81.4142 15.0504C81.7846 14.834 82.0624 14.5251 82.2476 14.1234C82.4328 13.7218 82.5253 13.2432 82.5253 12.6877C82.5233 12.1363 82.4317 11.6619 82.2507 11.2644C82.0717 10.867 81.8054 10.5622 81.4517 10.3499C81.1 10.1376 80.6652 10.0316 80.1471 10.0316H78.78V15.3751ZM84.3958 15.8993V11.1053H84.9544V15.8993H84.3958ZM84.6798 10.2813C84.5653 10.2813 84.4675 10.2428 84.3864 10.1658C84.3052 10.0867 84.2646 9.99201 84.2646 9.8818C84.2646 9.77149 84.3052 9.6778 84.3864 9.60089C84.4675 9.52179 84.5653 9.48224 84.6798 9.48224C84.7942 9.48224 84.892 9.52179 84.9731 9.60089C85.0543 9.6778 85.0949 9.77149 85.0949 9.8818C85.0949 9.99201 85.0543 10.0867 84.9731 10.1658C84.892 10.2428 84.7942 10.2813 84.6798 10.2813ZM89.6444 12.1571L89.1363 12.3007C89.0862 12.1571 89.0151 12.0271 88.9236 11.9105C88.8322 11.794 88.7127 11.7014 88.565 11.6327C88.4191 11.5641 88.2381 11.5298 88.0219 11.5298C87.6972 11.5298 87.4308 11.6067 87.2228 11.7607C87.0147 11.9147 86.9106 12.1134 86.9106 12.3568C86.9106 12.5629 86.9814 12.7304 87.1229 12.8593C87.2664 12.9862 87.487 13.0872 87.7846 13.1621L88.5088 13.34C88.9105 13.4378 89.2111 13.5929 89.4106 13.805C89.6127 14.0173 89.7138 14.2836 89.7138 14.6041C89.7138 14.8746 89.6382 15.1149 89.4888 15.3251C89.3385 15.5352 89.1302 15.7007 88.8612 15.8214C88.5949 15.94 88.2864 15.9993 87.934 15.9993C87.4662 15.9993 87.0802 15.8942 86.7764 15.684C86.4726 15.4718 86.2781 15.1659 86.1927 14.7664L86.7265 14.6353C86.7952 14.9204 86.9294 15.1357 87.1291 15.2814C87.3309 15.427 87.5962 15.4999 87.9252 15.4999C88.2935 15.4999 88.5879 15.4177 88.8085 15.2533C89.0291 15.0869 89.139 14.8787 89.139 14.629C89.139 14.4356 89.0748 14.2732 88.9456 14.1422C88.8164 14.009 88.6213 13.9112 88.3585 13.8487L87.5755 13.6615C87.1593 13.5616 86.8513 13.4035 86.6515 13.1871C86.4518 12.9707 86.3519 12.7023 86.3519 12.3818C86.3519 12.1176 86.4237 11.8856 86.5673 11.6858C86.7109 11.484 86.9085 11.3258 87.1603 11.2113C87.4121 11.0969 87.6992 11.0397 88.0219 11.0397C88.4604 11.0397 88.8111 11.1396 89.0739 11.3393C89.3376 11.537 89.5283 11.8096 89.6444 12.1571ZM90.9302 17.6972V11.1053H91.4699V12.0198H91.5358C91.6017 11.8762 91.694 11.7295 91.81 11.5797C91.9269 11.4277 92.0807 11.2999 92.2723 11.1958C92.4657 11.0917 92.7092 11.0397 93.0027 11.0397C93.3974 11.0397 93.7428 11.1438 94.039 11.3518C94.3361 11.5578 94.5672 11.8471 94.7316 12.2196C94.8977 12.5899 94.9812 13.0217 94.9812 13.5148C94.9812 14.01 94.8977 14.4438 94.7316 14.8163C94.5672 15.1888 94.3361 15.479 94.039 15.6872C93.7428 15.8952 93.4 15.9993 93.0089 15.9993C92.7197 15.9993 92.4771 15.9472 92.2811 15.8432C92.0878 15.7392 91.9304 15.6112 91.81 15.4593C91.6914 15.3053 91.6 15.1555 91.5358 15.0099H91.4857V17.6972H90.9302ZM91.4796 13.5054C91.4796 13.8925 91.5367 14.2358 91.6509 14.5354C91.7678 14.8329 91.934 15.0671 92.1502 15.2377C92.369 15.4063 92.6327 15.4905 92.943 15.4905C93.2611 15.4905 93.5301 15.4031 93.7481 15.2283C93.9687 15.0514 94.1365 14.8132 94.2508 14.5135C94.3677 14.2139 94.4257 13.8779 94.4257 13.5054C94.4257 13.1372 94.3686 12.8053 94.2543 12.5098C94.1418 12.2143 93.9748 11.9802 93.7542 11.8075C93.5336 11.6327 93.2638 11.5453 92.943 11.5453C92.6309 11.5453 92.3655 11.6296 92.1475 11.7982C91.9287 11.9646 91.7626 12.1956 91.6474 12.4911C91.5358 12.7844 91.4796 13.1226 91.4796 13.5054ZM98.0636 15.9993C97.6496 15.9993 97.2831 15.8942 96.9649 15.684C96.6485 15.4739 96.4006 15.1836 96.2222 14.8132C96.0429 14.4408 95.9533 14.0111 95.9533 13.5241C95.9533 13.0331 96.0429 12.6014 96.2222 12.2289C96.4006 11.8544 96.6485 11.563 96.9649 11.355C97.2831 11.1448 97.6496 11.0397 98.0636 11.0397C98.4775 11.0397 98.8423 11.1448 99.1587 11.355C99.4751 11.5651 99.723 11.8564 99.9014 12.2289C100.082 12.6014 100.173 13.0331 100.173 13.5241C100.173 14.0111 100.084 14.4408 99.9049 14.8132C99.7256 15.1836 99.4769 15.4739 99.1587 15.684C98.8423 15.8942 98.4775 15.9993 98.0636 15.9993ZM98.0636 15.4905C98.3967 15.4905 98.6779 15.401 98.9091 15.222C99.1403 15.0431 99.3152 14.8049 99.4338 14.5073C99.5542 14.2098 99.6149 13.882 99.6149 13.5241C99.6149 13.1662 99.5542 12.8375 99.4338 12.5379C99.3152 12.2383 99.1403 11.9979 98.9091 11.8169C98.6779 11.6359 98.3967 11.5453 98.0636 11.5453C97.7322 11.5453 97.451 11.6359 97.2172 11.8169C96.9869 11.9979 96.8111 12.2383 96.6898 12.5379C96.5712 12.8375 96.5123 13.1662 96.5123 13.5241C96.5123 13.882 96.5712 14.2098 96.6898 14.5073C96.8111 14.8049 96.9869 15.0431 97.2172 15.222C97.4483 15.401 97.7305 15.4905 98.0636 15.4905ZM101.948 12.9031V15.8993H101.393V11.1053H101.933V11.8574H101.983C102.095 11.612 102.27 11.4153 102.507 11.2676C102.746 11.1177 103.042 11.0429 103.393 11.0429C103.716 11.0429 103.999 11.1104 104.242 11.2457C104.488 11.3789 104.678 11.5755 104.814 11.8356C104.951 12.0957 105.019 12.4151 105.019 12.7938V15.8993H104.464V12.8281C104.464 12.4349 104.354 12.1238 104.133 11.8949C103.915 11.666 103.621 11.5516 103.253 11.5516C103.001 11.5516 102.777 11.6057 102.582 11.7139C102.386 11.8221 102.231 11.9781 102.117 12.182C102.005 12.3839 101.948 12.6242 101.948 12.9031ZM106.489 15.8993V11.1053H107.048V15.8993H106.489ZM106.514 10.4404L107.313 9.02344H107.972L107.014 10.4404H106.514ZM112.228 11.1053L110.477 15.8993H109.884L108.133 11.1053H108.735L110.158 15.1659H110.202L111.625 11.1053H112.228ZM115.081 15.9993C114.634 15.9993 114.247 15.8952 113.92 15.6872C113.594 15.477 113.341 15.1867 113.162 14.8163C112.985 14.4438 112.897 14.0152 112.897 13.5304C112.897 13.0477 112.985 12.619 113.162 12.2445C113.341 11.8679 113.588 11.5735 113.902 11.3612C114.218 11.1468 114.583 11.0397 114.997 11.0397C115.257 11.0397 115.508 11.0876 115.749 11.1833C115.991 11.2769 116.207 11.4215 116.399 11.6171C116.592 11.8107 116.745 12.0551 116.858 12.3506C116.97 12.644 117.026 12.9915 117.026 13.3931V13.6678H113.28V13.1778H116.458C116.458 12.8698 116.395 12.593 116.27 12.3475C116.148 12.0998 115.976 11.9043 115.755 11.7607C115.537 11.6171 115.284 11.5453 114.997 11.5453C114.694 11.5453 114.426 11.6265 114.195 11.7888C113.964 11.9511 113.783 12.1654 113.652 12.4317C113.523 12.6981 113.458 12.9894 113.455 13.3056V13.5991C113.455 13.9799 113.521 14.3128 113.652 14.5978C113.785 14.8808 113.974 15.1004 114.217 15.2564C114.461 15.4125 114.749 15.4905 115.081 15.4905C115.308 15.4905 115.507 15.4551 115.678 15.3844C115.85 15.3136 115.995 15.219 116.111 15.1004C116.23 14.9796 116.32 14.8475 116.38 14.704L116.908 14.8757C116.835 15.0775 116.715 15.2637 116.548 15.4343C116.384 15.605 116.178 15.7423 115.93 15.8463C115.685 15.9483 115.402 15.9993 115.081 15.9993ZM118.806 9.5072V15.8993H118.251V9.5072H118.806ZM123.304 12.9031V15.8993H122.748V11.1053H123.288V11.8574H123.338C123.45 11.612 123.625 11.4153 123.863 11.2676C124.102 11.1177 124.397 11.0429 124.749 11.0429C125.071 11.0429 125.354 11.1104 125.598 11.2457C125.843 11.3789 126.034 11.5755 126.169 11.8356C126.306 12.0957 126.375 12.4151 126.375 12.7938V15.8993H125.819V12.8281C125.819 12.4349 125.709 12.1238 125.489 11.8949C125.27 11.666 124.976 11.5516 124.608 11.5516C124.357 11.5516 124.132 11.6057 123.937 11.7139C123.741 11.8221 123.587 11.9781 123.472 12.182C123.36 12.3839 123.304 12.6242 123.304 12.9031ZM129.177 16.0086C128.887 16.0086 128.624 15.9524 128.384 15.8401C128.145 15.7257 127.954 15.5612 127.813 15.3469C127.671 15.1306 127.601 14.8684 127.601 14.5604C127.601 14.3232 127.646 14.1234 127.735 13.9611C127.824 13.7988 127.951 13.6656 128.116 13.5616C128.28 13.4576 128.474 13.3754 128.699 13.315C128.924 13.2547 129.171 13.2079 129.442 13.1746C129.711 13.1413 129.938 13.1122 130.122 13.0872C130.31 13.0623 130.453 13.0227 130.55 12.9686C130.648 12.9145 130.697 12.8271 130.697 12.7064V12.5941C130.697 12.2674 130.599 12.0104 130.404 11.8232C130.21 11.6338 129.931 11.5391 129.567 11.5391C129.221 11.5391 128.939 11.615 128.721 11.7669C128.505 11.9189 128.353 12.0978 128.265 12.3038L127.738 12.1134C127.846 11.8512 127.996 11.6421 128.188 11.486C128.379 11.3279 128.593 11.2145 128.83 11.1459C129.068 11.0751 129.308 11.0397 129.551 11.0397C129.735 11.0397 129.925 11.0636 130.122 11.1115C130.323 11.1594 130.507 11.2425 130.678 11.3612C130.849 11.4777 130.987 11.641 131.094 11.8512C131.199 12.0593 131.253 12.3235 131.253 12.644V15.8993H130.697V15.1409H130.663C130.596 15.2824 130.497 15.4198 130.366 15.553C130.235 15.6861 130.07 15.7954 129.873 15.8806C129.675 15.966 129.443 16.0086 129.177 16.0086ZM129.252 15.4999C129.547 15.4999 129.803 15.4343 130.019 15.3033C130.236 15.1721 130.403 14.9984 130.519 14.782C130.637 14.5636 130.697 14.3232 130.697 14.061V13.3681C130.655 13.4077 130.586 13.443 130.488 13.4742C130.392 13.5054 130.281 13.5335 130.154 13.5585C130.029 13.5814 129.904 13.6011 129.78 13.6178C129.655 13.6344 129.542 13.649 129.442 13.6615C129.171 13.6948 128.941 13.7468 128.749 13.8175C128.558 13.8883 128.411 13.9861 128.309 14.1109C128.207 14.2337 128.156 14.3918 128.156 14.5854C128.156 14.8767 128.26 15.1024 128.468 15.2627C128.676 15.4208 128.938 15.4999 129.252 15.4999Z" fill="white"/>
<path d="M79.3334 31.7188H77.6953L81.3758 21.4914H83.1586L86.8391 31.7188H85.2011L82.3097 23.3491H82.2298L79.3334 31.7188ZM79.608 27.7137H84.9215V29.0122H79.608V27.7137ZM88.1961 34.5954V24.0483H89.6542V25.2917H89.779C89.866 25.1319 89.9908 24.9472 90.1534 24.7374C90.3169 24.5276 90.5437 24.3446 90.8329 24.1881C91.1229 24.0282 91.5052 23.9483 91.9816 23.9483C92.6012 23.9483 93.1532 24.1049 93.6393 24.4178C94.1253 24.7308 94.5068 25.1818 94.7827 25.7711C95.0631 26.3605 95.2029 27.0696 95.2029 27.8986C95.2029 28.7275 95.0649 29.4383 94.788 30.0309C94.512 30.6202 94.1323 31.0747 93.6498 31.3942C93.1664 31.7106 92.6162 31.8687 91.9965 31.8687C91.5307 31.8687 91.1493 31.7905 90.8531 31.634C90.5604 31.4775 90.3301 31.2944 90.164 31.0847C89.997 30.8749 89.8696 30.6885 89.779 30.5253H89.6894V34.5954H88.1961ZM89.6595 27.8835C89.6595 28.4229 89.7377 28.8956 89.8942 29.3018C90.0506 29.708 90.2774 30.0259 90.5736 30.2557C90.8698 30.482 91.2328 30.5952 91.6617 30.5952C92.1082 30.5952 92.4808 30.4771 92.7805 30.2406C93.0803 30.001 93.307 29.6764 93.46 29.2669C93.6164 28.8574 93.6946 28.3962 93.6946 27.8835C93.6946 27.3775 93.6182 26.9231 93.4643 26.5203C93.3149 26.1174 93.0882 25.7994 92.7858 25.5664C92.4861 25.3334 92.1117 25.2168 91.6617 25.2168C91.2292 25.2168 90.8627 25.3283 90.563 25.5514C90.2668 25.7745 90.0427 26.0858 89.8889 26.4853C89.736 26.8847 89.6595 27.3508 89.6595 27.8835ZM96.8755 34.5954V24.0483H98.3336V25.2917H98.4584C98.5454 25.1319 98.6702 24.9472 98.8328 24.7374C98.9963 24.5276 99.2231 24.3446 99.5122 24.1881C99.8023 24.0282 100.185 23.9483 100.661 23.9483C101.281 23.9483 101.833 24.1049 102.319 24.4178C102.805 24.7308 103.186 25.1818 103.462 25.7711C103.742 26.3605 103.882 27.0696 103.882 27.8986C103.882 28.7275 103.744 29.4383 103.467 30.0309C103.191 30.6202 102.812 31.0747 102.329 31.3942C101.846 31.7106 101.296 31.8687 100.676 31.8687C100.21 31.8687 99.8286 31.7905 99.5324 31.634C99.2398 31.4775 99.0095 31.2944 98.8434 31.0847C98.6764 30.8749 98.5489 30.6885 98.4584 30.5253H98.3687V34.5954H96.8755ZM98.3389 27.8835C98.3389 28.4229 98.4171 28.8956 98.5735 29.3018C98.73 29.708 98.9567 30.0259 99.2529 30.2557C99.5491 30.482 99.9121 30.5952 100.341 30.5952C100.788 30.5952 101.16 30.4771 101.46 30.2406C101.76 30.001 101.986 29.6764 102.139 29.2669C102.296 28.8574 102.374 28.3962 102.374 27.8835C102.374 27.3775 102.298 26.9231 102.144 26.5203C101.994 26.1174 101.768 25.7994 101.465 25.5664C101.165 25.3334 100.791 25.2168 100.341 25.2168C99.9086 25.2168 99.5421 25.3283 99.2424 25.5514C98.9462 25.7745 98.7221 26.0858 98.5683 26.4853C98.4153 26.8847 98.3389 27.3508 98.3389 27.8835ZM114.974 24.1781C114.922 23.7053 114.702 23.3392 114.315 23.0794C113.929 22.8165 113.443 22.6849 112.857 22.6849C112.438 22.6849 112.075 22.7515 111.769 22.8847C111.462 23.0145 111.224 23.1943 111.054 23.424C110.888 23.6504 110.805 23.9084 110.805 24.198C110.805 24.4411 110.862 24.6509 110.974 24.8273C111.091 25.0038 111.242 25.1519 111.429 25.2717C111.619 25.3883 111.822 25.4865 112.039 25.5664C112.255 25.643 112.463 25.7062 112.663 25.7562L113.661 26.0158C113.987 26.0957 114.322 26.2039 114.665 26.3404C115.008 26.4769 115.326 26.6567 115.619 26.8798C115.912 27.1028 116.149 27.3791 116.328 27.7087C116.511 28.0383 116.603 28.4329 116.603 28.8923C116.603 29.4716 116.453 29.986 116.153 30.4354C115.857 30.8849 115.426 31.2395 114.86 31.4991C114.297 31.7588 113.616 31.8886 112.817 31.8886C112.052 31.8886 111.389 31.7672 110.83 31.5241C110.27 31.281 109.833 30.9365 109.516 30.4903C109.2 30.041 109.026 29.5082 108.992 28.8923H110.54C110.57 29.2619 110.69 29.5699 110.9 29.8162C111.113 30.0592 111.384 30.2406 111.713 30.3605C112.047 30.4771 112.411 30.5354 112.808 30.5354C113.244 30.5354 113.631 30.4671 113.971 30.3306C114.314 30.1907 114.583 29.9976 114.78 29.7513C114.976 29.5016 115.074 29.2103 115.074 28.8773C115.074 28.5744 114.988 28.3264 114.815 28.1333C114.646 27.9402 114.414 27.7804 114.121 27.6538C113.831 27.5273 113.503 27.4158 113.137 27.3193L111.929 26.9897C111.11 26.7666 110.46 26.4387 109.981 26.0058C109.505 25.573 109.267 25.0004 109.267 24.288C109.267 23.6986 109.426 23.1843 109.746 22.7448C110.065 22.3054 110.499 21.9642 111.045 21.7211C111.59 21.4747 112.207 21.3516 112.892 21.3516C113.585 21.3516 114.196 21.473 114.725 21.7161C115.257 21.9592 115.677 22.2938 115.983 22.7199C116.29 23.1427 116.45 23.6288 116.463 24.1781H114.974ZM121.907 24.0483V25.2468H117.717V24.0483H121.907ZM118.842 22.2105H120.335V29.4666C120.335 29.7563 120.378 29.9743 120.464 30.1209C120.551 30.2639 120.663 30.3622 120.799 30.4155C120.939 30.4654 121.09 30.4903 121.253 30.4903C121.373 30.4903 121.478 30.482 121.568 30.4654C121.658 30.4488 121.728 30.4354 121.778 30.4255L122.047 31.659C121.961 31.6922 121.838 31.7255 121.678 31.7588C121.518 31.7955 121.318 31.8154 121.078 31.8188C120.686 31.8254 120.319 31.7555 119.98 31.609C119.64 31.4625 119.365 31.2361 119.156 30.9298C118.946 30.6235 118.842 30.239 118.842 29.7762V22.2105ZM126.708 31.8737C125.989 31.8737 125.361 31.7089 124.825 31.3793C124.289 31.0497 123.873 30.5886 123.576 29.996C123.28 29.4034 123.132 28.7109 123.132 27.9185C123.132 27.1228 123.28 26.427 123.576 25.8311C123.873 25.2351 124.289 24.7723 124.825 24.4427C125.361 24.1131 125.989 23.9483 126.708 23.9483C127.427 23.9483 128.054 24.1131 128.591 24.4427C129.127 24.7723 129.542 25.2351 129.839 25.8311C130.136 26.427 130.283 27.1228 130.283 27.9185C130.283 28.7109 130.136 29.4034 129.839 29.996C129.542 30.5886 129.127 31.0497 128.591 31.3793C128.054 31.7089 127.427 31.8737 126.708 31.8737ZM126.713 30.6202C127.179 30.6202 127.565 30.497 127.872 30.2507C128.177 30.0043 128.404 29.6764 128.551 29.2669C128.7 28.8574 128.775 28.4062 128.775 27.9135C128.775 27.4241 128.7 26.9747 128.551 26.5652C128.404 26.1523 128.177 25.8211 127.872 25.5714C127.565 25.3217 127.179 25.1969 126.713 25.1969C126.244 25.1969 125.854 25.3217 125.544 25.5714C125.238 25.8211 125.01 26.1523 124.86 26.5652C124.714 26.9747 124.641 27.4241 124.641 27.9135C124.641 28.4062 124.714 28.8574 124.86 29.2669C125.01 29.6764 125.238 30.0043 125.544 30.2507C125.854 30.497 126.244 30.6202 126.713 30.6202ZM131.95 31.7188V24.0483H133.393V25.2667H133.473C133.613 24.8539 133.86 24.5293 134.212 24.293C134.569 24.0533 134.972 23.9334 135.421 23.9334C135.514 23.9334 135.624 23.9367 135.75 23.9434C135.88 23.95 135.982 23.9584 136.055 23.9684V25.3966C135.995 25.3799 135.888 25.3617 135.735 25.3417C135.582 25.3183 135.429 25.3067 135.277 25.3067C134.923 25.3067 134.609 25.3816 134.333 25.5315C134.059 25.6779 133.843 25.8827 133.683 26.1457C133.523 26.4054 133.443 26.7017 133.443 27.0346V31.7188H131.95ZM140.379 31.8737C139.623 31.8737 138.972 31.7122 138.426 31.3892C137.883 31.063 137.464 30.6052 137.167 30.0159C136.874 29.4233 136.728 28.7292 136.728 27.9335C136.728 27.1478 136.874 26.4553 137.167 25.856C137.464 25.2568 137.876 24.789 138.406 24.4528C138.939 24.1165 139.561 23.9483 140.274 23.9483C140.707 23.9483 141.126 24.02 141.532 24.1632C141.939 24.3062 142.303 24.531 142.626 24.8373C142.949 25.1436 143.204 25.5414 143.39 26.0309C143.576 26.5169 143.669 27.1078 143.669 27.8037V28.333H137.572V27.2143H142.206C142.206 26.8215 142.127 26.4736 141.967 26.1706C141.807 25.8644 141.582 25.623 141.293 25.4466C141.006 25.2701 140.67 25.1818 140.284 25.1818C139.864 25.1818 139.498 25.2851 139.185 25.4915C138.876 25.6946 138.636 25.9609 138.466 26.2905C138.299 26.6168 138.217 26.9713 138.217 27.3542V28.2282C138.217 28.7409 138.306 29.177 138.485 29.5365C138.669 29.8961 138.924 30.1708 139.25 30.3605C139.576 30.547 139.958 30.6402 140.394 30.6402C140.677 30.6402 140.934 30.6002 141.168 30.5203C141.401 30.4371 141.602 30.314 141.772 30.1508C141.941 29.9876 142.071 29.7862 142.161 29.5466L143.574 29.8012C143.461 30.2174 143.258 30.5819 142.965 30.8948C142.676 31.2045 142.311 31.4458 141.872 31.619C141.436 31.7888 140.938 31.8737 140.379 31.8737Z" fill="white"/>
<path d="M188.969 0.736328H7.03138C3.51211 0.736328 0.65918 3.58926 0.65918 7.10853V35.2341C0.65918 38.7534 3.51211 41.6063 7.03138 41.6063H188.969C192.488 41.6063 195.341 38.7534 195.341 35.2341V7.10853C195.341 3.58926 192.488 0.736328 188.969 0.736328Z" stroke="white" stroke-width="1.31839"/>
</svg>
