<svg width="196" height="44" viewBox="0 0 196 44" fill="none" xmlns="http://www.w3.org/2000/svg">
<path d="M62.7511 21.9649L58.796 23.9864L55.9834 21.1739L58.796 18.3613L62.7511 20.295C63.4543 20.6465 63.4543 21.7012 62.7511 21.9649Z" stroke="white" stroke-width="1.31839" stroke-miterlimit="10" stroke-linecap="round" stroke-linejoin="round"/>
<path d="M58.8001 18.3607L55.9875 21.1732L47.5498 29.6109L47.0225 29.8746C46.4072 30.2261 45.7041 29.6988 45.7041 28.9956V13.3508C45.7041 12.6477 46.4072 12.2082 47.0225 12.4719L58.8001 18.3607Z" stroke="white" stroke-width="1.31839" stroke-miterlimit="10" stroke-linecap="round" stroke-linejoin="round"/>
<path d="M58.802 23.9844L47.5518 29.6095L55.9894 21.1719L58.802 23.9844Z" stroke="white" stroke-width="1.31839" stroke-miterlimit="10" stroke-linecap="round" stroke-linejoin="round"/>
<path d="M55.9894 21.172L47.5518 12.7344" stroke="white" stroke-width="1.31839" stroke-miterlimit="10" stroke-linecap="round" stroke-linejoin="round"/>
<path d="M74.7956 15.9013H72.9229V9.50915H74.9079C75.5176 9.50915 76.0388 9.63607 76.4717 9.88999C76.9065 10.1438 77.2394 10.508 77.4704 10.9824C77.7014 11.4568 77.8169 12.0259 77.8169 12.6896C77.8169 13.3596 77.6982 13.935 77.4611 14.4157C77.2259 14.8942 76.8826 15.2615 76.4311 15.5175C75.9816 15.7733 75.4365 15.9013 74.7956 15.9013ZM73.5065 15.377H74.7612C75.3105 15.377 75.7704 15.2687 76.1408 15.0523C76.5111 14.836 76.789 14.527 76.9742 14.1253C77.1594 13.7238 77.2519 13.2452 77.2519 12.6896C77.2499 12.1383 77.1583 11.6638 76.9772 11.2664C76.7983 10.8689 76.532 10.5641 76.1782 10.3519C75.8266 10.1396 75.3918 10.0335 74.8736 10.0335H73.5065V15.377ZM79.1223 15.9013V11.1072H79.681V15.9013H79.1223ZM79.4063 10.2832C79.2919 10.2832 79.1941 10.2447 79.1129 10.1677C79.0318 10.0886 78.9912 9.99397 78.9912 9.88375C78.9912 9.77344 79.0318 9.67975 79.1129 9.60284C79.1941 9.52374 79.2919 9.48419 79.4063 9.48419C79.5208 9.48419 79.6186 9.52374 79.6997 9.60284C79.7808 9.67975 79.8214 9.77344 79.8214 9.88375C79.8214 9.99397 79.7808 10.0886 79.6997 10.1677C79.6186 10.2447 79.5208 10.2832 79.4063 10.2832ZM84.3714 12.159L83.8626 12.3026C83.8126 12.159 83.7419 12.029 83.6504 11.9125C83.5588 11.7959 83.4392 11.7034 83.2914 11.6347C83.1458 11.566 82.9647 11.5317 82.7483 11.5317C82.4238 11.5317 82.1574 11.6086 81.9493 11.7626C81.7413 11.9166 81.6372 12.1153 81.6372 12.3588C81.6372 12.5648 81.708 12.7323 81.8495 12.8613C81.993 12.9882 82.2136 13.0892 82.5111 13.1641L83.2353 13.342C83.6368 13.4398 83.9375 13.5948 84.1372 13.807C84.3391 14.0193 84.44 14.2856 84.44 14.606C84.44 14.8766 84.3651 15.1169 84.2153 15.327C84.0655 15.5372 83.8563 15.7027 83.5879 15.8233C83.3216 15.9419 83.0125 16.0012 82.661 16.0012C82.1928 16.0012 81.8067 15.8961 81.503 15.686C81.1991 15.4737 81.0046 15.1678 80.9193 14.7684L81.4531 14.6372C81.5217 14.9224 81.6559 15.1377 81.8557 15.2833C82.0575 15.429 82.3228 15.5018 82.6516 15.5018C83.0198 15.5018 83.3143 15.4196 83.5349 15.2553C83.7554 15.0888 83.8657 14.8807 83.8657 14.631C83.8657 14.4375 83.8012 14.2752 83.6722 14.1442C83.5432 14.0109 83.3476 13.9132 83.0854 13.8507L82.302 13.6635C81.8859 13.5635 81.5779 13.4054 81.3781 13.189C81.1784 12.9726 81.0785 12.7042 81.0785 12.3838C81.0785 12.1196 81.1503 11.8875 81.2939 11.6877C81.4374 11.4859 81.6351 11.3277 81.8869 11.2133C82.1386 11.0989 82.4258 11.0416 82.7483 11.0416C83.1874 11.0416 83.538 11.1416 83.8001 11.3413C84.0644 11.5389 84.2548 11.8116 84.3714 12.159ZM85.6565 17.6991V11.1072H86.1964V12.0217H86.262C86.3286 11.8781 86.4201 11.7314 86.5367 11.5817C86.6532 11.4297 86.8071 11.3018 86.9986 11.1977C87.1921 11.0937 87.4356 11.0416 87.7289 11.0416C88.1239 11.0416 88.4693 11.1457 88.7655 11.3537C89.0626 11.5598 89.2938 11.849 89.4581 12.2215C89.6243 12.5919 89.7078 13.0236 89.7078 13.5168C89.7078 14.012 89.6243 14.4458 89.4581 14.8183C89.2938 15.1908 89.0626 15.481 88.7655 15.6891C88.4693 15.8972 88.1266 16.0012 87.7352 16.0012C87.4459 16.0012 87.2035 15.9492 87.008 15.8451C86.8144 15.7412 86.6574 15.6132 86.5367 15.4612C86.418 15.3072 86.3265 15.1575 86.262 15.0118H86.2121V17.6991H85.6565ZM86.2059 13.5074C86.2059 13.8945 86.2631 14.2378 86.3775 14.5374C86.494 14.8349 86.6604 15.069 86.8769 15.2396C87.0953 15.4082 87.3596 15.4924 87.6696 15.4924C87.9877 15.4924 88.2566 15.4051 88.4746 15.2302C88.6952 15.0534 88.8631 14.8151 88.9774 14.5155C89.0943 14.2159 89.1523 13.8799 89.1523 13.5074C89.1523 13.1391 89.0951 12.8072 88.9809 12.5117C88.8684 12.2162 88.7014 11.9822 88.4808 11.8095C88.2602 11.6347 87.9903 11.5473 87.6696 11.5473C87.3575 11.5473 87.0922 11.6316 86.8737 11.8002C86.6552 11.9665 86.4888 12.1975 86.3743 12.493C86.262 12.7864 86.2059 13.1245 86.2059 13.5074ZM92.7901 16.0012C92.3762 16.0012 92.0096 15.8961 91.6915 15.686C91.3751 15.4758 91.1272 15.1855 90.9488 14.8151C90.7695 14.4427 90.6798 14.013 90.6798 13.5261C90.6798 13.035 90.7695 12.6033 90.9488 12.2308C91.1272 11.8563 91.3751 11.565 91.6915 11.3569C92.0096 11.1468 92.3762 11.0416 92.7901 11.0416C93.2041 11.0416 93.5689 11.1468 93.8853 11.3569C94.2017 11.5671 94.4495 11.8583 94.628 12.2308C94.809 12.6033 94.8996 13.035 94.8996 13.5261C94.8996 14.013 94.8108 14.4427 94.6315 14.8151C94.4522 15.1855 94.2034 15.4758 93.8853 15.686C93.5689 15.8961 93.2041 16.0012 92.7901 16.0012ZM92.7901 15.4924C93.1232 15.4924 93.4045 15.403 93.6357 15.224C93.8668 15.0451 94.0417 14.8069 94.1604 14.5093C94.2808 14.2117 94.3414 13.884 94.3414 13.5261C94.3414 13.1682 94.2808 12.8395 94.1604 12.5399C94.0417 12.2402 93.8668 11.9998 93.6357 11.8189C93.4045 11.6378 93.1232 11.5473 92.7901 11.5473C92.4588 11.5473 92.1775 11.6378 91.9437 11.8189C91.7135 11.9998 91.5377 12.2402 91.4164 12.5399C91.2977 12.8395 91.2388 13.1682 91.2388 13.5261C91.2388 13.884 91.2977 14.2117 91.4164 14.5093C91.5377 14.8069 91.7135 15.0451 91.9437 15.224C92.1749 15.403 92.457 15.4924 92.7901 15.4924ZM96.675 12.905V15.9013H96.1195V11.1072H96.6592V11.8594H96.7093C96.8218 11.6139 96.9967 11.4172 97.234 11.2695C97.473 11.1197 97.7684 11.0448 98.1199 11.0448C98.4425 11.0448 98.7255 11.1124 98.969 11.2477C99.2142 11.3808 99.4049 11.5774 99.5403 11.8376C99.6774 12.0977 99.7459 12.4171 99.7459 12.7958V15.9013H99.1905V12.8301C99.1905 12.4368 99.0806 12.1258 98.86 11.8968C98.6411 11.668 98.3476 11.5535 97.9793 11.5535C97.7279 11.5535 97.5038 11.6077 97.3087 11.7159C97.1127 11.8241 96.958 11.9801 96.8437 12.184C96.7312 12.3859 96.675 12.6262 96.675 12.905ZM101.215 15.9013V11.1072H101.774V15.9013H101.215ZM101.24 10.4424L102.04 9.02539H102.698L101.74 10.4424H101.24ZM106.955 11.1072L105.204 15.9013H104.611L102.86 11.1072H103.462L104.885 15.1678H104.929L106.352 11.1072H106.955ZM109.808 16.0012C109.36 16.0012 108.974 15.8972 108.647 15.6891C108.321 15.479 108.068 15.1887 107.888 14.8183C107.712 14.4458 107.624 14.0172 107.624 13.5323C107.624 13.0496 107.712 12.621 107.888 12.2465C108.068 11.8699 108.315 11.5754 108.628 11.3632C108.945 11.1488 109.31 11.0416 109.723 11.0416C109.984 11.0416 110.235 11.0895 110.476 11.1853C110.718 11.2789 110.934 11.4234 111.125 11.6191C111.319 11.8126 111.472 12.0571 111.584 12.3526C111.697 12.6459 111.753 12.9935 111.753 13.395V13.6697H108.007V13.1797H111.184C111.184 12.8717 111.122 12.595 110.997 12.3495C110.875 12.1018 110.703 11.9062 110.482 11.7626C110.264 11.6191 110.011 11.5473 109.723 11.5473C109.42 11.5473 109.153 11.6284 108.922 11.7907C108.691 11.9531 108.51 12.1674 108.379 12.4337C108.25 12.7001 108.184 12.9914 108.182 13.3076V13.6011C108.182 13.9818 108.248 14.3148 108.379 14.5998C108.511 14.8828 108.7 15.1024 108.944 15.2584C109.187 15.4145 109.476 15.4924 109.808 15.4924C110.035 15.4924 110.233 15.4571 110.405 15.3863C110.577 15.3156 110.722 15.2209 110.838 15.1024C110.957 14.9816 111.046 14.8495 111.107 14.706L111.634 14.8776C111.561 15.0794 111.442 15.2657 111.275 15.4363C111.11 15.6069 110.905 15.7442 110.657 15.8483C110.412 15.9503 110.129 16.0012 109.808 16.0012ZM113.533 9.50915V15.9013H112.977V9.50915H113.533ZM118.03 12.905V15.9013H117.475V11.1072H118.014V11.8594H118.064C118.177 11.6139 118.352 11.4172 118.589 11.2695C118.828 11.1197 119.124 11.0448 119.475 11.0448C119.798 11.0448 120.081 11.1124 120.324 11.2477C120.569 11.3808 120.76 11.5774 120.895 11.8376C121.033 12.0977 121.101 12.4171 121.101 12.7958V15.9013H120.546V12.8301C120.546 12.4368 120.436 12.1258 120.215 11.8968C119.996 11.668 119.703 11.5535 119.335 11.5535C119.083 11.5535 118.859 11.6077 118.664 11.7159C118.468 11.8241 118.313 11.9801 118.199 12.184C118.086 12.3859 118.03 12.6262 118.03 12.905ZM124.428 16.0012C124.014 16.0012 123.647 15.8961 123.329 15.686C123.013 15.4758 122.765 15.1855 122.587 14.8151C122.407 14.4427 122.318 14.013 122.318 13.5261C122.318 13.035 122.407 12.6033 122.587 12.2308C122.765 11.8563 123.013 11.565 123.329 11.3569C123.647 11.1468 124.014 11.0416 124.428 11.0416C124.842 11.0416 125.207 11.1468 125.523 11.3569C125.839 11.5671 126.087 11.8583 126.266 12.2308C126.447 12.6033 126.537 13.035 126.537 13.5261C126.537 14.013 126.449 14.4427 126.269 14.8151C126.09 15.1855 125.842 15.4758 125.523 15.686C125.207 15.8961 124.842 16.0012 124.428 16.0012ZM124.428 15.4924C124.761 15.4924 125.042 15.403 125.273 15.224C125.505 15.0451 125.679 14.8069 125.798 14.5093C125.919 14.2117 125.979 13.884 125.979 13.5261C125.979 13.1682 125.919 12.8395 125.798 12.5399C125.679 12.2402 125.505 11.9998 125.273 11.8189C125.042 11.6378 124.761 11.5473 124.428 11.5473C124.097 11.5473 123.815 11.6378 123.582 11.8189C123.351 11.9998 123.175 12.2402 123.054 12.5399C122.935 12.8395 122.877 13.1682 122.877 13.5261C122.877 13.884 122.935 14.2117 123.054 14.5093C123.175 14.8069 123.351 15.0451 123.582 15.224C123.813 15.403 124.095 15.4924 124.428 15.4924Z" fill="white"/>
<path d="M80.1193 24.7244C80.0228 24.4214 79.8929 24.1501 79.7297 23.9104C79.57 23.6674 79.3785 23.4609 79.1555 23.2911C78.9324 23.118 78.6778 22.9865 78.3914 22.8966C78.1084 22.8067 77.7972 22.7618 77.4576 22.7618C76.8816 22.7618 76.3622 22.9099 75.8995 23.2062C75.4367 23.5026 75.0705 23.937 74.8008 24.5096C74.5344 25.0789 74.4013 25.7764 74.4013 26.6021C74.4013 27.4311 74.5361 28.1319 74.8058 28.7045C75.0755 29.2771 75.445 29.7116 75.9144 30.0079C76.3839 30.3042 76.9182 30.4524 77.5175 30.4524C78.0735 30.4524 78.5579 30.3392 78.9707 30.1128C79.3869 29.8864 79.7081 29.5668 79.9345 29.154C80.1642 28.7378 80.2791 28.2484 80.2791 27.6857L80.6786 27.7607H77.7522V26.4872H81.7723V27.6508C81.7723 28.5097 81.5892 29.2555 81.223 29.888C80.86 30.5173 80.3573 31.0034 79.7148 31.3463C79.0756 31.6892 78.3432 31.8606 77.5175 31.8606C76.592 31.8606 75.7796 31.6476 75.0805 31.2215C74.3847 30.7953 73.842 30.191 73.4525 29.4087C73.0629 28.6229 72.8682 27.6907 72.8682 26.612C72.8682 25.7964 72.9814 25.064 73.2078 24.4147C73.4341 23.7655 73.7521 23.2145 74.1616 22.7618C74.5744 22.3057 75.0588 21.9578 75.6148 21.7181C76.1741 21.475 76.785 21.3535 77.4475 21.3535C78.0002 21.3535 78.5146 21.4351 78.9907 21.5982C79.4701 21.7613 79.8962 21.9928 80.2691 22.2924C80.6453 22.592 80.9566 22.9482 81.203 23.3611C81.4494 23.7706 81.6158 24.225 81.7023 24.7244H80.1193ZM86.8423 31.8756C86.1232 31.8756 85.4957 31.7108 84.9596 31.3812C84.4236 31.0516 84.0075 30.5906 83.7112 29.9979C83.4148 29.4053 83.2667 28.7128 83.2667 27.9205C83.2667 27.1248 83.4148 26.429 83.7112 25.833C84.0075 25.237 84.4236 24.7743 84.9596 24.4447C85.4957 24.1151 86.1232 23.9503 86.8423 23.9503C87.5614 23.9503 88.1892 24.1151 88.7254 24.4447C89.2606 24.7743 89.6772 25.237 89.9734 25.833C90.2696 26.429 90.4182 27.1248 90.4182 27.9205C90.4182 28.7128 90.2696 29.4053 89.9734 29.9979C89.6772 30.5906 89.2606 31.0516 88.7254 31.3812C88.1892 31.7108 87.5614 31.8756 86.8423 31.8756ZM86.8473 30.6221C87.3134 30.6221 87.6996 30.499 88.0055 30.2526C88.3123 30.0063 88.5381 29.6783 88.6849 29.2688C88.8352 28.8593 88.9099 28.4082 88.9099 27.9155C88.9099 27.4261 88.8352 26.9766 88.6849 26.5671C88.5381 26.1543 88.3123 25.823 88.0055 25.5733C87.6996 25.3236 87.3134 25.1988 86.8473 25.1988C86.3778 25.1988 85.9884 25.3236 85.6787 25.5733C85.3724 25.823 85.1444 26.1543 84.9946 26.5671C84.8481 26.9766 84.7749 27.4261 84.7749 27.9155C84.7749 28.4082 84.8481 28.8593 84.9946 29.2688C85.1444 29.6783 85.3724 30.0063 85.6787 30.2526C85.9884 30.499 86.3778 30.6221 86.8473 30.6221ZM95.3155 31.8756C94.5966 31.8756 93.969 31.7108 93.4329 31.3812C92.8967 31.0516 92.481 30.5906 92.1848 29.9979C91.8886 29.4053 91.7401 28.7128 91.7401 27.9205C91.7401 27.1248 91.8886 26.429 92.1848 25.833C92.481 25.237 92.8967 24.7743 93.4329 24.4447C93.969 24.1151 94.5966 23.9503 95.3155 23.9503C96.0345 23.9503 96.662 24.1151 97.1982 24.4447C97.7343 24.7743 98.1509 25.237 98.4471 25.833C98.7433 26.429 98.891 27.1248 98.891 27.9205C98.891 28.7128 98.7433 29.4053 98.4471 29.9979C98.1509 30.5906 97.7343 31.0516 97.1982 31.3812C96.662 31.7108 96.0345 31.8756 95.3155 31.8756ZM95.3208 30.6221C95.7866 30.6221 96.1734 30.499 96.4792 30.2526C96.786 30.0063 97.0119 29.6783 97.1586 29.2688C97.3081 28.8593 97.3828 28.4082 97.3828 27.9155C97.3828 27.4261 97.3081 26.9766 97.1586 26.5671C97.0119 26.1543 96.786 25.823 96.4792 25.5733C96.1734 25.3236 95.7866 25.1988 95.3208 25.1988C94.8515 25.1988 94.4621 25.3236 94.1518 25.5733C93.846 25.823 93.6175 26.1543 93.468 26.5671C93.3213 26.9766 93.2483 27.4261 93.2483 27.9155C93.2483 28.4082 93.3213 28.8593 93.468 29.2688C93.6175 29.6783 93.846 30.0063 94.1518 30.2526C94.4621 30.499 94.8515 30.6221 95.3208 30.6221ZM103.774 34.7571C103.165 34.7571 102.64 34.6772 102.201 34.5174C101.765 34.3575 101.408 34.1462 101.132 33.8832C100.856 33.6201 100.65 33.3322 100.513 33.0192L101.797 32.4898C101.886 32.6364 102.006 32.7911 102.156 32.9543C102.309 33.1207 102.516 33.2622 102.775 33.3788C103.039 33.4953 103.376 33.5536 103.789 33.5536C104.355 33.5536 104.823 33.4154 105.192 33.1391C105.562 32.8661 105.747 32.43 105.747 31.8306V30.3225H105.652C105.562 30.4856 105.432 30.6671 105.262 30.8669C105.096 31.0666 104.866 31.2397 104.573 31.3863C104.281 31.5327 103.899 31.606 103.43 31.606C102.823 31.606 102.277 31.4645 101.791 31.1815C101.309 30.8951 100.926 30.474 100.643 29.918C100.363 29.3587 100.223 28.6712 100.223 27.8555C100.223 27.0399 100.361 26.3407 100.638 25.7582C100.918 25.1755 101.3 24.7294 101.786 24.4197C102.272 24.1068 102.823 23.9503 103.439 23.9503C103.916 23.9503 104.3 24.0302 104.593 24.1901C104.886 24.3465 105.114 24.5296 105.277 24.7394C105.443 24.9491 105.572 25.1339 105.661 25.2936H105.771V24.0502H107.235V31.8906C107.235 32.5498 107.082 33.0908 106.776 33.5136C106.469 33.9365 106.054 34.2493 105.532 34.4525C105.013 34.6556 104.426 34.7571 103.774 34.7571ZM103.759 30.3675C104.188 30.3675 104.551 30.2676 104.847 30.0679C105.147 29.8648 105.374 29.5751 105.527 29.1989C105.683 28.8194 105.762 28.365 105.762 27.8356C105.762 27.3196 105.685 26.8651 105.532 26.4723C105.379 26.0794 105.154 25.7731 104.858 25.5534C104.562 25.3303 104.195 25.2188 103.759 25.2188C103.309 25.2188 102.935 25.3353 102.635 25.5683C102.335 25.7981 102.11 26.111 101.957 26.5072C101.806 26.9034 101.732 27.3462 101.732 27.8356C101.732 28.3383 101.808 28.7795 101.961 29.159C102.115 29.5385 102.341 29.8348 102.64 30.0478C102.944 30.261 103.316 30.3675 103.759 30.3675ZM110.731 21.4934V31.7208H109.238V21.4934H110.731ZM116.045 31.8756C115.29 31.8756 114.639 31.7142 114.093 31.3912C113.55 31.0649 113.13 30.6072 112.834 30.0179C112.542 29.4253 112.395 28.7311 112.395 27.9354C112.395 27.1498 112.542 26.4573 112.834 25.858C113.13 25.2587 113.544 24.791 114.073 24.4547C114.605 24.1184 115.228 23.9503 115.94 23.9503C116.374 23.9503 116.793 24.0219 117.199 24.1651C117.605 24.3082 117.97 24.5329 118.292 24.8392C118.616 25.1455 118.87 25.5433 119.057 26.0328C119.243 26.5189 119.337 27.1098 119.337 27.8056V28.335H113.239V27.2163H117.873C117.873 26.8235 117.793 26.4755 117.633 26.1726C117.473 25.8664 117.249 25.6249 116.959 25.4485C116.672 25.272 116.337 25.1838 115.95 25.1838C115.531 25.1838 115.165 25.2871 114.851 25.4934C114.542 25.6965 114.302 25.9629 114.132 26.2925C113.966 26.6187 113.883 26.9733 113.883 27.3561V28.2301C113.883 28.7428 113.972 29.1789 114.153 29.5385C114.335 29.8981 114.59 30.1727 114.916 30.3625C115.243 30.5489 115.624 30.6422 116.06 30.6422C116.343 30.6422 116.601 30.6022 116.834 30.5223C117.067 30.439 117.268 30.3159 117.439 30.1528C117.609 29.9896 117.739 29.7882 117.828 29.5485L119.242 29.8031C119.128 30.2193 118.925 30.5839 118.632 30.8968C118.342 31.2064 117.978 31.4478 117.538 31.6209C117.102 31.7907 116.605 31.8756 116.045 31.8756ZM124.834 31.7208V21.4934H128.48C129.275 21.4934 129.935 21.6382 130.458 21.9278C130.98 22.2174 131.372 22.6136 131.631 23.1164C131.891 23.6158 132.021 24.1784 132.021 24.8043C132.021 25.4335 131.889 25.9995 131.627 26.5022C131.366 27.0016 130.973 27.3978 130.448 27.6907C129.925 27.9804 129.267 28.1252 128.475 28.1252H125.968V26.8168H128.335C128.838 26.8168 129.246 26.7302 129.558 26.5571C129.871 26.3807 130.102 26.141 130.248 25.838C130.394 25.5351 130.468 25.1905 130.468 24.8043C130.468 24.4181 130.394 24.0752 130.248 23.7756C130.102 23.4759 129.87 23.2412 129.554 23.0714C129.241 22.9017 128.828 22.8167 128.316 22.8167H126.378V31.7208H124.834ZM135.203 21.4934V31.7208H133.71V21.4934H135.203ZM139.445 31.8906C138.958 31.8906 138.519 31.8008 138.126 31.6209C137.733 31.4378 137.421 31.1731 137.192 30.8269C136.965 30.4807 136.853 30.0562 136.853 29.5534C136.853 29.1207 136.935 28.7644 137.102 28.4848C137.268 28.2051 137.493 27.9837 137.776 27.8205C138.059 27.6574 138.376 27.5343 138.725 27.451C139.075 27.3678 139.43 27.3045 139.793 27.2613C140.253 27.208 140.626 27.1647 140.912 27.1315C141.199 27.0948 141.407 27.0365 141.536 26.9567C141.666 26.8768 141.731 26.7469 141.731 26.5671V26.5321C141.731 26.096 141.608 25.7582 141.361 25.5184C141.119 25.2787 140.756 25.1588 140.273 25.1588C139.771 25.1588 139.374 25.2704 139.084 25.4934C138.799 25.7132 138.6 25.9578 138.49 26.2275L137.087 25.9079C137.253 25.4418 137.497 25.0657 137.816 24.7793C138.139 24.4897 138.51 24.2799 138.929 24.1501C139.35 24.0169 139.791 23.9503 140.253 23.9503C140.56 23.9503 140.884 23.9869 141.227 24.0602C141.573 24.1301 141.896 24.2599 142.196 24.4497C142.499 24.6395 142.747 24.9108 142.94 25.2638C143.133 25.6133 143.229 26.0677 143.229 26.6271V31.7208H141.771V30.6721H141.711C141.615 30.8652 141.47 31.055 141.277 31.2414C141.084 31.4278 140.836 31.5826 140.533 31.7058C140.23 31.829 139.867 31.8906 139.445 31.8906ZM139.769 30.6921C140.182 30.6921 140.534 30.6105 140.827 30.4474C141.124 30.2843 141.348 30.0711 141.501 29.8081C141.659 29.5418 141.737 29.2572 141.737 28.9542V27.9654C141.683 28.0187 141.579 28.0686 141.427 28.1153C141.277 28.1585 141.106 28.1968 140.912 28.2301C140.719 28.26 140.531 28.2883 140.348 28.3149C140.165 28.3383 140.011 28.3583 139.888 28.3749C139.599 28.4115 139.335 28.4732 139.095 28.5597C138.858 28.6462 138.668 28.7711 138.525 28.9342C138.385 29.094 138.315 29.3071 138.315 29.5735C138.315 29.943 138.452 30.2226 138.725 30.4124C138.998 30.5988 139.346 30.6921 139.769 30.6921ZM145.888 34.5973C145.665 34.5973 145.462 34.5789 145.278 34.5424C145.095 34.5091 144.959 34.4724 144.868 34.4325L145.229 33.209C145.501 33.2823 145.745 33.3138 145.957 33.3039C146.171 33.2939 146.359 33.214 146.522 33.0642C146.689 32.9144 146.835 32.6697 146.961 32.33L147.146 31.8207L144.339 24.0502H145.937L147.88 30.0029H147.96L149.903 24.0502H151.506L148.345 32.7445C148.198 33.1441 148.011 33.482 147.786 33.7583C147.559 34.038 147.289 34.2477 146.976 34.3875C146.663 34.5274 146.3 34.5973 145.888 34.5973Z" fill="white"/>
<path d="M188.969 0.738281H7.03138C3.51211 0.738281 0.65918 3.59121 0.65918 7.11048V35.236C0.65918 38.7553 3.51211 41.6082 7.03138 41.6082H188.969C192.488 41.6082 195.341 38.7553 195.341 35.236V7.11048C195.341 3.59121 192.488 0.738281 188.969 0.738281Z" stroke="white" stroke-width="1.31839"/>
</svg>
