<?xml version="1.0" encoding="utf-8"?>
<!-- Generator: Adobe Illustrator 26.0.2, SVG Export Plug-In . SVG Version: 6.00 Build 0)  -->
<svg version="1.1" id="Camada_1" xmlns="http://www.w3.org/2000/svg" xmlns:xlink="http://www.w3.org/1999/xlink" x="0px" y="0px"
	 viewBox="0 0 100 100" style="enable-background:new 0 0 100 100;" xml:space="preserve">
<style type="text/css">
	.st0{fill:#EF791A;}
	.st1{fill-rule:evenodd;clip-rule:evenodd;fill:#EF791A;}
	.st2{clip-path:url(#SVGID_00000072969372173330865200000003794746157380768908_);}
	.st3{fill:#E41513;}
	.st4{fill:#FFFFFF;}
	.st5{clip-path:url(#SVGID_00000171683012194726398590000018044802408735939239_);}
	.st6{fill-rule:evenodd;clip-rule:evenodd;fill:#FAEA26;}
	.st7{fill-rule:evenodd;clip-rule:evenodd;fill:#1E5DA9;}
	.st8{fill:#623E91;}
	.st9{fill:#01498F;}
	.st10{fill:#FFE512;}
	.st11{fill:#CF1B30;}
	.st12{fill-rule:evenodd;clip-rule:evenodd;fill:#076DB6;}
	.st13{fill-rule:evenodd;clip-rule:evenodd;fill:#F6A13F;}
	.st14{fill:#384797;}
	.st15{fill-rule:evenodd;clip-rule:evenodd;fill:#2CA948;}
	.st16{fill:#273269;}
	.st17{fill:#51B3E6;}
	.st18{fill-rule:evenodd;clip-rule:evenodd;fill:#010202;}
	.st19{fill:#010202;}
	.st20{fill:#DCE063;}
	.st21{fill:#A8D8D8;}
	.st22{fill:#F5DF40;}
	.st23{fill-rule:evenodd;clip-rule:evenodd;fill:#222C56;}
</style>
<g id="banco_original">
	<g id="PORTUGUES" transform="translate(130 164)">
		<g id="ICONS">
			<path id="Combined-Shape" class="st15" d="M-102.38-117.35c0.46,0,0.83,0.37,0.83,0.82c0,0,0,0,0,0l0,0v8.87
				c0,0.29-0.16,0.57-0.41,0.71l0,0l-11.01,6.33c-0.26,0.15-0.57,0.15-0.83,0l0,0l-11.01-6.32c-0.26-0.15-0.41-0.42-0.41-0.71l0,0
				v-8.86c0.02-0.46,0.4-0.81,0.86-0.8c0.43,0.02,0.78,0.36,0.8,0.8l0,0v8.38l10.18,5.84l10.18-5.86v-8.39
				C-103.21-116.98-102.84-117.35-102.38-117.35C-102.38-117.35-102.38-117.35-102.38-117.35L-102.38-117.35z M-83.03-119.92
				c1.57,0,2.85,1.27,2.85,2.85l0,0v1.8c0.01,1.39-0.86,2.63-2.17,3.1l0,0l2.05,3.92c0.26,0.47,0.08,1.06-0.39,1.32
				s-1.06,0.08-1.32-0.39l0,0l0,0l-2.52-4.76h-1.99v4.25c0,0.54-0.44,0.98-0.98,0.98s-0.98-0.44-0.98-0.98l0,0v-9.24
				c0-1.57,1.28-2.84,2.85-2.84L-83.03-119.92L-83.03-119.92z M-64.06-119.91c0.54,0,0.97,0.43,0.98,0.97l0,0v11.11
				c0,0.54-0.44,0.98-0.98,0.98s-0.98-0.44-0.98-0.98l0,0l0,0v-11.11C-65.04-119.47-64.6-119.91-64.06-119.91z M-60.48-119.91
				c0.35,0,0.67,0.19,0.85,0.49l0,0l4.51,8.52v-8.03c0-0.54,0.44-0.98,0.98-0.98s0.98,0.44,0.98,0.98l0,0l0,0v11.11
				c0,0.54-0.44,0.97-0.98,0.97c-0.35,0-0.66-0.19-0.84-0.49l0,0l-4.51-8.13v7.64c0,0.54-0.44,0.98-0.98,0.98s-0.98-0.44-0.98-0.98
				l0,0l0,0v-11.11c-0.03-0.51,0.36-0.94,0.86-0.97C-60.55-119.91-60.52-119.91-60.48-119.91L-60.48-119.91z M-40.7-119.91
				c0.54,0,0.97,0.43,0.98,0.97l0,0v10.14h3.98c0.54,0,0.97,0.43,0.97,0.97s-0.43,0.97-0.97,0.97h-4.95c-0.54,0-0.97-0.43-0.98-0.97
				l0,0v-11.11C-41.67-119.47-41.23-119.91-40.7-119.91L-40.7-119.91z M-92.95-119.92c1.57,0,2.85,1.27,2.85,2.85l0,0v7.37
				c0,1.57-1.28,2.84-2.85,2.84h-2.58c-1.57,0-2.85-1.27-2.85-2.84l0,0v-7.37c0-1.57,1.28-2.84,2.85-2.84L-92.95-119.92
				L-92.95-119.92z M-77.57-119.92c0.54,0,0.97,0.43,0.98,0.97l0,0v11.11c0,0.54-0.44,0.98-0.98,0.98s-0.98-0.44-0.98-0.98l0,0l0,0
				v-11.11C-78.54-119.48-78.11-119.92-77.57-119.92C-77.57-119.92-77.57-119.92-77.57-119.92L-77.57-119.92z M-69.53-119.92
				c1.57,0,2.85,1.27,2.85,2.85c0,0.54-0.44,0.98-0.98,0.98s-0.98-0.44-0.98-0.98c0-0.5-0.4-0.9-0.9-0.9h-2.58
				c-0.5,0-0.9,0.4-0.9,0.9l0,0v7.37c0,0.5,0.4,0.9,0.9,0.9h2.58c0.5,0,0.9-0.4,0.9-0.9l0,0v-2.39h-2.19
				c-0.54,0-0.97-0.43-0.97-0.97s0.43-0.97,0.97-0.97h3.17c0.54,0,0.97,0.43,0.98,0.97l0,0l0,0v3.36c0,1.57-1.28,2.84-2.85,2.84
				h-2.58c-1.57,0-2.85-1.27-2.85-2.84l0,0v-7.37c0-1.57,1.28-2.84,2.85-2.84L-69.53-119.92L-69.53-119.92z M-46.13-119.91
				c1.59,0.01,2.86,1.31,2.85,2.9c0,0.06,0,0.12-0.01,0.17l0,0v8.97c0.01,0.54-0.43,0.98-0.96,0.99c-0.54,0.01-0.98-0.43-0.99-0.96
				l0,0l0,0v-4.24h-4.35v4.24c0,0.54-0.44,0.98-0.98,0.98s-0.98-0.44-0.98-0.98l0,0v-9.23c0-1.57,1.28-2.83,2.84-2.83L-46.13-119.91
				L-46.13-119.91z M-92.95-117.97h-2.58c-0.5,0-0.9,0.4-0.9,0.9l0,0v7.37c0,0.5,0.4,0.9,0.9,0.9h2.58c0.5,0,0.9-0.4,0.9-0.9l0,0
				v-7.37C-92.05-117.57-92.45-117.97-92.95-117.97z M-113.8-127.39c0.26-0.15,0.57-0.15,0.83,0l0,0l11.01,6.33
				c0.39,0.23,0.53,0.73,0.3,1.12c-0.07,0.13-0.18,0.23-0.3,0.3l0,0l-11.01,6.33c-0.26,0.15-0.57,0.15-0.83,0l0,0l-11.01-6.32
				c-0.39-0.23-0.53-0.73-0.3-1.12c0.07-0.13,0.18-0.23,0.3-0.3l0,0L-113.8-127.39z M-83.03-117.97h-2.58c-0.5,0-0.9,0.4-0.9,0.9
				l0,0v3.04h3.48c0.5,0,0.9-0.75,0.9-1.25l0,0v-1.8C-82.13-117.57-82.53-117.97-83.03-117.97L-83.03-117.97z M-46.13-117.96h-2.57
				c-0.49,0-0.89,0.4-0.89,0.89l0,0v3.04h4.35v-3.04C-45.24-117.56-45.64-117.96-46.13-117.96
				C-46.13-117.96-46.13-117.96-46.13-117.96L-46.13-117.96z M-113.38-125.72l-9.35,5.39l9.35,5.37l9.35-5.38L-113.38-125.72z
				 M-86.93-125.53c0.75,0.01,1.36,0.62,1.35,1.38c0,0.03,0,0.05,0,0.08l0,0v1.97c0.01,0.26-0.18,0.47-0.44,0.49
				s-0.47-0.18-0.49-0.44c0-0.01,0-0.03,0-0.04l0,0v-2.1c0-0.23-0.19-0.42-0.42-0.42h-1.22c-0.23,0-0.42,0.19-0.42,0.42l0,0v2.1
				c-0.01,0.26-0.23,0.45-0.48,0.44c-0.24-0.01-0.43-0.2-0.44-0.44l0,0v-2.1c0-0.74,0.61-1.34,1.35-1.34L-86.93-125.53
				L-86.93-125.53z M-91.39-125.53c0.74,0,1.35,0.6,1.35,1.34l0,0v1.21c-0.01,0.75-0.63,1.36-1.38,1.35c-0.03,0-0.05,0-0.08,0h-1.15
				c-0.05,0-0.1-0.01-0.15-0.02c-0.62-0.12-1.08-0.65-1.1-1.29c0.03-0.75,0.66-1.34,1.42-1.31c0.02,0,0.03,0,0.05,0h1.46
				c-0.03-0.21-0.21-0.36-0.42-0.36h-1.9c-0.25,0-0.46-0.21-0.46-0.46c0-0.25,0.21-0.46,0.46-0.46c0,0,0,0,0,0L-91.39-125.53
				L-91.39-125.53z M-81.78-125.53c0.25,0,0.46,0.2,0.47,0.46s-0.2,0.46-0.46,0.47h-1.91c-0.23,0-0.42,0.19-0.42,0.42l0,0v1.21
				c0,0.23,0.19,0.42,0.42,0.42h1.91c0.25,0,0.46,0.21,0.46,0.46c0,0.25-0.21,0.46-0.46,0.46c0,0,0,0,0,0h-1.91
				c-0.74,0-1.35-0.6-1.35-1.34l0,0v-1.21c0.01-0.75,0.63-1.36,1.38-1.35c0.03,0,0.05,0,0.08,0L-81.78-125.53L-81.78-125.53z
				 M-78.17-125.53c0.74,0,1.35,0.6,1.35,1.34l0,0v1.21c-0.01,0.75-0.63,1.36-1.38,1.35c-0.03,0-0.05,0-0.08,0h-1.11
				c-0.74,0-1.35-0.6-1.35-1.34l0,0v-1.21c0.01-0.75,0.63-1.36,1.38-1.35c0.03,0,0.05,0,0.08,0L-78.17-125.53L-78.17-125.53z
				 M-96.24-127.47c0.7,0,1.27,0.57,1.27,1.27l0,0v0.52c0,0.77-0.47,0.82-0.47,0.82c0.61,0.05,1.08,0.55,1.11,1.16l0,0v0.8
				c0,0.7-0.57,1.27-1.27,1.27h-1.51c-1.04,0-1.27-0.29-1.27-1.27l0,0v-3.41c0.01-0.9,0.13-1.16,1.08-1.16L-96.24-127.47
				L-96.24-127.47z M-95.6-124.28h-0.58l-0.12,0.01h-1.21v1.38c0,0.32,0.07,0.4,0.4,0.4h1.51c0.22,0,0.4-0.18,0.4-0.4l0,0v-0.82
				C-95.2-123.94-95.38-124.28-95.6-124.28L-95.6-124.28z M-78.17-124.6h-1.22c-0.23,0-0.42,0.19-0.42,0.42l0,0v1.21
				c0,0.23,0.19,0.42,0.42,0.42h1.22c0.23,0,0.42-0.19,0.42-0.42l0,0v-1.21C-77.75-124.42-77.94-124.61-78.17-124.6L-78.17-124.6z
				 M-90.97-123.33h-1.58c-0.21-0.02-0.4,0.15-0.42,0.36c-0.02,0.21,0.15,0.4,0.36,0.42c0.02,0,0.04,0,0.06,0h1.16
				c0.23,0,0.42-0.19,0.42-0.42l0,0V-123.33z M-96.24-126.6h-1.06c-0.32,0-0.21,0.08-0.21,0.4l0,0v1.07h0.83l0.17,0.01h0.27
				c0.22,0,0.4-0.34,0.4-0.56l0,0v-0.52C-95.84-126.42-96.02-126.6-96.24-126.6L-96.24-126.6z"/>
		</g>
	</g>
</g>
</svg>
