<svg xmlns="http://www.w3.org/2000/svg" width="66.852" height="66.918" viewBox="0 0 66.852 66.918">
  <g id="Grupo_18" data-name="Grupo 18" transform="translate(177.915 178.305)">
    <g id="Grupo_17" data-name="Grupo 17">
      <path id="path210" d="M5908.909-1105.506l6.843,4.689,6.7-4.476.019-9.2-13.554,8.982Zm-39.575,48.733-6.819-4.65-6.9,4.659.068,9.012Zm25.9-39.776,6.684,4.5-31.758,21.489,19.624,13.245,9.215-6.246-7.159-4.742,16.524-11.074,13.824,9.172-33.4,22.265-32.955-22.11Zm-12.512,30.483-6.682-4.5,31.757-21.488-19.624-13.245-9.216,6.247,7.159,4.742-16.523,11.074-13.824-9.172,33.282-22.265,33.042,22.207Z" transform="translate(-6033.533 936.365)" fill="#1a5dad" fill-rule="evenodd"/>
    </g>
  </g>
</svg>
