<?xml version="1.0" encoding="utf-8"?>
<!-- Generator: Adobe Illustrator 26.0.2, SVG Export Plug-In . SVG Version: 6.00 Build 0)  -->
<svg version="1.1" id="Camada_1" xmlns="http://www.w3.org/2000/svg" xmlns:xlink="http://www.w3.org/1999/xlink" x="0px" y="0px"
	 viewBox="0 0 100 100" style="enable-background:new 0 0 100 100;" xml:space="preserve">
<style type="text/css">
	.st0{fill:#EF791A;}
	.st1{fill-rule:evenodd;clip-rule:evenodd;fill:#EF791A;}
	.st2{clip-path:url(#SVGID_00000180356312300052290960000012662562975046886834_);}
	.st3{fill:#E41513;}
	.st4{fill:#FFFFFF;}
	.st5{clip-path:url(#SVGID_00000065782314640040877570000007074364306462019206_);}
	.st6{fill-rule:evenodd;clip-rule:evenodd;fill:#FAEA26;}
	.st7{fill-rule:evenodd;clip-rule:evenodd;fill:#1E5DA9;}
	.st8{fill:#623E91;}
	.st9{fill:#01498F;}
	.st10{fill:#FFE512;}
	.st11{fill:#CF1B30;}
	.st12{fill-rule:evenodd;clip-rule:evenodd;fill:#076DB6;}
	.st13{fill-rule:evenodd;clip-rule:evenodd;fill:#F6A13F;}
	.st14{fill:#384797;}
	.st15{fill-rule:evenodd;clip-rule:evenodd;fill:#2CA948;}
	.st16{fill:#273269;}
	.st17{fill:#51B3E6;}
	.st18{fill-rule:evenodd;clip-rule:evenodd;fill:#010202;}
	.st19{fill:#010202;}
	.st20{fill:#DCE063;}
	.st21{fill:#A8D8D8;}
	.st22{fill:#F5DF40;}
	.st23{fill-rule:evenodd;clip-rule:evenodd;fill:#222C56;}
</style>
<g id="bradesco">
	<g id="g10" transform="translate(307.219 466.18)">
		<g id="g12" transform="translate(80.781 -443.18)">
			<path id="path14" class="st11" d="M-350.27,51.89c-0.34,0.06-0.68,0.09-1.02,0.1c-1.09,0-1.69-0.33-1.69-1.09s0.6-1.07,1.69-1.07
				c0.36,0,0.79,0.04,1.02,0.06V51.89z M-351.71,44.75c-0.87-0.02-1.73,0.08-2.57,0.29c-0.14,0.62-0.14,1.26,0,1.88
				c0.72-0.18,1.45-0.26,2.19-0.25c1.23,0,1.82,0.5,1.82,1.52v0.1c-0.37-0.04-0.81-0.08-1.11-0.08c-2.03,0-3.78,0.73-3.78,2.69
				c0,2.21,1.57,2.96,3.86,2.96c1.13-0.01,2.24-0.19,3.32-0.52v-4.97C-347.99,45.98-349.27,44.81-351.71,44.75"/>
			<path id="path16" class="st11" d="M-356.11,44.87c-0.96-0.04-1.87,0.43-2.4,1.23c-0.05-0.39-0.14-0.76-0.27-1.13
				c-0.32-0.08-0.65-0.11-0.98-0.1c-0.32,0-0.64,0.03-0.96,0.1v8.69c0.39,0.08,0.79,0.11,1.19,0.1c0.4,0,0.8-0.03,1.19-0.1v-4.24
				c0-1.69,0.88-2.59,2.07-2.59c0.26-0.01,0.53,0.01,0.79,0.04c0.14-0.63,0.15-1.28,0.04-1.92
				C-355.66,44.89-355.88,44.87-356.11,44.87"/>
			<path id="path18" class="st11" d="M-366.93,51.91c-0.3,0.01-0.61-0.02-0.9-0.1v-4.78c0.43-0.2,0.91-0.29,1.38-0.27
				c1.19,0,1.82,0.82,1.82,2.38C-364.63,50.78-365.38,51.91-366.93,51.91z M-366.05,44.79c-0.61-0.01-1.22,0.12-1.79,0.37v-4.26
				c-0.71,0.25-1.38,0.61-1.98,1.07c-0.27,0.2-0.42,0.53-0.4,0.86v10.52c1.01,0.35,2.08,0.51,3.15,0.5c3.11,0,4.89-1.9,4.89-4.65
				C-362.17,46.48-363.44,44.79-366.05,44.79"/>
			<path id="path20" class="st11" d="M-341.06,51.77c-0.33,0.1-0.67,0.14-1.02,0.13c-1.57,0-2.19-1.04-2.19-2.53
				c0-1.67,0.61-2.69,2.17-2.69c0.35,0,0.7,0.04,1.04,0.13V51.77z M-341.06,42.83v2.09c-0.41-0.1-0.83-0.14-1.25-0.13
				c-2.33-0.11-4.31,1.69-4.42,4.02c-0.01,0.19-0.01,0.38,0.01,0.56c-0.21,2.26,1.45,4.26,3.71,4.47c0.25,0.02,0.51,0.02,0.77,0
				c1.21,0.01,2.42-0.17,3.57-0.54V40.89c-0.71,0.25-1.38,0.61-1.98,1.07C-340.93,42.17-341.08,42.49-341.06,42.83"/>
			<path id="path22" class="st11" d="M-324.04,48.49l-0.96-0.4c-0.56-0.23-0.88-0.42-0.88-0.79c0-0.56,0.5-0.67,1.15-0.67
				c0.76,0,1.52,0.12,2.25,0.37c0.12-0.59,0.12-1.2,0-1.79c-0.82-0.33-1.7-0.49-2.59-0.46c-1.84,0-3.24,1-3.24,2.49
				c0,1.34,0.58,2.01,2.19,2.67l0.75,0.31c0.71,0.29,0.92,0.46,0.92,0.92c0,0.69-0.69,0.81-1.27,0.81
				c-0.89-0.01-1.78-0.19-2.61-0.52c-0.15,0.61-0.15,1.25,0,1.86c0.94,0.42,1.97,0.61,2.99,0.56c1.82,0,3.28-0.96,3.28-2.69
				C-322.06,49.74-322.68,49.07-324.04,48.49"/>
			<path id="path24" class="st11" d="M-316.63,51.89c-1.19,0-1.98-0.94-1.98-2.59c0-1.57,0.63-2.59,2-2.59
				c0.52,0,1.04,0.1,1.52,0.31c0.18-0.6,0.46-1.17,0.85-1.67c-0.82-0.43-1.74-0.63-2.67-0.6c-2.63,0-4.15,1.86-4.15,4.55
				c0,2.78,1.55,4.55,4.24,4.55c0.9,0.03,1.8-0.17,2.61-0.58c-0.39-0.5-0.7-1.07-0.9-1.67C-315.58,51.82-316.1,51.92-316.63,51.89"
				/>
			<path id="path26" class="st11" d="M-309.97,51.93c-1.32,0-1.73-1.07-1.73-2.61c0-1.5,0.4-2.65,1.73-2.65
				c1.36,0,1.75,1.11,1.75,2.65C-308.22,50.93-308.66,51.93-309.97,51.93z M-309.97,44.75c-2.67,0-4.17,1.82-4.17,4.57
				c0,2.78,1.57,4.53,4.17,4.53c2.69,0,4.18-1.79,4.18-4.53C-305.79,46.55-307.29,44.75-309.97,44.75"/>
			<path id="path28" class="st11" d="M-335,48.26c0.04-0.95,0.82-1.69,1.77-1.69c1.08,0,1.5,0.73,1.54,1.69H-335z M-333.2,44.75
				c-2.57,0-4.14,1.73-4.14,4.61s1.67,4.49,4.53,4.49c0.93,0.02,1.85-0.15,2.71-0.5c0.13-0.61,0.13-1.24,0-1.84
				c-0.8,0.25-1.62,0.38-2.46,0.4c-1.32,0-2.25-0.5-2.44-1.9h5.41c0.07-0.4,0.11-0.8,0.1-1.21
				C-329.49,46.21-330.95,44.75-333.2,44.75"/>
			<path id="path30" class="st11" d="M-339.01,7.71c-2.3,0.01-4.6,0.21-6.87,0.6c2.48-3.17,6.28-5.01,10.3-5
				c3,0.01,5.91,1.03,8.25,2.9c0.38,0.31,0.66,0.34,0.95,0.06s0.26-0.57-0.06-0.94c-2.82-3.36-7.01-5.27-11.39-5.19
				c-5.96,0.09-11.26,3.82-13.36,9.39c-1.72,0.52-3.38,1.21-4.96,2.07c-0.4,0.23-0.55,0.51-0.4,0.85c0.15,0.32,0.52,0.46,0.84,0.31
				c1.27-0.37,2.57-0.68,3.92-0.96c-0.15,0.73-0.23,1.47-0.23,2.21c-0.07,4.96,2.45,9.6,6.63,12.26c0.4,0.26,0.75,0.26,0.98-0.06
				c0.23-0.31,0.2-0.6-0.14-0.91c-2.58-2.37-4.04-5.72-4.04-9.22c-0.01-1.69,0.34-3.36,1.01-4.91c1.36-0.11,2.83-0.2,4.44-0.2
				c10.5,0,19.36,3.46,19.36,8c0,2.3-2.91,4.6-6.38,6.13c-0.84,0.37-0.92,0.62-0.81,0.99c0.12,0.34,0.49,0.45,0.92,0.31
				c6.06-1.99,10.64-5.25,10.64-9.2C-319.39,11.85-328.04,7.71-339.01,7.71"/>
			<path id="path32" class="st11" d="M-334,35V23.51c0.01-0.27-0.2-0.49-0.47-0.5c-0.11,0-0.22,0.03-0.3,0.1l-2.92,1.68v10.77h3.14
				C-334.25,35.55-334,35.3-334,35C-334,34.99-334,34.99-334,35"/>
			<path id="path34" class="st11" d="M-341.25,27.25v7.95c0,0.2,0.16,0.36,0.36,0.36h2.21v-10.2l-2.21,1.27
				C-341.12,26.75-341.26,26.99-341.25,27.25"/>
		</g>
	</g>
</g>
</svg>
