<?xml version="1.0" encoding="utf-8"?>
<!-- Generator: Adobe Illustrator 26.0.2, SVG Export Plug-In . SVG Version: 6.00 Build 0)  -->
<svg version="1.1" id="Camada_1" xmlns="http://www.w3.org/2000/svg" xmlns:xlink="http://www.w3.org/1999/xlink" x="0px" y="0px"
	 viewBox="0 0 100 100" style="enable-background:new 0 0 100 100;" xml:space="preserve">
<style type="text/css">
	.st0{fill:#EF791A;}
	.st1{fill-rule:evenodd;clip-rule:evenodd;fill:#EF791A;}
	.st2{clip-path:url(#SVGID_00000091714362871816967530000006114335271694412683_);}
	.st3{fill:#E41513;}
	.st4{fill:#FFFFFF;}
	.st5{clip-path:url(#SVGID_00000100353849581983800780000007820811057690864290_);}
	.st6{fill-rule:evenodd;clip-rule:evenodd;fill:#FAEA26;}
	.st7{fill-rule:evenodd;clip-rule:evenodd;fill:#1E5DA9;}
	.st8{fill:#623E91;}
	.st9{fill:#01498F;}
	.st10{fill:#FFE512;}
	.st11{fill:#CF1B30;}
	.st12{fill-rule:evenodd;clip-rule:evenodd;fill:#076DB6;}
	.st13{fill-rule:evenodd;clip-rule:evenodd;fill:#F6A13F;}
	.st14{fill:#384797;}
	.st15{fill-rule:evenodd;clip-rule:evenodd;fill:#2CA948;}
	.st16{fill:#273269;}
	.st17{fill:#51B3E6;}
	.st18{fill-rule:evenodd;clip-rule:evenodd;fill:#010202;}
	.st19{fill:#010202;}
	.st20{fill:#DCE063;}
	.st21{fill:#A8D8D8;}
	.st22{fill:#F5DF40;}
	.st23{fill-rule:evenodd;clip-rule:evenodd;fill:#222C56;}
</style>
<g id="bs2">
	<g id="bs2-2" transform="translate(-399.478 -1009.065)">
		<path id="path4-3" class="st14" d="M426.18,1049.95c-2.51-0.06-4.96,0.71-6.99,2.19l-1.22,0.89v-13.97l-6.5,1.95v37.94h6.58v-2.36
			l1.22,0.89c2.06,1.4,4.5,2.14,6.99,2.11c7.47,0,13.57-6.66,13.57-14.87S433.65,1049.95,426.18,1049.95z M425.69,1072.94
			c-4.39,0-7.72-3.49-7.72-8.12s3.33-8.2,7.72-8.2s7.72,3.49,7.72,8.12C433.33,1069.36,430.08,1072.94,425.69,1072.94z"/>
		<path id="path6-2" class="st14" d="M453.48,1061.73l-0.73-0.24c-3.09-1.14-4.39-1.87-4.39-3.49c0-1.71,1.71-2.36,3.33-2.36
			s3.57,0.57,3.57,3.01v1.38h6.5v-1.38c0-5.44-4.14-9.34-10.07-9.34c-6.42,0-9.75,4.31-9.75,8.61c0,6.09,5.04,7.88,9.1,9.34
			l0.41,0.16c3.09,1.14,4.63,1.95,4.63,3.33c0,1.87-2.03,2.52-3.82,2.52c-2.03,0-4.55-0.57-4.55-3.41v-1.46h-6.5v1.46
			c0,5.85,4.39,9.75,11.05,9.75c5.93,0,10.32-3.66,10.32-8.77C462.49,1065.06,457.46,1063.19,453.48,1061.73z"/>
		<path id="path8" class="st14" d="M477.03,1075.21h6.99v-2.52h-9.99l4.3-4.22c3.49-3.41,5.2-6.5,5.2-9.67
			c0.11-5.14-3.97-9.4-9.11-9.51c-0.21,0-0.42,0-0.64,0.01c-4.79,0-9.91,3.01-9.91,9.5v1.14h6.42v-1.06c0-2.19,1.22-3.33,3.57-3.33
			c1.68-0.11,3.14,1.16,3.25,2.85c0.01,0.13,0.01,0.27,0,0.4c0,1.95-1.95,4.06-3.33,5.44l-6.34,6.34c-2.21,2.19-3.47,5.17-3.49,8.29
			h20.15v-2.52h-7.07c-0.31,0.04-0.6-0.18-0.65-0.49c-0.04-0.31,0.18-0.6,0.49-0.65C476.93,1075.21,476.98,1075.21,477.03,1075.21
			L477.03,1075.21z M486.78,1075.86c0,0.49-0.4,0.89-0.89,0.89s-0.89-0.4-0.89-0.89c0-0.49,0.4-0.89,0.89-0.89
			C486.38,1074.97,486.78,1075.37,486.78,1075.86L486.78,1075.86z"/>
	</g>
</g>
</svg>
