<?xml version="1.0" encoding="utf-8"?>
<!-- Generator: Adobe Illustrator 27.7.0, SVG Export Plug-In . SVG Version: 6.00 Build 0)  -->
<svg version="1.1" id="Camada_1" xmlns="http://www.w3.org/2000/svg" xmlns:xlink="http://www.w3.org/1999/xlink" x="0px" y="0px"
	 viewBox="0 0 435.2 397.6" style="enable-background:new 0 0 435.2 397.6;" xml:space="preserve">
<style type="text/css">
	.st0{fill-rule:evenodd;clip-rule:evenodd;fill:#001E61;}
</style>
<path class="st0" d="M310.7,186.2l4.8-23.7h-40.9v-32.3l-28.7,4.4v96.6c0,33.4,12.8,43.3,47.8,43.3H309l4.8-23.5h-18
	c-15.9,0-21.1-4-21.1-21.8v-43.1C274.5,186.2,310.7,186.2,310.7,186.2z M113.2,119v103.8c0,38.5,17.4,54.5,55.2,54.5
	c39.3,0,56.7-15.6,56.7-54.3v-9.9c0-36.4-16.1-54.1-51.3-54.1c-11.2,0-23.4,2.3-31.6,8.9v-53.5L113.2,119L113.2,119z M169.5,182.2
	c19.9,0,26.9,8,26.9,31.9v8.9c0,23.3-7,31.3-27.3,31.3s-27.3-8-27.3-31.5v-12C141.8,189.4,148.8,182.2,169.5,182.2L169.5,182.2z
	 M380.2,159c-37.8,0-55.2,16.3-55.2,53.5v5.7c0,35.3,15.1,52.4,50.7,52.4c11.4,0,22.8-2.1,30.8-8.7v4.2c0,19.9-8.5,26.4-28.3,26.4
	h-11.9c-6.8,0.1-9.9,1.4-14,8.2l0,0c-34.1,55.2-93.3,88.9-157.8,88.9C91.5,389.6,7.8,304,7.8,198.8S91.5,8,194.5,8
	c72.3,0,138.1,42.8,168.9,109.4h8.6C340.5,46,271,0,194.5,0C87.2,0,0,89.2,0,198.8s87.2,198.8,194.5,198.8
	c63.1,0,121.2-30.9,157.5-82.2h27.8c36.6,0,55.4-14.2,55.4-50.3v-54.5C435.2,174.6,417.2,159,380.2,159L380.2,159z M406.7,221.7
	c0,19.9-6.8,26-26.5,26c-22.1,0-26.5-7.8-26.5-30.9v-3.6c0-22.8,3.9-31.1,26.5-31.1c22.1,0,26.5,8,26.5,31.3V221.7L406.7,221.7z"/>
</svg>
