<?xml version="1.0" encoding="utf-8"?>
<!-- Generator: Adobe Illustrator 26.0.2, SVG Export Plug-In . SVG Version: 6.00 Build 0)  -->
<svg version="1.1" id="Camada_1" xmlns="http://www.w3.org/2000/svg" xmlns:xlink="http://www.w3.org/1999/xlink" x="0px" y="0px"
	 viewBox="0 0 100 100" style="enable-background:new 0 0 100 100;" xml:space="preserve">
<style type="text/css">
	.st0{fill:#EF791A;}
	.st1{fill-rule:evenodd;clip-rule:evenodd;fill:#EF791A;}
	.st2{clip-path:url(#SVGID_00000065761202998032972010000017559513616685902267_);}
	.st3{fill:#E41513;}
	.st4{fill:#FFFFFF;}
	.st5{clip-path:url(#SVGID_00000106132264815025228050000005846207626372851381_);}
	.st6{fill-rule:evenodd;clip-rule:evenodd;fill:#FAEA26;}
	.st7{fill-rule:evenodd;clip-rule:evenodd;fill:#1E5DA9;}
	.st8{fill:#623E91;}
	.st9{fill:#01498F;}
	.st10{fill:#FFE512;}
	.st11{fill:#CF1B30;}
	.st12{fill-rule:evenodd;clip-rule:evenodd;fill:#076DB6;}
	.st13{fill-rule:evenodd;clip-rule:evenodd;fill:#F6A13F;}
	.st14{fill:#384797;}
	.st15{fill-rule:evenodd;clip-rule:evenodd;fill:#2CA948;}
	.st16{fill:#273269;}
	.st17{fill:#51B3E6;}
	.st18{fill-rule:evenodd;clip-rule:evenodd;fill:#010202;}
	.st19{fill:#010202;}
	.st20{fill:#DCE063;}
	.st21{fill:#A8D8D8;}
	.st22{fill:#F5DF40;}
	.st23{fill-rule:evenodd;clip-rule:evenodd;fill:#222C56;}
</style>
<g id="btg_pactual">
	<path id="btg-pactual-logo-2020" class="st23" d="M59.9,36.01l0.52-2.6h-4.5v-3.55l-3.15,0.49v10.61c0,3.67,1.41,4.76,5.25,4.76
		h1.68l0.52-2.58h-1.98c-1.75,0-2.32-0.44-2.32-2.39v-4.74H59.9z M38.21,28.63v11.4c0,4.23,1.91,5.99,6.06,5.99
		c4.32,0,6.22-1.72,6.22-5.97v-1.09c0-3.99-1.77-5.94-5.63-5.94c-1.23-0.06-2.45,0.28-3.48,0.97v-5.87
		C41.38,28.12,38.21,28.63,38.21,28.63z M44.38,35.57c2.18,0,2.95,0.88,2.95,3.51v0.98c0,2.55-0.77,3.44-3,3.44s-3-0.88-3-3.46V38.7
		C41.34,36.36,42.11,35.57,44.38,35.57L44.38,35.57z M67.53,33.02c-4.16,0-6.07,1.79-6.07,5.88v0.63c0,3.88,1.66,5.76,5.56,5.76
		c1.2,0.07,2.4-0.26,3.38-0.95v0.47c0,2.18-0.93,2.9-3.11,2.9h-1.3c-0.65-0.07-1.28,0.29-1.53,0.9l0,0
		c-3.69,6.05-10.25,9.75-17.33,9.77c-11.45-0.14-20.62-9.52-20.5-20.97c-0.11-11.44,9.06-20.82,20.5-20.96
		c8,0.05,15.24,4.74,18.54,12.02h0.94c-3.36-7.78-11.01-12.84-19.49-12.89c-11.92,0.15-21.47,9.91-21.36,21.83
		c-0.12,11.92,9.44,21.69,21.36,21.83c6.89-0.01,13.35-3.38,17.3-9.03h3.06c4.02,0,6.09-1.56,6.09-5.53v-5.99
		C73.57,34.73,71.59,33.02,67.53,33.02L67.53,33.02z M70.43,39.92c0,2.18-0.75,2.86-2.91,2.86c-2.43,0-2.91-0.86-2.91-3.39v-0.4
		c0-2.51,0.43-3.41,2.91-3.41c2.43,0,2.91,0.88,2.91,3.44L70.43,39.92L70.43,39.92z"/>
	<path id="btg-pactual-logo-2020-2" class="st23" d="M75.35,67.95H72.2l-0.26,1.15h3.4c3.12,0,4.17,0.85,4.17,3.36v1.22
		c-0.77-0.79-2.14-1.19-4.07-1.19c-3.08,0-4.58,1.33-4.58,4.08v0.2c0,2.57,1.47,3.88,4.38,3.88h0.78c3.08,0,4.64-1.31,4.64-3.88
		v-4.3C80.67,69.25,79.13,67.95,75.35,67.95z M79.51,76.93c0,1.84-0.99,2.56-3.51,2.56h-0.49c-2.44,0-3.48-0.82-3.48-2.72v-0.2
		c0-2.07,0.99-2.96,3.32-2.96h0.2c2.78,0,3.97,0.85,3.97,2.86L79.51,76.93z M83.07,80.64h1.16V63.18h-1.16L83.07,80.64L83.07,80.64z
		 M56.93,69.1l0.26-1.15H52v-3.3l-1.19,0.22v11.3c0,3.22,1.18,4.41,4.35,4.41h1.71l0.22-1.15h-1.93c-2.39,0-3.16-0.78-3.16-3.19
		V69.1H56.93L56.93,69.1z M67.67,75.62c0,2.97-0.91,3.93-3.74,3.93c-2.75,0-3.68-0.99-3.68-3.93v-7.68h-1.19v7.68
		c0,3.65,1.37,5.08,4.87,5.08c3.48,0,4.9-1.47,4.9-5.08v-7.68h-1.16L67.67,75.62z M41.43,74.8v-1.07c0-3.42,1.14-4.63,4.36-4.63
		h2.72l0.26-1.15h-2.98c-3.84,0-5.56,1.78-5.56,5.78v1.07c0,4,1.71,5.78,5.56,5.78h2.75l0.26-1.15h-3.01
		C42.65,79.42,41.43,78.12,41.43,74.8L41.43,74.8z M32.84,67.95h-3.15l-0.26,1.15h3.4c3.09,0,4.13,0.85,4.13,3.36v1.22
		c-0.77-0.79-2.14-1.19-4.07-1.19c-3.08,0-4.58,1.33-4.58,4.08v0.2c0,2.57,1.49,3.88,4.41,3.88h0.78c3.06,0,4.61-1.31,4.61-3.88
		v-4.3C38.13,69.26,36.6,67.95,32.84,67.95L32.84,67.95z M36.97,76.93c0,1.87-0.94,2.56-3.48,2.56H33c-2.46,0-3.51-0.82-3.51-2.72
		v-0.2c0-2.08,0.99-2.96,3.32-2.96h0.2c2.78,0,3.97,0.86,3.97,2.86L36.97,76.93z M21.16,67.75c-3.68,0-5.39,1.86-5.39,5.85v10.85
		h1.16v-5.57c1.08,1.23,2.67,1.88,4.3,1.77c3.66,0,5.29-1.8,5.29-5.85v-1.24C26.52,69.54,24.87,67.75,21.16,67.75L21.16,67.75z
		 M25.33,74.79c0,3.42-1.11,4.69-4.1,4.69c-2.83,0-4.26-1.41-4.26-4.19v-1.7c0-3.33,1.22-4.69,4.2-4.69c3,0,4.17,1.31,4.17,4.66
		L25.33,74.79L25.33,74.79z"/>
</g>
</svg>
