<?xml version="1.0" encoding="utf-8"?>
<!-- Generator: Adobe Illustrator 26.0.2, SVG Export Plug-In . SVG Version: 6.00 Build 0)  -->
<svg version="1.1" id="Camada_1" xmlns="http://www.w3.org/2000/svg" xmlns:xlink="http://www.w3.org/1999/xlink" x="0px" y="0px"
	 viewBox="0 0 100 100" style="enable-background:new 0 0 100 100;" xml:space="preserve">
<style type="text/css">
	.st0{fill:#EF791A;}
	.st1{fill-rule:evenodd;clip-rule:evenodd;fill:#EF791A;}
	.st2{clip-path:url(#SVGID_00000178901730382001175390000009483866166234132903_);}
	.st3{fill:#E41513;}
	.st4{fill:#FFFFFF;}
	.st5{clip-path:url(#SVGID_00000172422711865126523010000001723855286043642780_);}
	.st6{fill-rule:evenodd;clip-rule:evenodd;fill:#FAEA26;}
	.st7{fill-rule:evenodd;clip-rule:evenodd;fill:#1E5DA9;}
	.st8{fill:#623E91;}
	.st9{fill:#01498F;}
	.st10{fill:#FFE512;}
	.st11{fill:#CF1B30;}
	.st12{fill-rule:evenodd;clip-rule:evenodd;fill:#076DB6;}
	.st13{fill-rule:evenodd;clip-rule:evenodd;fill:#F6A13F;}
	.st14{fill:#384797;}
	.st15{fill-rule:evenodd;clip-rule:evenodd;fill:#2CA948;}
	.st16{fill:#273269;}
	.st17{fill:#51B3E6;}
	.st18{fill-rule:evenodd;clip-rule:evenodd;fill:#010202;}
	.st19{fill:#010202;}
	.st20{fill:#DCE063;}
	.st21{fill:#A8D8D8;}
	.st22{fill:#F5DF40;}
	.st23{fill-rule:evenodd;clip-rule:evenodd;fill:#222C56;}
</style>
<g id="c6_bank">
	<g id="Grupo_6" transform="translate(-588.609 -2385.281)">
		<g id="Grupo_14" transform="translate(5.292)">
			<path id="path96" class="st19" d="M624.37,2429.36c-0.92,0.81-2.12,1.25-3.35,1.24c-1.51,0.05-2.96-0.57-3.96-1.7
				c-1.05-1.24-1.59-2.83-1.52-4.45c-0.08-1.63,0.46-3.22,1.51-4.47c1-1.13,2.46-1.76,3.97-1.7c1.17-0.01,2.31,0.39,3.23,1.13
				c0.97,0.76,1.68,1.8,2.04,2.97h9.36c-0.37-3.51-2.08-6.75-4.77-9.05c-2.76-2.33-6.29-3.56-9.9-3.45
				c-2.73-0.04-5.42,0.6-7.83,1.88c-2.26,1.19-4.14,3-5.43,5.21c-1.31,2.28-1.99,4.86-1.95,7.49c-0.04,2.63,0.64,5.22,1.95,7.49
				c1.29,2.21,3.17,4.02,5.43,5.21c2.41,1.27,5.1,1.92,7.83,1.88c3.68,0.11,7.26-1.17,10.04-3.58c2.72-2.39,4.42-5.74,4.73-9.35
				h-9.5C626.01,2427.37,625.34,2428.52,624.37,2429.36"/>
			<path id="path98" class="st19" d="M658.08,2421.78c-1.95-1.77-4.51-2.71-7.15-2.6c-0.3,0-0.71,0.01-1.22,0.04l5.17-8.41h-9.23
				l-4.37,7.13c-1.11,1.76-2.03,3.63-2.74,5.59c-0.58,1.63-0.88,3.35-0.89,5.08c-0.09,2.86,1.09,5.62,3.23,7.52
				c2.32,2,5.32,3.03,8.38,2.9c3.07,0.14,6.07-0.89,8.4-2.89c2.13-1.94,3.3-4.73,3.19-7.61
				C660.94,2425.99,659.93,2423.53,658.08,2421.78 M651.85,2431.11c-0.69,0.68-1.62,1.04-2.59,1c-0.96,0.04-1.9-0.32-2.58-1
				c-0.68-0.69-1.04-1.62-1-2.58c-0.03-0.97,0.33-1.91,1-2.61c0.68-0.69,1.62-1.05,2.58-1.02c0.97-0.04,1.9,0.33,2.59,1.02
				c0.67,0.7,1.03,1.64,1,2.61C652.89,2429.49,652.53,2430.42,651.85,2431.11"/>
		</g>
		<g id="Grupo_13" transform="translate(-3.024)">
			<path id="path94" class="st19" d="M625.53,2453.3c1.09-0.53,1.77-1.66,1.73-2.87c0.03-0.87-0.3-1.72-0.92-2.34
				c-0.61-0.62-1.45-0.96-2.32-0.93h-3.9c-0.03,0-0.06,0.03-0.06,0.06v13.4c0,0.03,0.03,0.06,0.06,0.06c0,0,0,0,0,0h4.43
				c0.98,0.02,1.91-0.37,2.59-1.07c0.69-0.69,1.07-1.63,1.05-2.6C628.26,2455.31,627.17,2453.77,625.53,2453.3 M620.55,2447.66h3.46
				c1.46-0.06,2.69,1.07,2.75,2.52c0,0.08,0,0.16,0,0.24c0.02,0.73-0.26,1.44-0.77,1.95c-0.53,0.51-1.24,0.78-1.97,0.75h-3.46
				L620.55,2447.66z M626.76,2459.27c-0.58,0.61-1.38,0.94-2.22,0.92h-3.99v-6.55h3.82c0.89-0.03,1.76,0.31,2.39,0.94
				c0.63,0.65,0.96,1.53,0.92,2.43C627.7,2457.86,627.36,2458.68,626.76,2459.27"/>
			<path id="path100" class="st19" d="M663.2,2460.59L663.2,2460.59l-5.2-7.29l5.18-6.04c0.01-0.01,0.01-0.03,0.01-0.04
				c0-0.03-0.03-0.06-0.06-0.06h-0.49c-0.02,0-0.03,0.01-0.05,0.02l-7.12,8.3v-8.26c0-0.03-0.03-0.06-0.06-0.06h-0.37
				c-0.03,0-0.06,0.03-0.06,0.06v13.4c0,0.03,0.03,0.06,0.06,0.06c0,0,0,0,0,0h0.37c0.03,0,0.06-0.03,0.06-0.06c0,0,0,0,0,0v-4.4
				l2.19-2.53l4.97,6.96c0.01,0.02,0.03,0.03,0.05,0.03h0.46c0.03,0,0.06-0.03,0.06-0.06
				C663.22,2460.62,663.21,2460.6,663.2,2460.59"/>
			<path id="path102" class="st19" d="M651.87,2447.16h-0.38c-0.03,0-0.06,0.03-0.06,0.06v12.27l-8.87-12.3
				c-0.01-0.02-0.03-0.02-0.05-0.03h-0.24c-0.03,0-0.06,0.03-0.06,0.06v13.4c0,0.03,0.03,0.06,0.06,0.06c0,0,0,0,0,0h0.38
				c0.03,0,0.06-0.03,0.06-0.06v-12.36l8.94,12.4c0.01,0.02,0.03,0.03,0.05,0.03h0.17c0.03,0,0.06-0.03,0.06-0.06c0,0,0,0,0,0v-13.4
				C651.93,2447.19,651.91,2447.16,651.87,2447.16C651.87,2447.16,651.87,2447.16,651.87,2447.16"/>
			<path id="path104" class="st19" d="M639.99,2460.6l-5.08-13.4c-0.01-0.02-0.03-0.04-0.06-0.04h-0.24c-0.03,0-0.05,0.02-0.06,0.04
				l-5.08,13.4c0,0.01,0,0.01,0,0.02c0,0.03,0.03,0.06,0.06,0.06c0,0,0,0,0,0h0.39c0.03,0,0.05-0.02,0.06-0.04l1.56-4.15h6.37
				l1.56,4.14c0.01,0.02,0.03,0.04,0.06,0.04h0.39c0.03,0,0.06-0.03,0.06-0.06C640,2460.62,640,2460.61,639.99,2460.6 M631.73,2456
				l3.01-7.88l3.01,7.88H631.73z"/>
		</g>
	</g>
</g>
</svg>
