<?xml version="1.0" encoding="utf-8"?>
<!-- Generator: Adobe Illustrator 26.0.2, SVG Export Plug-In . SVG Version: 6.00 Build 0)  -->
<svg version="1.1" id="Camada_1" xmlns="http://www.w3.org/2000/svg" xmlns:xlink="http://www.w3.org/1999/xlink" x="0px" y="0px"
	 viewBox="0 0 100 100" style="enable-background:new 0 0 100 100;" xml:space="preserve">
<style type="text/css">
	.st0{fill:#EF791A;}
	.st1{fill-rule:evenodd;clip-rule:evenodd;fill:#EF791A;}
	.st2{clip-path:url(#SVGID_00000013178463657249697730000003111163001349335199_);}
	.st3{fill:#E41513;}
	.st4{fill:#FFFFFF;}
	.st5{clip-path:url(#SVGID_00000005956177335129039920000013777871823983054723_);}
	.st6{fill-rule:evenodd;clip-rule:evenodd;fill:#FAEA26;}
	.st7{fill-rule:evenodd;clip-rule:evenodd;fill:#1E5DA9;}
	.st8{fill:#623E91;}
	.st9{fill:#01498F;}
	.st10{fill:#FFE512;}
	.st11{fill:#CF1B30;}
	.st12{fill-rule:evenodd;clip-rule:evenodd;fill:#076DB6;}
	.st13{fill-rule:evenodd;clip-rule:evenodd;fill:#F6A13F;}
	.st14{fill:#384797;}
	.st15{fill-rule:evenodd;clip-rule:evenodd;fill:#2CA948;}
	.st16{fill:#273269;}
	.st17{fill:#51B3E6;}
	.st18{fill-rule:evenodd;clip-rule:evenodd;fill:#010202;}
	.st19{fill:#010202;}
	.st20{fill:#DCE063;}
	.st21{fill:#A8D8D8;}
	.st22{fill:#F5DF40;}
	.st23{fill-rule:evenodd;clip-rule:evenodd;fill:#222C56;}
</style>
<g id="caixa">
	<g id="caixa-2" transform="translate(630 41)">
		<g id="layer1" transform="translate(0 0)">
			<g id="g3014" transform="translate(0 0)">
				<g id="Camada_x0020_1">
					<path id="path2993" class="st12" d="M-606.51,10.74c-3.9,3.14-7.07,0.92-6.7-1.76c0.32-2.32,3.95-5.11,7.22-1.68l0.79-6.35
						c-5.66-1.83-10.11-0.04-13.35,5.38c-1.84,4.31-1.12,7.7,2.15,10.16c2.19,1.46,5.1,1.63,8.75,0.53L-606.51,10.74z"/>
					<path id="path2995" class="st12" d="M-588.23,17.66l-3.43-16.98h-6.77l-8.46,16.83h6.52l0.71-2.05h4.66l0.26,2.2H-588.23z
						 M-595.72,6.37l0.29,5.15h-2.44l1.89-5.15H-595.72z"/>
					<path id="polygon2997" class="st12" d="M-580.63,17.43l2.55-16.93h-6.2l-2.55,16.93H-580.63z"/>
					<path id="polygon2999" class="st12" d="M-571.41,8.58h7.46l-2.55-5.09l-1.47-2.94h-7.43L-571.41,8.58z"/>
					<path id="polygon3001" class="st12" d="M-567.79,17.51h7.41l-4.05-8.03l-4.89,5.12L-567.79,17.51z"/>
					<path id="path3003" class="st12" d="M-550.66,0.68l-8.49,16.89l6.51,0.04l0.75-2.15h4.66l0.26,2.2h6.51l-3.43-16.98
						L-550.66,0.68z M-550.15,11.51l1.89-5.15h0.26l0.29,5.15H-550.15z"/>
					<path id="polygon3005" class="st13" d="M-563.77,0.58l-2.73,2.92l2.55,5.09l7.61-8.01L-563.77,0.58z"/>
					<path id="polygon3007" class="st13" d="M-571.83,9.48l-7.57,7.94h7.37l2.7-2.82l4.89-5.12L-571.83,9.48z"/>
				</g>
			</g>
		</g>
	</g>
</g>
</svg>
