<?xml version="1.0" encoding="utf-8"?>
<!-- Generator: Adobe Illustrator 26.0.2, SVG Export Plug-In . SVG Version: 6.00 Build 0)  -->
<svg version="1.1" id="Camada_1" xmlns="http://www.w3.org/2000/svg" xmlns:xlink="http://www.w3.org/1999/xlink" x="0px" y="0px"
	 viewBox="0 0 100 100" style="enable-background:new 0 0 100 100;" xml:space="preserve">
<style type="text/css">
	.st0{fill:#EF791A;}
	.st1{fill-rule:evenodd;clip-rule:evenodd;fill:#EF791A;}
	.st2{clip-path:url(#SVGID_00000013180594087453958780000006616663121513283464_);}
	.st3{fill:#E41513;}
	.st4{fill:#FFFFFF;}
	.st5{clip-path:url(#SVGID_00000108301661810574001740000013441551373912269218_);}
	.st6{fill-rule:evenodd;clip-rule:evenodd;fill:#FAEA26;}
	.st7{fill-rule:evenodd;clip-rule:evenodd;fill:#1E5DA9;}
	.st8{fill:#623E91;}
	.st9{fill:#01498F;}
	.st10{fill:#FFE512;}
	.st11{fill:#CF1B30;}
	.st12{fill-rule:evenodd;clip-rule:evenodd;fill:#076DB6;}
	.st13{fill-rule:evenodd;clip-rule:evenodd;fill:#F6A13F;}
	.st14{fill:#384797;}
	.st15{fill-rule:evenodd;clip-rule:evenodd;fill:#2CA948;}
	.st16{fill:#273269;}
	.st17{fill:#51B3E6;}
	.st18{fill-rule:evenodd;clip-rule:evenodd;fill:#010202;}
	.st19{fill:#010202;}
	.st20{fill:#DCE063;}
	.st21{fill:#A8D8D8;}
	.st22{fill:#F5DF40;}
	.st23{fill-rule:evenodd;clip-rule:evenodd;fill:#222C56;}
	.st24{fill:#C3AF92;}
	.st25{fill:#B9A487;}
	.st26{fill:#F5F0DE;}
	.st27{fill:#3E2A1A;}
	.st28{fill:#28170E;}
	.st29{fill:#574333;}
	.st30{fill:url(#XMLID_00000008864306572729540630000010839896147938766503_);}
	.st31{fill:url(#XMLID_00000054261211339140290090000004939445212797678724_);}
	.st32{fill:url(#XMLID_00000010289283508580285420000016636479862696513456_);}
	.st33{fill:url(#XMLID_00000079470086541602686910000000573930017130921345_);}
	.st34{fill:#FFFBF1;}
	.st35{fill:url(#XMLID_00000090256490380142552560000002173251070537666224_);}
	.st36{fill:#034356;}
	.st37{fill:url(#XMLID_00000181072208421005588550000000087206982669242008_);}
	.st38{fill:url(#XMLID_00000150792520365163067250000006241762917603429778_);}
	.st39{fill:url(#XMLID_00000010312077104400305180000005878989593083503762_);}
	.st40{fill:url(#XMLID_00000067946128193127572900000000294684266414254725_);}
	.st41{fill:url(#XMLID_00000100368530263380128600000004714964724096040342_);}
	.st42{fill:url(#XMLID_00000122723013127323175690000006053640968992428470_);}
	.st43{fill:url(#XMLID_00000057843597721286725340000000723877018330079407_);}
	.st44{fill:url(#XMLID_00000054962373869949349440000004894312992686722223_);}
	.st45{fill:#DFD6B5;}
	.st46{fill:#747E77;}
	.st47{fill:#616A64;}
	.st48{fill:#E0D7B4;}
	.st49{fill:#B0A492;}
	.st50{fill:#E5E1CE;}
	.st51{opacity:0.3;fill:#1E1E1C;}
	.st52{fill:#F0EBD8;}
	.st53{fill:#D1C8B2;}
	.st54{fill:#F5EFDC;}
	.st55{fill:#C7BFA7;}
</style>
<g id="XMLID_22_">
	<g id="XMLID_109_">
		<rect id="XMLID_7_" x="16.45" y="46.96" class="st24" width="67.26" height="30.64"/>
		<g id="XMLID_65_">
			<rect id="XMLID_682_" x="22.23" y="61.74" class="st25" width="3.67" height="0.46"/>
			<rect id="XMLID_1425_" x="34.48" y="61.74" class="st25" width="3.67" height="0.46"/>
			<rect id="XMLID_1427_" x="61.84" y="61.74" class="st25" width="3.67" height="0.46"/>
			<rect id="XMLID_1428_" x="74.1" y="61.74" class="st25" width="3.67" height="0.46"/>
		</g>
		<g id="XMLID_46_">
			<path id="XMLID_208_" class="st26" d="M54.33,77.6v-10.1l0-0.94c0-2.53-1.95-4.59-4.36-4.59c-2.4,0-4.35,2.06-4.35,4.59V77.6
				H54.33z"/>
			<g id="XMLID_205_">
				<path id="XMLID_198_" class="st27" d="M53.6,67.49v-0.19v-0.75c0-2.1-1.63-3.83-3.63-3.83h-0.01c-1.99,0-3.63,1.72-3.63,3.83
					v0.75v0.19v4.69v3.83v1.58h7.26L53.6,67.49L53.6,67.49z"/>
				<g id="XMLID_256_">
					<g id="XMLID_204_">
						<g id="XMLID_220_">
							
								<rect id="XMLID_226_" x="49.87" y="73.87" transform="matrix(-1.836970e-16 1 -1 -1.836970e-16 126.8784 23.6914)" class="st27" width="3.45" height="2.84"/>
							<rect id="XMLID_225_" x="50.46" y="73.86" class="st27" width="2.26" height="2.84"/>
							<polygon id="XMLID_224_" class="st28" points="50.46,76.71 50.54,76.63 52.65,76.63 52.65,73.95 52.72,73.86 52.72,76.71 
															"/>
							<polygon id="XMLID_223_" class="st29" points="52.72,73.86 52.65,73.95 50.54,73.94 50.54,76.63 50.46,76.71 50.46,73.86 
															"/>
							<polygon id="XMLID_222_" class="st29" points="50.17,77.01 50.23,76.97 52.95,76.97 52.95,73.63 53.01,73.56 53.01,77.01 
															"/>
							<polygon id="XMLID_221_" class="st28" points="50.23,76.97 50.23,73.62 52.95,73.62 53.01,73.56 50.17,73.56 50.17,77.01 
															"/>
						</g>
						<g id="XMLID_230_">
							<polygon id="XMLID_235_" class="st29" points="50.17,73.05 50.27,72.96 52.91,72.96 52.91,67.11 53.01,67.01 53.01,73.05 
															"/>
							<polygon id="XMLID_234_" class="st28" points="50.27,72.96 50.27,67.11 52.91,67.11 53.01,67.01 50.17,67.01 50.17,73.05 
															"/>
							
								<linearGradient id="XMLID_00000127001603727448371420000003934298255737986696_" gradientUnits="userSpaceOnUse" x1="51.5904" y1="72.7766" x2="51.5904" y2="67.3001">
								<stop  offset="0" style="stop-color:#5791A5"/>
								<stop  offset="0.3213" style="stop-color:#518A9E"/>
								<stop  offset="0.7397" style="stop-color:#3F788C"/>
								<stop  offset="1" style="stop-color:#316A7E"/>
							</linearGradient>
							
								<rect id="XMLID_231_" x="50.42" y="67.3" style="fill:url(#XMLID_00000127001603727448371420000003934298255737986696_);" width="2.34" height="5.48"/>
						</g>
						<g id="XMLID_239_">
							<g id="XMLID_236_">
								
									<linearGradient id="XMLID_00000053505517349564466530000005684081765864853927_" gradientUnits="userSpaceOnUse" x1="51.5831" y1="66.4449" x2="51.5831" y2="63.6162">
									<stop  offset="0" style="stop-color:#326C80"/>
									<stop  offset="1" style="stop-color:#316A7E"/>
								</linearGradient>
								<path id="XMLID_241_" style="fill:url(#XMLID_00000053505517349564466530000005684081765864853927_);" d="M50.46,66.44
									l-0.01-2.83c1.23,0.12,2.2,1.33,2.28,2.83H50.46z"/>
								<path id="XMLID_246_" class="st28" d="M52.99,66.63c-0.02-0.93-0.35-1.76-0.87-2.36c-0.01-0.01-0.02-0.02-0.03-0.03
									c-0.06-0.07-0.12-0.13-0.18-0.19c-0.02-0.01-0.03-0.03-0.05-0.04c-0.06-0.05-0.12-0.1-0.18-0.15
									c-0.02-0.02-0.04-0.03-0.06-0.05c-0.06-0.04-0.12-0.08-0.18-0.12c-0.03-0.02-0.05-0.03-0.08-0.05
									c-0.06-0.03-0.12-0.06-0.18-0.09c-0.03-0.01-0.06-0.03-0.09-0.04c-0.06-0.03-0.12-0.05-0.18-0.07
									c-0.03-0.01-0.06-0.02-0.09-0.03c-0.06-0.02-0.13-0.03-0.2-0.05c-0.03-0.01-0.06-0.01-0.09-0.02
									c-0.1-0.02-0.19-0.03-0.29-0.03h-0.1l0.02,3.41H53C53,66.7,52.99,66.66,52.99,66.63z M50.27,66.63v-3.21
									c0.09,0,0.19,0.01,0.28,0.03c0.02,0,0.05,0.01,0.07,0.02c0.07,0.01,0.13,0.03,0.2,0.05c0.02,0.01,0.05,0.02,0.07,0.02
									c0.06,0.02,0.13,0.04,0.19,0.07c0.02,0.01,0.04,0.02,0.06,0.03c0.07,0.03,0.13,0.06,0.2,0.1c0.01,0.01,0.03,0.02,0.04,0.02
									c0.07,0.04,0.14,0.08,0.2,0.13c0.01,0.01,0.02,0.01,0.02,0.02c0.07,0.05,0.14,0.11,0.2,0.16c0,0,0.01,0.01,0.01,0.01
									c0.07,0.06,0.13,0.13,0.2,0.2c0,0,0,0,0,0c0.07,0.07,0.13,0.15,0.19,0.23l0,0c0.42,0.56,0.69,1.3,0.71,2.12c0,0,0,0,0,0
									L50.27,66.63z"/>
							</g>
							<polygon id="XMLID_229_" class="st29" points="50.19,66.73 50.27,66.63 52.9,66.63 53,66.73 							"/>
						</g>
					</g>
					<g id="XMLID_242_">
						<g id="XMLID_197_">
							
								<rect id="XMLID_202_" x="46.63" y="73.87" transform="matrix(-1.836970e-16 1 -1 -1.836970e-16 123.6445 26.9253)" class="st27" width="3.45" height="2.84"/>
							<rect id="XMLID_199_" x="47.23" y="73.86" class="st27" width="2.26" height="2.84"/>
							<polygon id="XMLID_14_" class="st28" points="47.23,76.71 47.3,76.63 49.42,76.63 49.42,73.95 49.49,73.86 49.49,76.71 
															"/>
							<polygon id="XMLID_201_" class="st29" points="49.49,73.86 49.42,73.95 47.31,73.94 47.3,76.63 47.23,76.71 47.23,73.86 
															"/>
							<polygon id="XMLID_200_" class="st29" points="46.94,77.01 46.99,76.97 49.72,76.97 49.72,73.63 49.78,73.56 49.78,77.01 
															"/>
							<polygon id="XMLID_203_" class="st28" points="46.99,76.97 46.99,73.62 49.72,73.62 49.78,73.56 46.94,73.56 46.94,77.01 
															"/>
						</g>
						<g id="XMLID_228_">
							<polygon id="XMLID_238_" class="st29" points="46.94,73.05 47.04,72.96 49.68,72.96 49.67,67.11 49.78,67.01 49.78,73.05 
															"/>
							<polygon id="XMLID_237_" class="st28" points="47.04,72.96 47.04,67.11 49.67,67.11 49.78,67.01 46.94,67.01 46.94,73.05 
															"/>
							
								<linearGradient id="XMLID_00000078021582414692539500000010365417516511627702_" gradientUnits="userSpaceOnUse" x1="48.3563" y1="72.7766" x2="48.3563" y2="67.3001">
								<stop  offset="0" style="stop-color:#5791A5"/>
								<stop  offset="0.3213" style="stop-color:#518A9E"/>
								<stop  offset="0.7397" style="stop-color:#3F788C"/>
								<stop  offset="1" style="stop-color:#316A7E"/>
							</linearGradient>
							
								<rect id="XMLID_227_" x="47.19" y="67.3" style="fill:url(#XMLID_00000078021582414692539500000010365417516511627702_);" width="2.34" height="5.48"/>
						</g>
						<g id="XMLID_247_">
							<g id="XMLID_249_">
								
									<linearGradient id="XMLID_00000070085880820364171940000010359650163504741555_" gradientUnits="userSpaceOnUse" x1="-4780.3843" y1="66.4449" x2="-4780.3843" y2="63.6162" gradientTransform="matrix(-1 0 0 1 -4732.0249 0)">
									<stop  offset="0" style="stop-color:#326C80"/>
									<stop  offset="1" style="stop-color:#316A7E"/>
								</linearGradient>
								<path id="XMLID_255_" style="fill:url(#XMLID_00000070085880820364171940000010359650163504741555_);" d="M49.49,66.44
									l0.01-2.83c-1.23,0.12-2.2,1.33-2.28,2.83H49.49z"/>
								<path id="XMLID_250_" class="st28" d="M46.94,66.73h2.81l0.02-3.41h-0.1c-0.1,0-0.19,0.01-0.29,0.03
									c-0.03,0-0.06,0.01-0.09,0.02c-0.07,0.01-0.13,0.03-0.2,0.05c-0.03,0.01-0.06,0.02-0.09,0.03
									c-0.06,0.02-0.12,0.04-0.18,0.07c-0.03,0.01-0.06,0.03-0.09,0.04c-0.06,0.03-0.12,0.06-0.18,0.09
									c-0.03,0.01-0.05,0.03-0.08,0.05c-0.06,0.04-0.12,0.08-0.18,0.12c-0.02,0.02-0.04,0.03-0.06,0.05
									c-0.06,0.05-0.12,0.1-0.18,0.15c-0.02,0.01-0.03,0.03-0.05,0.04c-0.06,0.06-0.12,0.12-0.18,0.19
									c-0.01,0.01-0.02,0.02-0.03,0.03c-0.51,0.6-0.84,1.43-0.87,2.36C46.95,66.66,46.94,66.7,46.94,66.73z M47.04,66.63
									C47.04,66.63,47.04,66.63,47.04,66.63c0.02-0.82,0.29-1.56,0.71-2.12l0,0c0.06-0.08,0.12-0.16,0.19-0.23c0,0,0,0,0,0
									c0.06-0.07,0.13-0.14,0.2-0.2c0,0,0.01-0.01,0.01-0.01c0.06-0.06,0.13-0.11,0.2-0.16c0.01-0.01,0.02-0.01,0.02-0.02
									c0.06-0.05,0.13-0.09,0.2-0.13c0.01-0.01,0.03-0.02,0.04-0.02c0.06-0.04,0.13-0.07,0.2-0.1c0.02-0.01,0.04-0.02,0.06-0.03
									c0.06-0.03,0.13-0.05,0.19-0.07c0.02-0.01,0.05-0.02,0.07-0.02c0.06-0.02,0.13-0.03,0.2-0.05c0.02,0,0.05-0.01,0.07-0.02
									c0.09-0.02,0.18-0.03,0.28-0.03v3.21L47.04,66.63z"/>
							</g>
							<polygon id="XMLID_248_" class="st29" points="49.75,66.73 49.67,66.63 47.04,66.63 46.94,66.73 							"/>
						</g>
					</g>
				</g>
			</g>
		</g>
		<g id="XMLID_4_">
			<path id="XMLID_232_" class="st26" d="M33.61,58.45v-5.62c0-1.39,1.21-2.53,2.71-2.53c1.5,0,2.71,1.13,2.71,2.53v5.62H33.61z"/>
			<rect id="XMLID_35_" x="33.02" y="58.45" class="st34" width="6.6" height="0.92"/>
			<g id="XMLID_44_">
				<path id="XMLID_219_" class="st27" d="M36.33,50.73L36.33,50.73c-1.26,0-2.29,0.95-2.29,2.1v0.41v2.68v2.1h2.28h0h2.28v-2.1
					v-2.68v-0.41C38.61,51.67,37.58,50.73,36.33,50.73z"/>
				
					<linearGradient id="XMLID_00000150793211318819570970000008576193681351067810_" gradientUnits="userSpaceOnUse" x1="36.3244" y1="57.7324" x2="36.3244" y2="51.0239">
					<stop  offset="0" style="stop-color:#5791A5"/>
					<stop  offset="0.3213" style="stop-color:#518A9E"/>
					<stop  offset="0.7397" style="stop-color:#3F788C"/>
					<stop  offset="1" style="stop-color:#316A7E"/>
				</linearGradient>
				<path id="XMLID_216_" style="fill:url(#XMLID_00000150793211318819570970000008576193681351067810_);" d="M34.34,57.73v-4.9
					c0-1,0.89-1.81,1.99-1.81c1.1,0,1.99,0.81,1.99,1.81v4.9H34.34z"/>
				<polygon id="XMLID_209_" class="st36" points="38.02,54.02 34.63,54.02 34.34,54.02 34.34,54.28 34.34,57.59 34.49,57.6 
					34.63,54.28 38.02,54.28 38.17,57.61 38.31,57.59 38.31,54.28 38.31,54.02 				"/>
				<path id="XMLID_51_" class="st36" d="M34.64,53.67v-0.6c0-0.84,0.75-1.53,1.68-1.53c0.93,0,1.69,0.69,1.69,1.53v0.6h0.3v-0.84
					c0-1-0.89-1.81-1.99-1.81c-1.1,0-1.99,0.81-1.99,1.81v0.84H34.64z"/>
				<rect id="XMLID_50_" x="34.24" y="53.67" class="st27" width="4.14" height="0.35"/>
				<path id="XMLID_48_" class="st28" d="M34.5,53.67v-0.84c0-0.91,0.82-1.64,1.83-1.64c1.01,0,1.83,0.74,1.83,1.64v0.84h0.16v-0.84
					c0-1-0.89-1.81-1.99-1.81c-1.1,0-1.99,0.81-1.99,1.81v0.84H34.5z"/>
				<polygon id="XMLID_47_" class="st28" points="34.49,57.6 34.5,54.16 38.16,54.16 38.31,54.02 34.34,54.02 34.34,57.73 				"/>
				<polygon id="XMLID_45_" class="st29" points="34.34,57.73 34.49,57.6 38.17,57.61 38.16,54.16 38.31,54.02 38.31,57.73 				"/>
			</g>
		</g>
		<g id="XMLID_6_">
			<path id="XMLID_36_" class="st26" d="M33.61,71.99v-5.62c0-1.39,1.21-2.53,2.71-2.53c1.5,0,2.71,1.13,2.71,2.53v5.62H33.61z"/>
			<rect id="XMLID_34_" x="33.02" y="71.99" class="st34" width="6.6" height="0.92"/>
			<g id="XMLID_9_">
				<path id="XMLID_32_" class="st27" d="M36.33,64.26L36.33,64.26c-1.26,0-2.29,0.95-2.29,2.1v0.41v2.68v2.1h2.28h0h2.28v-2.1
					v-2.68v-0.41C38.61,65.21,37.58,64.26,36.33,64.26z"/>
				
					<linearGradient id="XMLID_00000098186335248841965810000007850576418444695199_" gradientUnits="userSpaceOnUse" x1="36.3244" y1="71.265" x2="36.3244" y2="64.5565">
					<stop  offset="0" style="stop-color:#5791A5"/>
					<stop  offset="0.3213" style="stop-color:#518A9E"/>
					<stop  offset="0.7397" style="stop-color:#3F788C"/>
					<stop  offset="1" style="stop-color:#316A7E"/>
				</linearGradient>
				<path id="XMLID_28_" style="fill:url(#XMLID_00000098186335248841965810000007850576418444695199_);" d="M34.34,71.26v-4.9
					c0-1,0.89-1.81,1.99-1.81c1.1,0,1.99,0.81,1.99,1.81v4.9H34.34z"/>
				<polygon id="XMLID_23_" class="st36" points="38.02,67.55 34.63,67.55 34.34,67.55 34.34,67.81 34.34,71.13 34.49,71.14 
					34.63,67.81 38.02,67.81 38.17,71.14 38.31,71.13 38.31,67.81 38.31,67.55 				"/>
				<path id="XMLID_20_" class="st36" d="M34.64,67.2v-0.6c0-0.84,0.75-1.53,1.68-1.53c0.93,0,1.69,0.69,1.69,1.53v0.6h0.3v-0.84
					c0-1-0.89-1.81-1.99-1.81c-1.1,0-1.99,0.81-1.99,1.81v0.84H34.64z"/>
				<rect id="XMLID_19_" x="34.24" y="67.2" class="st27" width="4.14" height="0.35"/>
				<path id="XMLID_16_" class="st28" d="M34.5,67.2v-0.84c0-0.91,0.82-1.64,1.83-1.64c1.01,0,1.83,0.74,1.83,1.64v0.84h0.16v-0.84
					c0-1-0.89-1.81-1.99-1.81c-1.1,0-1.99,0.81-1.99,1.81v0.84H34.5z"/>
				<polygon id="XMLID_11_" class="st28" points="34.49,71.14 34.5,67.69 38.16,67.69 38.31,67.55 34.34,67.55 34.34,71.26 				"/>
				<polygon id="XMLID_10_" class="st29" points="34.34,71.26 34.49,71.14 38.17,71.14 38.16,67.69 38.31,67.55 38.31,71.26 				"/>
			</g>
		</g>
		<g id="XMLID_507_">
			<path id="XMLID_671_" class="st26" d="M21.36,58.45v-5.62c0-1.39,1.21-2.53,2.71-2.53c1.5,0,2.71,1.13,2.71,2.53v5.62H21.36z"/>
			<rect id="XMLID_668_" x="20.77" y="58.45" class="st34" width="6.6" height="0.92"/>
			<g id="XMLID_508_">
				<path id="XMLID_667_" class="st27" d="M24.07,50.73L24.07,50.73c-1.26,0-2.29,0.95-2.29,2.1v0.41v2.68v2.1h2.28h0h2.28v-2.1
					v-2.68v-0.41C26.35,51.67,25.33,50.73,24.07,50.73z"/>
				
					<linearGradient id="XMLID_00000002359200325003492290000000681328005423341471_" gradientUnits="userSpaceOnUse" x1="24.0681" y1="57.7324" x2="24.0681" y2="51.0239">
					<stop  offset="0" style="stop-color:#5791A5"/>
					<stop  offset="0.3213" style="stop-color:#518A9E"/>
					<stop  offset="0.7397" style="stop-color:#3F788C"/>
					<stop  offset="1" style="stop-color:#316A7E"/>
				</linearGradient>
				<path id="XMLID_647_" style="fill:url(#XMLID_00000002359200325003492290000000681328005423341471_);" d="M22.08,57.73v-4.9
					c0-1,0.89-1.81,1.99-1.81c1.1,0,1.99,0.81,1.99,1.81v4.9H22.08z"/>
				<polygon id="XMLID_622_" class="st36" points="25.76,54.02 22.38,54.02 22.08,54.02 22.08,54.28 22.08,57.59 22.23,57.6 
					22.38,54.28 25.76,54.28 25.91,57.61 26.06,57.59 26.06,54.28 26.06,54.02 				"/>
				<path id="XMLID_616_" class="st36" d="M22.39,53.67v-0.6c0-0.84,0.75-1.53,1.68-1.53c0.93,0,1.69,0.69,1.69,1.53v0.6h0.3v-0.84
					c0-1-0.89-1.81-1.99-1.81c-1.1,0-1.99,0.81-1.99,1.81v0.84H22.39z"/>
				<rect id="XMLID_614_" x="21.98" y="53.67" class="st27" width="4.14" height="0.35"/>
				<path id="XMLID_594_" class="st28" d="M22.24,53.67v-0.84c0-0.91,0.82-1.64,1.83-1.64c1.01,0,1.83,0.74,1.83,1.64v0.84h0.16
					v-0.84c0-1-0.89-1.81-1.99-1.81c-1.1,0-1.99,0.81-1.99,1.81v0.84H22.24z"/>
				<polygon id="XMLID_572_" class="st28" points="22.23,57.6 22.24,54.16 25.91,54.16 26.06,54.02 22.08,54.02 22.08,57.73 				"/>
				<polygon id="XMLID_509_" class="st29" points="22.08,57.73 22.23,57.6 25.91,57.61 25.91,54.16 26.06,54.02 26.06,57.73 				"/>
			</g>
		</g>
		<g id="XMLID_2_">
			<path id="XMLID_506_" class="st26" d="M21.36,71.99v-5.62c0-1.39,1.21-2.53,2.71-2.53c1.5,0,2.71,1.13,2.71,2.53v5.62H21.36z"/>
			<rect id="XMLID_505_" x="20.77" y="71.99" class="st34" width="6.6" height="0.92"/>
			<g id="XMLID_3_">
				<path id="XMLID_504_" class="st27" d="M24.07,64.26L24.07,64.26c-1.26,0-2.29,0.95-2.29,2.1v0.41v2.68v2.1h2.28h0h2.28v-2.1
					v-2.68v-0.41C26.35,65.21,25.33,64.26,24.07,64.26z"/>
				
					<linearGradient id="XMLID_00000132062396184344781030000017843101797676370833_" gradientUnits="userSpaceOnUse" x1="24.0681" y1="71.265" x2="24.0681" y2="64.5565">
					<stop  offset="0" style="stop-color:#5791A5"/>
					<stop  offset="0.3213" style="stop-color:#518A9E"/>
					<stop  offset="0.7397" style="stop-color:#3F788C"/>
					<stop  offset="1" style="stop-color:#316A7E"/>
				</linearGradient>
				<path id="XMLID_369_" style="fill:url(#XMLID_00000132062396184344781030000017843101797676370833_);" d="M22.08,71.26v-4.9
					c0-1,0.89-1.81,1.99-1.81c1.1,0,1.99,0.81,1.99,1.81v4.9H22.08z"/>
				<polygon id="XMLID_79_" class="st36" points="25.76,67.55 22.38,67.55 22.08,67.55 22.08,67.81 22.08,71.13 22.23,71.14 
					22.38,67.81 25.76,67.81 25.91,71.14 26.06,71.13 26.06,67.81 26.06,67.55 				"/>
				<path id="XMLID_74_" class="st36" d="M22.39,67.2v-0.6c0-0.84,0.75-1.53,1.68-1.53c0.93,0,1.69,0.69,1.69,1.53v0.6h0.3v-0.84
					c0-1-0.89-1.81-1.99-1.81c-1.1,0-1.99,0.81-1.99,1.81v0.84H22.39z"/>
				<rect id="XMLID_61_" x="21.98" y="67.2" class="st27" width="4.14" height="0.35"/>
				<path id="XMLID_55_" class="st28" d="M22.24,67.2v-0.84c0-0.91,0.82-1.64,1.83-1.64c1.01,0,1.83,0.74,1.83,1.64v0.84h0.16v-0.84
					c0-1-0.89-1.81-1.99-1.81c-1.1,0-1.99,0.81-1.99,1.81v0.84H22.24z"/>
				<polygon id="XMLID_52_" class="st28" points="22.23,71.14 22.24,67.69 25.91,67.69 26.06,67.55 22.08,67.55 22.08,71.26 				"/>
				<polygon id="XMLID_5_" class="st29" points="22.08,71.26 22.23,71.14 25.91,71.14 25.91,67.69 26.06,67.55 26.06,71.26 				"/>
			</g>
		</g>
		<g id="XMLID_805_">
			<path id="XMLID_1397_" class="st26" d="M73.22,58.45v-5.62c0-1.39,1.21-2.53,2.71-2.53c1.5,0,2.71,1.13,2.71,2.53v5.62H73.22z"/>
			<rect id="XMLID_1396_" x="72.63" y="58.45" class="st34" width="6.6" height="0.92"/>
			<g id="XMLID_806_">
				<path id="XMLID_1395_" class="st27" d="M75.93,50.73L75.93,50.73c-1.26,0-2.29,0.95-2.29,2.1v0.41v2.68v2.1h2.28h0h2.28v-2.1
					v-2.68v-0.41C78.22,51.67,77.19,50.73,75.93,50.73z"/>
				
					<linearGradient id="XMLID_00000109739127468154728380000007004551931987276962_" gradientUnits="userSpaceOnUse" x1="75.9319" y1="57.7324" x2="75.9319" y2="51.0239">
					<stop  offset="0" style="stop-color:#5791A5"/>
					<stop  offset="0.3213" style="stop-color:#518A9E"/>
					<stop  offset="0.7397" style="stop-color:#3F788C"/>
					<stop  offset="1" style="stop-color:#316A7E"/>
				</linearGradient>
				<path id="XMLID_1392_" style="fill:url(#XMLID_00000109739127468154728380000007004551931987276962_);" d="M73.94,57.73v-4.9
					c0-1,0.89-1.81,1.99-1.81c1.1,0,1.99,0.81,1.99,1.81v4.9H73.94z"/>
				<polygon id="XMLID_1389_" class="st36" points="77.62,54.02 74.24,54.02 73.94,54.02 73.94,54.28 73.94,57.59 74.09,57.6 
					74.24,54.28 77.62,54.28 77.77,57.61 77.92,57.59 77.92,54.28 77.92,54.02 				"/>
				<path id="XMLID_1386_" class="st36" d="M74.25,53.67v-0.6c0-0.84,0.75-1.53,1.68-1.53c0.93,0,1.69,0.69,1.69,1.53v0.6h0.3v-0.84
					c0-1-0.89-1.81-1.99-1.81c-1.1,0-1.99,0.81-1.99,1.81v0.84H74.25z"/>
				<rect id="XMLID_1385_" x="73.85" y="53.67" class="st27" width="4.14" height="0.35"/>
				<path id="XMLID_1367_" class="st28" d="M74.1,53.67v-0.84c0-0.91,0.82-1.64,1.83-1.64c1.01,0,1.83,0.74,1.83,1.64v0.84h0.16
					v-0.84c0-1-0.89-1.81-1.99-1.81c-1.1,0-1.99,0.81-1.99,1.81v0.84H74.1z"/>
				<polygon id="XMLID_1365_" class="st28" points="74.09,57.6 74.1,54.16 77.77,54.16 77.92,54.02 73.94,54.02 73.94,57.73 				"/>
				<polygon id="XMLID_1364_" class="st29" points="73.94,57.73 74.09,57.6 77.77,57.61 77.77,54.16 77.92,54.02 77.92,57.73 				
					"/>
			</g>
		</g>
		<g id="XMLID_726_">
			<path id="XMLID_772_" class="st26" d="M73.22,71.99v-5.62c0-1.39,1.21-2.53,2.71-2.53c1.5,0,2.71,1.13,2.71,2.53v5.62H73.22z"/>
			<rect id="XMLID_770_" x="72.63" y="71.99" class="st34" width="6.6" height="0.92"/>
			<g id="XMLID_729_">
				<path id="XMLID_769_" class="st27" d="M75.93,64.26L75.93,64.26c-1.26,0-2.29,0.95-2.29,2.1v0.41v2.68v2.1h2.28h0h2.28v-2.1
					v-2.68v-0.41C78.22,65.21,77.19,64.26,75.93,64.26z"/>
				
					<linearGradient id="XMLID_00000033329098022882907510000010662510412801051582_" gradientUnits="userSpaceOnUse" x1="75.9319" y1="71.265" x2="75.9319" y2="64.5565">
					<stop  offset="0" style="stop-color:#5791A5"/>
					<stop  offset="0.3213" style="stop-color:#518A9E"/>
					<stop  offset="0.7397" style="stop-color:#3F788C"/>
					<stop  offset="1" style="stop-color:#316A7E"/>
				</linearGradient>
				<path id="XMLID_763_" style="fill:url(#XMLID_00000033329098022882907510000010662510412801051582_);" d="M73.94,71.26v-4.9
					c0-1,0.89-1.81,1.99-1.81c1.1,0,1.99,0.81,1.99,1.81v4.9H73.94z"/>
				<polygon id="XMLID_746_" class="st36" points="77.62,67.55 74.24,67.55 73.94,67.55 73.94,67.81 73.94,71.13 74.09,71.14 
					74.24,67.81 77.62,67.81 77.77,71.14 77.92,71.13 77.92,67.81 77.92,67.55 				"/>
				<path id="XMLID_740_" class="st36" d="M74.25,67.2v-0.6c0-0.84,0.75-1.53,1.68-1.53c0.93,0,1.69,0.69,1.69,1.53v0.6h0.3v-0.84
					c0-1-0.89-1.81-1.99-1.81c-1.1,0-1.99,0.81-1.99,1.81v0.84H74.25z"/>
				<rect id="XMLID_739_" x="73.85" y="67.2" class="st27" width="4.14" height="0.35"/>
				<path id="XMLID_733_" class="st28" d="M74.1,67.2v-0.84c0-0.91,0.82-1.64,1.83-1.64c1.01,0,1.83,0.74,1.83,1.64v0.84h0.16v-0.84
					c0-1-0.89-1.81-1.99-1.81c-1.1,0-1.99,0.81-1.99,1.81v0.84H74.1z"/>
				<polygon id="XMLID_732_" class="st28" points="74.09,71.14 74.1,67.69 77.77,67.69 77.92,67.55 73.94,67.55 73.94,71.26 				"/>
				<polygon id="XMLID_730_" class="st29" points="73.94,71.26 74.09,71.14 77.77,71.14 77.77,67.69 77.92,67.55 77.92,71.26 				
					"/>
			</g>
		</g>
		<g id="XMLID_84_">
			<path id="XMLID_105_" class="st26" d="M60.96,58.45v-5.62c0-1.39,1.21-2.53,2.71-2.53c1.5,0,2.71,1.13,2.71,2.53v5.62H60.96z"/>
			<rect id="XMLID_104_" x="60.37" y="58.45" class="st34" width="6.6" height="0.92"/>
			<g id="XMLID_85_">
				<path id="XMLID_103_" class="st27" d="M63.67,50.73L63.67,50.73c-1.26,0-2.29,0.95-2.29,2.1v0.41v2.68v2.1h2.28h0h2.28v-2.1
					v-2.68v-0.41C65.96,51.67,64.93,50.73,63.67,50.73z"/>
				
					<linearGradient id="XMLID_00000149353094075489295170000018398523166001922223_" gradientUnits="userSpaceOnUse" x1="63.6709" y1="57.7324" x2="63.6709" y2="51.0239">
					<stop  offset="0" style="stop-color:#5791A5"/>
					<stop  offset="0.3213" style="stop-color:#518A9E"/>
					<stop  offset="0.7397" style="stop-color:#3F788C"/>
					<stop  offset="1" style="stop-color:#316A7E"/>
				</linearGradient>
				<path id="XMLID_99_" style="fill:url(#XMLID_00000149353094075489295170000018398523166001922223_);" d="M61.68,57.73v-4.9
					c0-1,0.89-1.81,1.99-1.81c1.1,0,1.99,0.81,1.99,1.81v4.9H61.68z"/>
				<polygon id="XMLID_95_" class="st36" points="65.36,54.02 61.98,54.02 61.68,54.02 61.68,54.28 61.68,57.59 61.83,57.6 
					61.98,54.28 65.36,54.28 65.51,57.61 65.66,57.59 65.66,54.28 65.66,54.02 				"/>
				<path id="XMLID_92_" class="st36" d="M61.99,53.67v-0.6c0-0.84,0.75-1.53,1.68-1.53c0.93,0,1.69,0.69,1.69,1.53v0.6h0.3v-0.84
					c0-1-0.89-1.81-1.99-1.81c-1.1,0-1.99,0.81-1.99,1.81v0.84H61.99z"/>
				<rect id="XMLID_89_" x="61.59" y="53.67" class="st27" width="4.14" height="0.35"/>
				<path id="XMLID_88_" class="st28" d="M61.84,53.67v-0.84c0-0.91,0.82-1.64,1.83-1.64c1.01,0,1.83,0.74,1.83,1.64v0.84h0.16
					v-0.84c0-1-0.89-1.81-1.99-1.81c-1.1,0-1.99,0.81-1.99,1.81v0.84H61.84z"/>
				<polygon id="XMLID_87_" class="st28" points="61.83,57.6 61.84,54.16 65.51,54.16 65.66,54.02 61.68,54.02 61.68,57.73 				"/>
				<polygon id="XMLID_86_" class="st29" points="61.68,57.73 61.83,57.6 65.51,57.61 65.51,54.16 65.66,54.02 65.66,57.73 				"/>
			</g>
		</g>
		<g id="XMLID_8_">
			<path id="XMLID_116_" class="st26" d="M47.06,58.45v-5.62c0-1.39,1.21-2.53,2.71-2.53c1.5,0,2.71,1.13,2.71,2.53v5.62H47.06z"/>
			<rect id="XMLID_115_" x="46.47" y="58.45" class="st34" width="6.6" height="0.92"/>
			<g id="XMLID_12_">
				<path id="XMLID_114_" class="st27" d="M49.77,50.73L49.77,50.73c-1.26,0-2.29,0.95-2.29,2.1v0.41v2.68v2.1h2.28h0h2.28v-2.1
					v-2.68v-0.41C52.05,51.67,51.03,50.73,49.77,50.73z"/>
				
					<linearGradient id="XMLID_00000102544317156743353420000014541603233980849065_" gradientUnits="userSpaceOnUse" x1="49.7675" y1="57.7324" x2="49.7675" y2="51.0239">
					<stop  offset="0" style="stop-color:#5791A5"/>
					<stop  offset="0.3213" style="stop-color:#518A9E"/>
					<stop  offset="0.7397" style="stop-color:#3F788C"/>
					<stop  offset="1" style="stop-color:#316A7E"/>
				</linearGradient>
				<path id="XMLID_111_" style="fill:url(#XMLID_00000102544317156743353420000014541603233980849065_);" d="M47.78,57.73v-4.9
					c0-1,0.89-1.81,1.99-1.81c1.1,0,1.99,0.81,1.99,1.81v4.9H47.78z"/>
				<polygon id="XMLID_108_" class="st36" points="51.46,54.02 48.08,54.02 47.78,54.02 47.78,54.28 47.78,57.59 47.93,57.6 
					48.08,54.28 51.46,54.28 51.61,57.61 51.76,57.59 51.76,54.28 51.76,54.02 				"/>
				<path id="XMLID_25_" class="st36" d="M48.09,53.67v-0.6c0-0.84,0.75-1.53,1.68-1.53c0.93,0,1.69,0.69,1.69,1.53v0.6h0.3v-0.84
					c0-1-0.89-1.81-1.99-1.81c-1.1,0-1.99,0.81-1.99,1.81v0.84H48.09z"/>
				<rect id="XMLID_18_" x="47.68" y="53.67" class="st27" width="4.14" height="0.35"/>
				<path id="XMLID_17_" class="st28" d="M47.94,53.67v-0.84c0-0.91,0.82-1.64,1.83-1.64c1.01,0,1.83,0.74,1.83,1.64v0.84h0.16
					v-0.84c0-1-0.89-1.81-1.99-1.81c-1.1,0-1.99,0.81-1.99,1.81v0.84H47.94z"/>
				<polygon id="XMLID_15_" class="st28" points="47.93,57.6 47.94,54.16 51.61,54.16 51.76,54.02 47.78,54.02 47.78,57.73 				"/>
				<polygon id="XMLID_13_" class="st29" points="47.78,57.73 47.93,57.6 51.61,57.61 51.61,54.16 51.76,54.02 51.76,57.73 				"/>
			</g>
		</g>
		<g id="XMLID_53_">
			<path id="XMLID_83_" class="st26" d="M60.96,71.99v-5.62c0-1.39,1.21-2.53,2.71-2.53c1.5,0,2.71,1.13,2.71,2.53v5.62H60.96z"/>
			<rect id="XMLID_82_" x="60.37" y="71.99" class="st34" width="6.6" height="0.92"/>
			<g id="XMLID_56_">
				<path id="XMLID_81_" class="st27" d="M63.67,64.26L63.67,64.26c-1.26,0-2.29,0.95-2.29,2.1v0.41v2.68v2.1h2.28h0h2.28v-2.1
					v-2.68v-0.41C65.96,65.21,64.93,64.26,63.67,64.26z"/>
				
					<linearGradient id="XMLID_00000105425179680865946980000000247757063330118293_" gradientUnits="userSpaceOnUse" x1="63.6709" y1="71.265" x2="63.6709" y2="64.5565">
					<stop  offset="0" style="stop-color:#5791A5"/>
					<stop  offset="0.3213" style="stop-color:#518A9E"/>
					<stop  offset="0.7397" style="stop-color:#3F788C"/>
					<stop  offset="1" style="stop-color:#316A7E"/>
				</linearGradient>
				<path id="XMLID_78_" style="fill:url(#XMLID_00000105425179680865946980000000247757063330118293_);" d="M61.68,71.26v-4.9
					c0-1,0.89-1.81,1.99-1.81c1.1,0,1.99,0.81,1.99,1.81v4.9H61.68z"/>
				<polygon id="XMLID_75_" class="st36" points="65.36,67.55 61.98,67.55 61.68,67.55 61.68,67.81 61.68,71.13 61.83,71.14 
					61.98,67.81 65.36,67.81 65.51,71.14 65.66,71.13 65.66,67.81 65.66,67.55 				"/>
				<path id="XMLID_71_" class="st36" d="M61.99,67.2v-0.6c0-0.84,0.75-1.53,1.68-1.53c0.93,0,1.69,0.69,1.69,1.53v0.6h0.3v-0.84
					c0-1-0.89-1.81-1.99-1.81c-1.1,0-1.99,0.81-1.99,1.81v0.84H61.99z"/>
				<rect id="XMLID_70_" x="61.59" y="67.2" class="st27" width="4.14" height="0.35"/>
				<path id="XMLID_69_" class="st28" d="M61.84,67.2v-0.84c0-0.91,0.82-1.64,1.83-1.64c1.01,0,1.83,0.74,1.83,1.64v0.84h0.16v-0.84
					c0-1-0.89-1.81-1.99-1.81c-1.1,0-1.99,0.81-1.99,1.81v0.84H61.84z"/>
				<polygon id="XMLID_66_" class="st28" points="61.83,71.14 61.84,67.69 65.51,67.69 65.66,67.55 61.68,67.55 61.68,71.26 				"/>
				<polygon id="XMLID_64_" class="st29" points="61.68,71.26 61.83,71.14 65.51,71.14 65.51,67.69 65.66,67.55 65.66,71.26 				"/>
			</g>
		</g>
		<g id="XMLID_376_">
			<rect id="XMLID_374_" x="18.53" y="33.62" class="st45" width="63.22" height="0.36"/>
			<rect id="XMLID_372_" x="18.25" y="32.05" class="st45" width="63.78" height="0.67"/>
			<rect id="XMLID_349_" x="18.85" y="32.72" class="st24" width="62.23" height="0.9"/>
			<rect id="XMLID_345_" x="18.85" y="32.72" class="st25" width="62.19" height="0.28"/>
			<rect id="XMLID_337_" x="18.85" y="33.98" class="st24" width="61.98" height="10.66"/>
		</g>
		<rect id="XMLID_26_" x="15.22" y="74.7" class="st46" width="29.88" height="0.65"/>
		<rect id="XMLID_37_" x="15.22" y="75.35" class="st47" width="29.88" height="2.24"/>
		<rect id="XMLID_168_" x="54.85" y="74.7" class="st46" width="29.88" height="0.65"/>
		<rect id="XMLID_63_" x="54.85" y="75.35" class="st47" width="29.88" height="2.24"/>
		<rect id="XMLID_39_" x="15.02" y="46.52" class="st45" width="70.05" height="0.43"/>
		<rect id="XMLID_170_" x="15.02" y="44.64" class="st45" width="70.05" height="0.8"/>
		<rect id="XMLID_90_" x="15.77" y="42.13" class="st25" width="68.46" height="2.51"/>
		<rect id="XMLID_67_" x="15.61" y="45.45" class="st24" width="68.81" height="1.08"/>
		<rect id="XMLID_62_" x="15.61" y="45.45" class="st25" width="68.81" height="0.34"/>
		<polygon id="XMLID_371_" class="st24" points="13.81,40.37 13.81,42.13 15.82,42.13 15.82,43.39 17.84,43.39 17.84,42.13 
			19.97,42.13 19.97,43.39 21.99,43.39 21.99,42.13 24.12,42.13 24.12,43.39 26.14,43.39 26.14,42.13 28.27,42.13 28.27,43.39 
			30.29,43.39 30.29,42.13 32.42,42.13 32.42,43.39 34.44,43.39 34.44,42.13 36.57,42.13 36.57,43.39 38.59,43.39 38.59,42.13 
			40.72,42.13 40.72,43.39 42.74,43.39 42.74,42.13 44.87,42.13 44.87,43.39 46.89,43.39 46.89,42.13 49.02,42.13 49.02,43.39 
			51.04,43.39 51.04,42.13 53.17,42.13 53.17,43.39 55.19,43.39 55.19,42.13 57.32,42.13 57.32,43.39 59.34,43.39 59.34,42.13 
			61.47,42.13 61.47,43.39 63.49,43.39 63.49,42.13 65.62,42.13 65.62,43.39 67.64,43.39 67.64,42.13 69.77,42.13 69.77,43.39 
			71.79,43.39 71.79,42.13 73.92,42.13 73.92,43.39 75.94,43.39 75.94,42.13 78.07,42.13 78.07,43.39 80.09,43.39 80.09,42.13 
			82.22,42.13 82.22,43.39 84.24,43.39 84.24,42.13 86.25,42.13 86.25,40.37 		"/>
		<rect id="XMLID_340_" x="12.75" y="39.03" class="st24" width="74.5" height="1.34"/>
		<rect id="XMLID_346_" x="11.48" y="37.42" class="st47" width="77.04" height="1.61"/>
		<rect id="XMLID_344_" x="13.81" y="40.37" class="st45" width="72.44" height="0.69"/>
		<g id="XMLID_1558_">
			<polygon id="XMLID_336_" class="st47" points="49.94,21.98 18.91,37.42 18.91,37.42 81.12,37.42 81.12,37.42 			"/>
			<polygon id="XMLID_339_" class="st48" points="24.2,37.42 49.95,24.69 75.82,37.42 			"/>
			<polygon id="XMLID_343_" class="st49" points="26.34,37.42 49.95,25.84 73.27,37.42 75.82,37.42 49.95,24.69 24.2,37.42 			"/>
		</g>
		<g id="XMLID_347_">
			<path id="XMLID_385_" class="st47" d="M44.79,33.07c0.33,0.07,0.55,0.16,0.68,0.27c0.19,0.16,0.28,0.35,0.28,0.59
				c0,0.26-0.1,0.47-0.31,0.63c-0.26,0.21-0.62,0.31-1.1,0.31h-1.73v-0.09c0.16,0,0.27-0.02,0.32-0.04c0.06-0.03,0.1-0.06,0.12-0.12
				c0.02-0.05,0.03-0.16,0.03-0.35v-2.21c0-0.19-0.01-0.3-0.03-0.34c-0.02-0.05-0.06-0.09-0.12-0.12c-0.06-0.02-0.16-0.04-0.32-0.04
				v-0.09l1.63,0c0.39,0,0.67,0.04,0.83,0.11c0.16,0.06,0.29,0.17,0.38,0.3c0.09,0.14,0.14,0.29,0.14,0.45
				c0,0.16-0.06,0.3-0.18,0.43C45.3,32.89,45.09,32.99,44.79,33.07z M43.88,33.19v1.09l0,0.13c0,0.08,0.03,0.15,0.07,0.2
				c0.05,0.05,0.11,0.08,0.2,0.08c0.14,0,0.26-0.04,0.37-0.09c0.11-0.06,0.2-0.15,0.26-0.26c0.06-0.11,0.09-0.24,0.09-0.38
				c0-0.16-0.04-0.31-0.11-0.42c-0.08-0.13-0.17-0.22-0.31-0.27C44.33,33.21,44.14,33.19,43.88,33.19z M43.88,33
				c0.24,0,0.41-0.04,0.53-0.09c0.11-0.05,0.2-0.13,0.26-0.23c0.06-0.09,0.09-0.22,0.09-0.36s-0.03-0.27-0.09-0.37
				c-0.06-0.09-0.14-0.17-0.26-0.22c-0.11-0.05-0.29-0.07-0.53-0.07V33z"/>
			<path id="XMLID_373_" class="st47" d="M48.07,33.9h-1.2l-0.14,0.34c-0.05,0.11-0.07,0.2-0.07,0.28c0,0.09,0.04,0.16,0.12,0.2
				c0.05,0.03,0.16,0.05,0.34,0.06v0.09h-1.14v-0.09c0.13-0.02,0.22-0.07,0.3-0.16c0.08-0.07,0.18-0.24,0.29-0.51l1.21-2.71h0.05
				l1.23,2.79c0.11,0.26,0.22,0.43,0.29,0.51c0.06,0.05,0.14,0.08,0.24,0.08v0.09h-1.65v-0.09h0.07c0.13,0,0.22-0.02,0.28-0.06
				c0.04-0.03,0.06-0.06,0.06-0.12c0-0.03-0.01-0.05-0.02-0.09c0-0.02-0.03-0.08-0.08-0.19L48.07,33.9z M47.99,33.72l-0.51-1.17
				l-0.52,1.17H47.99z"/>
			<path id="XMLID_368_" class="st47" d="M50.93,31.46l1.68,2.12v-1.46c0-0.21-0.03-0.35-0.09-0.42c-0.08-0.1-0.21-0.14-0.4-0.14
				v-0.09h1.13v0.09c-0.15,0.02-0.24,0.04-0.29,0.07c-0.05,0.04-0.09,0.09-0.11,0.14c-0.03,0.07-0.04,0.19-0.04,0.35v2.83h-0.09
				l-2.3-2.83v2.16c0,0.19,0.05,0.32,0.13,0.39c0.09,0.07,0.19,0.1,0.31,0.1h0.08v0.09h-1.21v-0.09c0.19,0,0.32-0.04,0.39-0.12
				c0.07-0.07,0.11-0.2,0.11-0.38v-2.41l-0.07-0.08c-0.07-0.09-0.14-0.15-0.19-0.18c-0.06-0.03-0.14-0.05-0.24-0.05v-0.09H50.93z"/>
			<path id="XMLID_348_" class="st47" d="M55.5,32.76l1.2,1.5c0.17,0.21,0.31,0.35,0.44,0.43c0.09,0.05,0.18,0.08,0.28,0.08v0.09
				h-1.78v-0.09c0.11-0.02,0.18-0.03,0.22-0.05c0.03-0.03,0.05-0.06,0.05-0.09c0-0.07-0.07-0.2-0.23-0.4l-0.78-0.98l-0.13,0.1v0.93
				c0,0.18,0.01,0.28,0.03,0.33c0.02,0.04,0.06,0.08,0.12,0.12c0.06,0.03,0.15,0.04,0.27,0.04v0.09h-1.72v-0.09h0.11
				c0.1,0,0.18-0.02,0.24-0.05c0.05-0.03,0.08-0.07,0.1-0.12c0.02-0.04,0.03-0.14,0.03-0.32v-2.24c0-0.18-0.01-0.28-0.03-0.33
				c-0.02-0.04-0.06-0.08-0.11-0.11c-0.05-0.03-0.13-0.05-0.23-0.05h-0.11v-0.09h1.7v0.09c-0.12,0-0.21,0.02-0.27,0.05
				c-0.05,0.03-0.08,0.06-0.1,0.12c-0.02,0.04-0.03,0.14-0.03,0.32v1.06l1.27-1.02c0.17-0.15,0.26-0.25,0.26-0.35
				c0-0.07-0.04-0.12-0.11-0.15c-0.04-0.02-0.13-0.04-0.28-0.04v-0.09h1.33v0.09c-0.12,0.02-0.21,0.03-0.28,0.07
				c-0.07,0.03-0.22,0.15-0.47,0.34L55.5,32.76z"/>
		</g>
		<g id="XMLID_210_">
			<path id="XMLID_263_" class="st50" d="M41.06,49.25c0,0.27-0.22,0.48-0.48,0.48c-0.27,0-0.48-0.22-0.48-0.48s0.22-0.48,0.48-0.48
				C40.85,48.77,41.06,48.98,41.06,49.25z"/>
			<path id="XMLID_217_" class="st50" d="M44.9,49.25c0,0.27-0.22,0.48-0.48,0.48c-0.27,0-0.48-0.22-0.48-0.48s0.22-0.48,0.48-0.48
				C44.69,48.77,44.9,48.98,44.9,49.25z"/>
		</g>
		<rect id="XMLID_59_" x="15.22" y="77.6" class="st46" width="69.51" height="0.42"/>
		<path id="XMLID_1562_" class="st51" d="M82.32,46.96H33.39v0h-4.52v0h-7.79h-4.52h-0.18v1.34c-0.29,0.15-0.5,0.43-0.5,0.77
			c0,0.46,0.37,0.82,0.85,0.88v0.09v0.57h0.2v0.34h0.31L16.9,72.79h-0.47v0.5h-0.26v1.41h5.21v-1.41h-0.21v-0.5h-0.47l-0.34-21.86
			h0.31V50.6h0.23v-0.57v-0.1c0.46-0.07,0.82-0.42,0.82-0.87h0.75h5.72c0,0.45,0.37,0.81,0.85,0.87v0.09v0.57h0.2v0.34h0.31
			l-0.34,21.86h-0.47v0.5h-0.26v1.41h5.21v-1.41h-0.21v-0.5h-0.47l-0.34-21.86h0.31V50.6h0.23v-0.57v-0.1
			c0.46-0.07,0.82-0.42,0.82-0.87l0,0L54.85,74.7h27.64l-0.18-25.63V46.96z"/>
		<g id="XMLID_683_">
			<g id="XMLID_717_">
				<polygon id="XMLID_725_" class="st52" points="19.41,50.93 17.85,50.93 16.29,50.93 15.95,72.79 17.85,72.79 19.75,72.79 				
					"/>
				<g id="XMLID_718_">
					<rect id="XMLID_723_" x="16.64" y="51.29" class="st45" width="0.35" height="21.17"/>
					<rect id="XMLID_722_" x="17.33" y="51.29" class="st45" width="0.35" height="21.17"/>
					<rect id="XMLID_720_" x="18.02" y="51.29" class="st45" width="0.35" height="21.17"/>
					<rect id="XMLID_719_" x="18.7" y="51.29" class="st45" width="0.35" height="21.17"/>
				</g>
			</g>
			<g id="XMLID_714_">
				<rect id="XMLID_716_" x="15.48" y="72.79" class="st50" width="4.74" height="0.5"/>
				<rect id="XMLID_715_" x="15.22" y="73.28" class="st53" width="5.21" height="1.41"/>
			</g>
			<g id="XMLID_686_">
				<rect id="XMLID_711_" x="15.78" y="48.9" class="st54" width="4.16" height="1.69"/>
				<g id="XMLID_689_">
					<rect id="XMLID_710_" x="15.78" y="48.9" class="st53" width="4.16" height="1.12"/>
					<g id="XMLID_690_">
						<g id="XMLID_697_">
							<path id="XMLID_708_" class="st55" d="M18.81,49.06c0-0.05,0.01-0.11,0.02-0.16h-1.95c0.01,0.05,0.02,0.1,0.02,0.16
								c0,0.45-0.36,0.82-0.83,0.89c0.05,0.01,0.09,0.01,0.14,0.01c0.46,0,0.83-0.34,0.83-0.76c0-0.05-0.01-0.09-0.01-0.13h1.66
								c-0.01,0.04-0.01,0.09-0.01,0.13c0,0.42,0.37,0.76,0.83,0.76c0.05,0,0.1,0,0.14-0.01C19.17,49.88,18.81,49.51,18.81,49.06z"
								/>
							<g id="XMLID_700_">
								<path id="XMLID_707_" class="st26" d="M19.79,48.16L19.79,48.16L19.79,48.16h-3.85c0,0-0.01,0-0.01,0c-0.01,0-0.02,0-0.02,0
									c-0.54,0-0.98,0.4-0.98,0.9c0,0.5,0.44,0.9,0.98,0.9c0.54,0,0.98-0.4,0.98-0.9c0-0.05-0.01-0.11-0.02-0.16h1.96
									c-0.01,0.05-0.02,0.1-0.02,0.16c0,0.5,0.44,0.9,0.98,0.9c0.54,0,0.98-0.4,0.98-0.9C20.77,48.56,20.33,48.16,19.79,48.16z"/>
								<g id="XMLID_701_">
									<path id="XMLID_705_" class="st50" d="M16.39,49.06c0,0.24-0.22,0.44-0.48,0.44c-0.27,0-0.48-0.2-0.48-0.44
										c0-0.24,0.22-0.44,0.48-0.44C16.17,48.62,16.39,48.82,16.39,49.06z"/>
									<path id="XMLID_704_" class="st50" d="M20.23,49.06c0,0.24-0.22,0.44-0.48,0.44c-0.27,0-0.48-0.2-0.48-0.44
										c0-0.24,0.22-0.44,0.48-0.44C20.01,48.62,20.23,48.82,20.23,49.06z"/>
								</g>
							</g>
						</g>
						<polygon id="XMLID_696_" class="st53" points="15.61,46.96 15.61,47.73 15.89,47.92 15.89,47.92 15.89,48.01 15.89,48.18 
							19.84,48.18 19.84,48.01 19.84,47.92 20.12,47.73 20.12,46.96 						"/>
					</g>
				</g>
				<rect id="XMLID_687_" x="15.98" y="50.6" class="st53" width="3.74" height="0.34"/>
			</g>
		</g>
		<g id="XMLID_680_">
			<g id="XMLID_672_">
				<polygon id="XMLID_397_" class="st52" points="31.65,50.93 30.09,50.93 28.53,50.93 28.18,72.79 30.09,72.79 31.99,72.79 				
					"/>
				<g id="XMLID_1_">
					<rect id="XMLID_396_" x="28.88" y="51.29" class="st45" width="0.35" height="21.17"/>
					<rect id="XMLID_395_" x="29.57" y="51.29" class="st45" width="0.35" height="21.17"/>
					<rect id="XMLID_394_" x="30.25" y="51.29" class="st45" width="0.35" height="21.17"/>
					<rect id="XMLID_393_" x="30.94" y="51.29" class="st45" width="0.35" height="21.17"/>
				</g>
			</g>
			<g id="XMLID_679_">
				<rect id="XMLID_171_" x="27.72" y="72.79" class="st50" width="4.74" height="0.5"/>
				<rect id="XMLID_54_" x="27.46" y="73.28" class="st53" width="5.21" height="1.41"/>
			</g>
			<g id="XMLID_677_">
				<rect id="XMLID_400_" x="28.02" y="48.9" class="st54" width="4.16" height="1.69"/>
				<g id="XMLID_676_">
					<rect id="XMLID_390_" x="28.02" y="48.9" class="st53" width="4.16" height="1.12"/>
					<g id="XMLID_675_">
						<g id="XMLID_674_">
							<path id="XMLID_380_" class="st55" d="M31.05,49.06c0-0.05,0.01-0.11,0.02-0.16h-1.95c0.01,0.05,0.02,0.1,0.02,0.16
								c0,0.45-0.36,0.82-0.83,0.89c0.05,0.01,0.09,0.01,0.14,0.01c0.46,0,0.83-0.34,0.83-0.76c0-0.05-0.01-0.09-0.01-0.13h1.66
								c-0.01,0.04-0.01,0.09-0.01,0.13c0,0.42,0.37,0.76,0.83,0.76c0.05,0,0.1,0,0.14-0.01C31.41,49.88,31.05,49.51,31.05,49.06z"
								/>
							<g id="XMLID_673_">
								<path id="XMLID_379_" class="st26" d="M32.03,48.16L32.03,48.16L32.03,48.16h-3.85c0,0-0.01,0-0.01,0c-0.01,0-0.01,0-0.02,0
									c-0.54,0-0.98,0.4-0.98,0.9c0,0.5,0.44,0.9,0.98,0.9s0.98-0.4,0.98-0.9c0-0.05-0.01-0.11-0.02-0.16h1.96
									c-0.01,0.05-0.02,0.1-0.02,0.16c0,0.5,0.44,0.9,0.98,0.9c0.54,0,0.98-0.4,0.98-0.9C33.01,48.56,32.57,48.16,32.03,48.16z"/>
								<g id="XMLID_43_">
									<path id="XMLID_357_" class="st50" d="M28.63,49.06c0,0.24-0.22,0.44-0.48,0.44c-0.27,0-0.48-0.2-0.48-0.44
										c0-0.24,0.22-0.44,0.48-0.44C28.41,48.62,28.63,48.82,28.63,49.06z"/>
									<path id="XMLID_366_" class="st50" d="M32.46,49.06c0,0.24-0.22,0.44-0.48,0.44c-0.27,0-0.48-0.2-0.48-0.44
										c0-0.24,0.22-0.44,0.48-0.44C32.25,48.62,32.46,48.82,32.46,49.06z"/>
								</g>
							</g>
						</g>
						<polygon id="XMLID_38_" class="st53" points="27.85,46.96 27.85,47.73 28.13,47.92 28.12,47.92 28.12,48.01 28.12,48.18 
							32.08,48.18 32.08,48.01 32.08,47.92 32.36,47.73 32.36,46.96 						"/>
					</g>
				</g>
				<rect id="XMLID_42_" x="28.22" y="50.6" class="st53" width="3.74" height="0.34"/>
			</g>
		</g>
		<g id="XMLID_1429_">
			<g id="XMLID_1459_">
				<polygon id="XMLID_1465_" class="st52" points="44.08,50.93 42.52,50.93 40.96,50.93 40.62,72.79 42.52,72.79 44.43,72.79 				
					"/>
				<g id="XMLID_1460_">
					<rect id="XMLID_1464_" x="41.32" y="51.29" class="st45" width="0.35" height="21.17"/>
					<rect id="XMLID_1463_" x="42" y="51.29" class="st45" width="0.35" height="21.17"/>
					<rect id="XMLID_1462_" x="42.69" y="51.29" class="st45" width="0.35" height="21.17"/>
					<rect id="XMLID_1461_" x="43.38" y="51.29" class="st45" width="0.35" height="21.17"/>
				</g>
			</g>
			<g id="XMLID_1456_">
				<rect id="XMLID_1458_" x="40.15" y="72.79" class="st50" width="4.74" height="0.5"/>
				<rect id="XMLID_1457_" x="39.9" y="73.28" class="st53" width="5.21" height="1.41"/>
			</g>
			<g id="XMLID_1442_">
				<rect id="XMLID_1455_" x="40.46" y="48.9" class="st54" width="4.16" height="1.69"/>
				<g id="XMLID_1444_">
					<rect id="XMLID_1454_" x="40.46" y="48.9" class="st53" width="4.16" height="1.12"/>
					<g id="XMLID_1445_">
						<g id="XMLID_1447_">
							<path id="XMLID_1453_" class="st55" d="M43.49,49.06c0-0.05,0.01-0.11,0.02-0.16h-1.95c0.01,0.05,0.02,0.1,0.02,0.16
								c0,0.45-0.36,0.82-0.83,0.89c0.05,0.01,0.09,0.01,0.14,0.01c0.46,0,0.83-0.34,0.83-0.76c0-0.05-0.01-0.09-0.01-0.13h1.66
								c-0.01,0.04-0.01,0.09-0.01,0.13c0,0.42,0.37,0.76,0.83,0.76c0.05,0,0.1,0,0.14-0.01C43.84,49.88,43.49,49.51,43.49,49.06z"
								/>
							<g id="XMLID_1448_">
								<path id="XMLID_1452_" class="st26" d="M44.46,48.16L44.46,48.16L44.46,48.16h-3.85c0,0-0.01,0-0.01,0
									c-0.01,0-0.02,0-0.02,0c-0.54,0-0.98,0.4-0.98,0.9c0,0.5,0.44,0.9,0.98,0.9c0.54,0,0.98-0.4,0.98-0.9
									c0-0.05-0.01-0.11-0.02-0.16h1.96c-0.01,0.05-0.02,0.1-0.02,0.16c0,0.5,0.44,0.9,0.98,0.9c0.54,0,0.98-0.4,0.98-0.9
									C45.44,48.56,45,48.16,44.46,48.16z"/>
								<g id="XMLID_1449_">
									<path id="XMLID_1451_" class="st50" d="M41.06,49.06c0,0.24-0.22,0.44-0.48,0.44c-0.27,0-0.48-0.2-0.48-0.44
										c0-0.24,0.22-0.44,0.48-0.44C40.85,48.62,41.06,48.82,41.06,49.06z"/>
									<path id="XMLID_1450_" class="st50" d="M44.9,49.06c0,0.24-0.22,0.44-0.48,0.44c-0.27,0-0.48-0.2-0.48-0.44
										c0-0.24,0.22-0.44,0.48-0.44C44.69,48.62,44.9,48.82,44.9,49.06z"/>
								</g>
							</g>
						</g>
						<polygon id="XMLID_1446_" class="st53" points="40.28,46.96 40.28,47.73 40.56,47.92 40.56,47.92 40.56,48.01 40.56,48.18 
							44.52,48.18 44.52,48.01 44.52,47.92 44.8,47.73 44.8,46.96 						"/>
					</g>
				</g>
				<rect id="XMLID_1443_" x="40.65" y="50.6" class="st53" width="3.74" height="0.34"/>
			</g>
		</g>
		<g id="XMLID_1398_">
			<g id="XMLID_1416_">
				<polygon id="XMLID_1423_" class="st52" points="83.71,50.93 82.15,50.93 80.59,50.93 80.25,72.79 82.15,72.79 84.05,72.79 				
					"/>
				<g id="XMLID_1418_">
					<rect id="XMLID_1422_" x="80.94" y="51.29" class="st45" width="0.35" height="21.17"/>
					<rect id="XMLID_1421_" x="81.63" y="51.29" class="st45" width="0.35" height="21.17"/>
					<rect id="XMLID_1420_" x="82.32" y="51.29" class="st45" width="0.35" height="21.17"/>
					<rect id="XMLID_1419_" x="83" y="51.29" class="st45" width="0.35" height="21.17"/>
				</g>
			</g>
			<g id="XMLID_1413_">
				<rect id="XMLID_1415_" x="79.78" y="72.79" class="st50" width="4.74" height="0.5"/>
				<rect id="XMLID_1414_" x="79.52" y="73.28" class="st53" width="5.21" height="1.41"/>
			</g>
			<g id="XMLID_1399_">
				<rect id="XMLID_1412_" x="80.08" y="48.9" class="st54" width="4.16" height="1.69"/>
				<g id="XMLID_1401_">
					<rect id="XMLID_1411_" x="80.08" y="48.9" class="st53" width="4.16" height="1.12"/>
					<g id="XMLID_1402_">
						<g id="XMLID_1404_">
							<path id="XMLID_1410_" class="st55" d="M83.11,49.06c0-0.05,0.01-0.11,0.02-0.16h-1.95c0.01,0.05,0.02,0.1,0.02,0.16
								c0,0.45-0.36,0.82-0.83,0.89c0.05,0.01,0.09,0.01,0.14,0.01c0.46,0,0.83-0.34,0.83-0.76c0-0.05-0.01-0.09-0.01-0.13h1.66
								c-0.01,0.04-0.01,0.09-0.01,0.13c0,0.42,0.37,0.76,0.83,0.76c0.05,0,0.1,0,0.14-0.01C83.47,49.88,83.11,49.51,83.11,49.06z"
								/>
							<g id="XMLID_1405_">
								<path id="XMLID_1409_" class="st26" d="M84.09,48.16L84.09,48.16L84.09,48.16h-3.85c0,0-0.01,0-0.01,0
									c-0.01,0-0.01,0-0.02,0c-0.54,0-0.98,0.4-0.98,0.9c0,0.5,0.44,0.9,0.98,0.9c0.54,0,0.98-0.4,0.98-0.9
									c0-0.05-0.01-0.11-0.02-0.16h1.96c-0.01,0.05-0.02,0.1-0.02,0.16c0,0.5,0.44,0.9,0.98,0.9c0.54,0,0.98-0.4,0.98-0.9
									C85.07,48.56,84.63,48.16,84.09,48.16z"/>
								<g id="XMLID_1406_">
									<path id="XMLID_1408_" class="st50" d="M80.69,49.06c0,0.24-0.22,0.44-0.48,0.44c-0.27,0-0.48-0.2-0.48-0.44
										c0-0.24,0.22-0.44,0.48-0.44C80.48,48.62,80.69,48.82,80.69,49.06z"/>
									<path id="XMLID_1407_" class="st50" d="M84.53,49.06c0,0.24-0.22,0.44-0.48,0.44c-0.27,0-0.48-0.2-0.48-0.44
										c0-0.24,0.22-0.44,0.48-0.44C84.31,48.62,84.53,48.82,84.53,49.06z"/>
								</g>
							</g>
						</g>
						<polygon id="XMLID_1403_" class="st53" points="79.91,46.96 79.91,47.73 80.19,47.92 80.19,47.92 80.19,48.01 80.19,48.18 
							84.15,48.18 84.15,48.01 84.15,47.92 84.43,47.73 84.43,46.96 						"/>
					</g>
				</g>
				<rect id="XMLID_1400_" x="80.28" y="50.6" class="st53" width="3.74" height="0.34"/>
			</g>
		</g>
		<g id="XMLID_57_">
			<rect id="XMLID_409_" x="67.85" y="48.9" class="st54" width="4.16" height="1.69"/>
			<rect id="XMLID_408_" x="67.85" y="48.9" class="st53" width="4.16" height="1.12"/>
			<path id="XMLID_407_" class="st55" d="M70.87,49.06c0-0.05,0.01-0.11,0.02-0.16h-1.95c0.01,0.05,0.02,0.1,0.02,0.16
				c0,0.45-0.36,0.82-0.83,0.89c0.05,0.01,0.09,0.01,0.14,0.01c0.46,0,0.83-0.34,0.83-0.76c0-0.05-0.01-0.09-0.01-0.13h1.66
				c-0.01,0.04-0.01,0.09-0.01,0.13c0,0.42,0.37,0.76,0.83,0.76c0.05,0,0.1,0,0.14-0.01C71.23,49.88,70.87,49.51,70.87,49.06z"/>
			<path id="XMLID_406_" class="st26" d="M71.85,48.16C71.85,48.16,71.85,48.16,71.85,48.16L71.85,48.16h-3.85c0,0-0.01,0-0.01,0
				c-0.01,0-0.02,0-0.02,0c-0.54,0-0.98,0.4-0.98,0.9c0,0.5,0.44,0.9,0.98,0.9c0.54,0,0.98-0.4,0.98-0.9c0-0.05-0.01-0.11-0.02-0.16
				h1.96c-0.01,0.05-0.02,0.1-0.02,0.16c0,0.5,0.44,0.9,0.98,0.9c0.54,0,0.98-0.4,0.98-0.9C72.83,48.56,72.39,48.16,71.85,48.16z"/>
			<polygon id="XMLID_405_" class="st52" points="71.47,50.93 69.91,50.93 68.35,50.93 68.01,72.79 69.91,72.79 71.82,72.79 			"/>
			<rect id="XMLID_404_" x="68.71" y="51.29" class="st45" width="0.35" height="21.17"/>
			<rect id="XMLID_403_" x="69.39" y="51.29" class="st45" width="0.35" height="21.17"/>
			<rect id="XMLID_402_" x="70.08" y="51.29" class="st45" width="0.35" height="21.17"/>
			<rect id="XMLID_401_" x="70.77" y="51.29" class="st45" width="0.35" height="21.17"/>
			<g id="XMLID_392_">
				<path id="XMLID_399_" class="st50" d="M68.45,49.06c0,0.24-0.22,0.44-0.48,0.44c-0.27,0-0.48-0.2-0.48-0.44
					c0-0.24,0.22-0.44,0.48-0.44C68.24,48.62,68.45,48.82,68.45,49.06z"/>
				<path id="XMLID_398_" class="st50" d="M72.29,49.06c0,0.24-0.22,0.44-0.48,0.44c-0.27,0-0.48-0.2-0.48-0.44
					c0-0.24,0.22-0.44,0.48-0.44C72.08,48.62,72.29,48.82,72.29,49.06z"/>
			</g>
			<polygon id="XMLID_391_" class="st53" points="67.67,46.96 67.67,47.73 67.95,47.92 67.95,47.92 67.95,48.01 67.95,48.18 
				71.91,48.18 71.91,48.01 71.91,47.92 72.19,47.73 72.19,46.96 			"/>
			<rect id="XMLID_389_" x="67.54" y="72.79" class="st50" width="4.74" height="0.5"/>
			<rect id="XMLID_382_" x="67.29" y="73.28" class="st53" width="5.21" height="1.41"/>
			<rect id="XMLID_377_" x="68.04" y="50.6" class="st53" width="3.74" height="0.34"/>
		</g>
		<g id="XMLID_101_">
			<rect id="XMLID_426_" x="55.41" y="48.9" class="st54" width="4.16" height="1.69"/>
			<rect id="XMLID_425_" x="55.41" y="48.9" class="st53" width="4.16" height="1.12"/>
			<path id="XMLID_424_" class="st55" d="M58.44,49.06c0-0.05,0.01-0.11,0.02-0.16H56.5c0.01,0.05,0.02,0.1,0.02,0.16
				c0,0.45-0.36,0.82-0.83,0.89c0.05,0.01,0.09,0.01,0.14,0.01c0.46,0,0.83-0.34,0.83-0.76c0-0.05-0.01-0.09-0.01-0.13h1.66
				c-0.01,0.04-0.01,0.09-0.01,0.13c0,0.42,0.37,0.76,0.83,0.76c0.05,0,0.1,0,0.14-0.01C58.8,49.88,58.44,49.51,58.44,49.06z"/>
			<path id="XMLID_423_" class="st26" d="M59.42,48.16L59.42,48.16L59.42,48.16h-3.85c0,0-0.01,0-0.01,0c-0.01,0-0.01,0-0.02,0
				c-0.54,0-0.98,0.4-0.98,0.9c0,0.5,0.44,0.9,0.98,0.9c0.54,0,0.98-0.4,0.98-0.9c0-0.05-0.01-0.11-0.02-0.16h1.96
				c-0.01,0.05-0.02,0.1-0.02,0.16c0,0.5,0.44,0.9,0.98,0.9c0.54,0,0.98-0.4,0.98-0.9C60.39,48.56,59.96,48.16,59.42,48.16z"/>
			<polygon id="XMLID_422_" class="st52" points="59.04,50.93 57.48,50.93 55.91,50.93 55.57,72.79 57.48,72.79 59.38,72.79 			"/>
			<rect id="XMLID_421_" x="56.27" y="51.29" class="st45" width="0.35" height="21.16"/>
			<rect id="XMLID_420_" x="56.96" y="51.29" class="st45" width="0.35" height="21.16"/>
			<rect id="XMLID_419_" x="57.64" y="51.29" class="st45" width="0.35" height="21.16"/>
			<rect id="XMLID_418_" x="58.33" y="51.29" class="st45" width="0.35" height="21.16"/>
			<g id="XMLID_415_">
				<path id="XMLID_417_" class="st50" d="M56.02,49.06c0,0.24-0.22,0.44-0.48,0.44c-0.27,0-0.48-0.2-0.48-0.44
					c0-0.24,0.22-0.44,0.48-0.44C55.8,48.62,56.02,48.82,56.02,49.06z"/>
				<path id="XMLID_416_" class="st50" d="M59.85,49.06c0,0.24-0.22,0.44-0.48,0.44c-0.27,0-0.48-0.2-0.48-0.44
					c0-0.24,0.22-0.44,0.48-0.44C59.64,48.62,59.85,48.82,59.85,49.06z"/>
			</g>
			<polygon id="XMLID_414_" class="st53" points="55.23,46.96 55.23,47.73 55.51,47.92 55.51,47.92 55.51,48.01 55.51,48.18 
				59.47,48.18 59.47,48.01 59.47,47.92 59.75,47.73 59.75,46.96 			"/>
			<rect id="XMLID_413_" x="55.11" y="72.79" class="st50" width="4.74" height="0.5"/>
			<rect id="XMLID_412_" x="54.85" y="73.28" class="st53" width="5.21" height="1.41"/>
			<rect id="XMLID_411_" x="55.6" y="50.6" class="st53" width="3.74" height="0.34"/>
		</g>
	</g>
</g>
</svg>
