<?xml version="1.0" encoding="utf-8"?>
<!-- Generator: Adobe Illustrator 26.0.2, SVG Export Plug-In . SVG Version: 6.00 Build 0)  -->
<svg version="1.1" id="Camada_1" xmlns="http://www.w3.org/2000/svg" xmlns:xlink="http://www.w3.org/1999/xlink" x="0px" y="0px"
	 viewBox="0 0 100 100" style="enable-background:new 0 0 100 100;" xml:space="preserve">
<style type="text/css">
	.st0{fill:#EF791A;}
	.st1{fill-rule:evenodd;clip-rule:evenodd;fill:#EF791A;}
	.st2{clip-path:url(#SVGID_00000053521519187726510250000004735926367498273194_);}
	.st3{fill:#E41513;}
	.st4{fill:#FFFFFF;}
	.st5{clip-path:url(#SVGID_00000121964499249086877920000003062165585305990070_);}
	.st6{fill-rule:evenodd;clip-rule:evenodd;fill:#FAEA26;}
	.st7{fill-rule:evenodd;clip-rule:evenodd;fill:#1E5DA9;}
	.st8{fill:#623E91;}
	.st9{fill:#01498F;}
	.st10{fill:#FFE512;}
	.st11{fill:#CF1B30;}
	.st12{fill-rule:evenodd;clip-rule:evenodd;fill:#076DB6;}
	.st13{fill-rule:evenodd;clip-rule:evenodd;fill:#F6A13F;}
	.st14{fill:#384797;}
	.st15{fill-rule:evenodd;clip-rule:evenodd;fill:#2CA948;}
	.st16{fill:#273269;}
	.st17{fill:#51B3E6;}
	.st18{fill-rule:evenodd;clip-rule:evenodd;fill:#010202;}
	.st19{fill:#010202;}
	.st20{fill:#DCE063;}
	.st21{fill:#A8D8D8;}
	.st22{fill:#F5DF40;}
	.st23{fill-rule:evenodd;clip-rule:evenodd;fill:#222C56;}
</style>
<g>
	<g id="inter">
		<g id="banco-inter-logo-2020" transform="translate(-43.087 -207.845)">
			<path id="path2" class="st0" d="M53.56,245.33c0,0.04,0,0.1,0,0.21v0.4c0,0.11,0,0.16,0,0.21c0.09,1.39,1.24,2.47,2.63,2.48
				c0.05,0,0.11,0,0.22,0s0.17,0,0.22,0c1.39-0.01,2.54-1.09,2.63-2.48c0-0.04,0-0.1,0-0.21v-0.4c0-0.11,0-0.16,0-0.21
				c-0.09-1.39-1.24-2.47-2.63-2.48c-0.05,0-0.11,0-0.22,0s-0.17,0-0.22,0C54.79,242.86,53.65,243.94,53.56,245.33z M90.87,254.9
				v11.06c0,1.92,0.74,2.79,3.09,2.79c0.86-0.02,1.72-0.18,2.53-0.48v4.46c-1.21,0.34-2.46,0.51-3.71,0.5
				c-4.93,0-7.27-2.47-7.27-6.74v-22.33h5.37v7.1h5.61v3.63L90.87,254.9L90.87,254.9z"/>
			<path id="path4" class="st1" d="M98.31,261.62c0-6.55,4.13-11.02,10.75-11.02c7.07,0,10.57,5.16,10.2,12.63h-15.43
				c0.28,3.84,2.08,5.78,5.27,5.78c2.7,0,4.12-1.3,4.74-3.14h5.24c-1.02,4.51-4.59,7.35-10.02,7.35c-6.7,0-10.75-4.42-10.75-11.06
				L98.31,261.62L98.31,261.62z M109.01,254.9c-2.94,0-4.7,1.57-5.19,4.7l10.04-0.08C113.57,256.6,111.99,254.9,109.01,254.9z"/>
			<path id="path6" class="st0" d="M74.73,250.61c-2.81-0.04-5.39,1.54-6.65,4.05l-0.25-3.39h-5.12v21.3h5.37V260.6
				c0-3.53,1.87-5.7,4.71-5.7s3.88,1.87,3.88,5.12v12.55h5.37v-13.7C82.05,254.11,79.98,250.61,74.73,250.61z M127.62,254.65
				c1.21-2.36,3.58-3.9,6.23-4.05c0.43,0,0.86,0.04,1.28,0.12v4.17c-0.52-0.05-1.04-0.08-1.56-0.08c-3.81,0-5.95,2.3-5.95,6.19
				v11.56h-5.37v-21.3h5.2L127.62,254.65L127.62,254.65z M50.09,251.27v3.63h3.63v17.67h5.37v-21.3L50.09,251.27z"/>
		</g>
	</g>
</g>
</svg>
