<?xml version="1.0" encoding="utf-8"?>
<!-- Generator: Adobe Illustrator 26.0.2, SVG Export Plug-In . SVG Version: 6.00 Build 0)  -->
<svg version="1.1" id="Camada_1" xmlns="http://www.w3.org/2000/svg" xmlns:xlink="http://www.w3.org/1999/xlink" x="0px" y="0px"
	 viewBox="0 0 100 100" style="enable-background:new 0 0 100 100;" xml:space="preserve">
<style type="text/css">
	.st0{fill:#EF791A;}
	.st1{fill-rule:evenodd;clip-rule:evenodd;fill:#EF791A;}
	.st2{clip-path:url(#SVGID_00000047033413255911709270000007357393601538081163_);}
	.st3{fill:#E41513;}
	.st4{fill:#FFFFFF;}
	.st5{clip-path:url(#SVGID_00000168799165014294707520000012088254828050958512_);}
	.st6{fill-rule:evenodd;clip-rule:evenodd;fill:#FAEA26;}
	.st7{fill-rule:evenodd;clip-rule:evenodd;fill:#1E5DA9;}
	.st8{fill:#623E91;}
	.st9{fill:#01498F;}
	.st10{fill:#FFE512;}
	.st11{fill:#CF1B30;}
	.st12{fill-rule:evenodd;clip-rule:evenodd;fill:#076DB6;}
	.st13{fill-rule:evenodd;clip-rule:evenodd;fill:#F6A13F;}
	.st14{fill:#384797;}
	.st15{fill-rule:evenodd;clip-rule:evenodd;fill:#2CA948;}
	.st16{fill:#273269;}
	.st17{fill:#51B3E6;}
	.st18{fill-rule:evenodd;clip-rule:evenodd;fill:#010202;}
	.st19{fill:#010202;}
	.st20{fill:#DCE063;}
	.st21{fill:#A8D8D8;}
	.st22{fill:#F5DF40;}
	.st23{fill-rule:evenodd;clip-rule:evenodd;fill:#222C56;}
</style>
<g id="itau">
	<g id="Grupo_4" transform="translate(-5756.995 -2310.998)">
		<path id="path7744" class="st9" d="M5783.96,2326.44h46.08c6.36,0,11.52,5.16,11.52,11.52c0,0,0,0,0,0v46.08
			c0,6.36-5.15,11.51-11.51,11.51c0,0-0.01,0-0.01,0h-46.08c-6.36,0.01-11.52-5.14-11.52-11.5c0,0,0-0.01,0-0.01v-46.08
			C5772.43,2331.6,5777.59,2326.44,5783.96,2326.44C5783.96,2326.44,5783.96,2326.44,5783.96,2326.44"/>
		<g id="Grupo_3" transform="translate(6022.753 2360.552)">
			<path id="path7746" class="st10" d="M-244.56,23.49h5.37V0.44h-5.37V23.49z"/>
			<g id="g7756" transform="translate(21.098 5.272)">
				<path id="path7758" class="st10" d="M-236.2,0.44c-2.46-0.07-4.9,0.5-7.09,1.63l1.01,3.4c1.59-0.88,3.37-1.36,5.18-1.39
					c3.14-0.01,3.81,1.59,3.81,2.4v0.18c-6.97-0.03-11.27,2.23-11.27,6.7c0,2.63,2.08,5.28,5.93,5.28c2.04,0.09,4.01-0.72,5.4-2.22
					h0.05l0.59,1.8h4.37V8C-228.22,3.85-230.26,0.44-236.2,0.44 M-233.14,11.84c0,0.29-0.03,0.58-0.09,0.87
					c-0.01,0.04-0.04,0.16-0.05,0.18l-0.04,0.09c-0.61,1.35-1.96,2.2-3.43,2.19c-1.48,0-2.5-0.77-2.5-2.22
					c0-1.63,1.39-2.46,3.46-2.78c0.53-0.08,1.06-0.13,1.59-0.14c0.34-0.01,0.7-0.02,1.06-0.01L-233.14,11.84z"/>
			</g>
			<g id="g7760" transform="translate(40.466 5.768)">
				<path id="path7762" class="st10" d="M-232.74,0.45v10.12c0.01,0.37-0.05,0.75-0.18,1.1c-0.52,1.33-1.8,2.21-3.24,2.22
					c-2.19,0-3.15-1.61-3.15-4.31V0.44h-5.24v10.1c-0.03,1.17,0.14,2.33,0.49,3.45c0.28,0.87,0.73,1.66,1.33,2.35
					c0.55,0.61,1.25,1.07,2.02,1.35c0.84,0.29,1.72,0.44,2.61,0.43c0.74,0.01,1.49-0.09,2.2-0.3c0.58-0.17,1.13-0.42,1.65-0.73
					c0.43-0.26,0.82-0.57,1.17-0.93c0.27-0.28,0.51-0.57,0.73-0.89l0.68,2.45h4.25V0.45H-232.74z"/>
			</g>
			<g id="g7764" transform="translate(7.968 0.002)">
				<path id="path7766" class="st10" d="M-242.11,0.44v5.77h-2.45v3.94h2.45v7.02c0,2.32,0.47,4.07,1.47,5.13
					c1.13,1.09,2.65,1.67,4.22,1.61c1,0.05,1.99-0.13,2.91-0.51v-4.01c-0.35,0.11-0.73,0.17-1.1,0.15c-1.86,0-2.29-1.16-2.29-3.27
					v-6.12h3.33V6.21h-3.33V0.44H-242.11z"/>
			</g>
			<g id="g7768" transform="translate(47.059)">
				<path id="path7770" class="st10" d="M-241.32,0.44l-3.24,4.66h3.75l4.57-4.66H-241.32z"/>
			</g>
		</g>
	</g>
</g>
</svg>
