<?xml version="1.0" encoding="utf-8"?>
<!-- Generator: Adobe Illustrator 26.0.2, SVG Export Plug-In . SVG Version: 6.00 Build 0)  -->
<svg version="1.1" id="Camada_1" xmlns="http://www.w3.org/2000/svg" xmlns:xlink="http://www.w3.org/1999/xlink" x="0px" y="0px"
	 viewBox="0 0 100 100" style="enable-background:new 0 0 100 100;" xml:space="preserve">
<style type="text/css">
	.st0{fill:#EF791A;}
	.st1{fill-rule:evenodd;clip-rule:evenodd;fill:#EF791A;}
	.st2{clip-path:url(#SVGID_00000078752581538718328830000002814476128679399343_);}
	.st3{fill:#E41513;}
	.st4{fill:#FFFFFF;}
	.st5{clip-path:url(#SVGID_00000066517990684930708640000000664695121741502886_);}
	.st6{fill-rule:evenodd;clip-rule:evenodd;fill:#FAEA26;}
	.st7{fill-rule:evenodd;clip-rule:evenodd;fill:#1E5DA9;}
	.st8{fill:#623E91;}
	.st9{fill:#01498F;}
	.st10{fill:#FFE512;}
	.st11{fill:#CF1B30;}
	.st12{fill-rule:evenodd;clip-rule:evenodd;fill:#076DB6;}
	.st13{fill-rule:evenodd;clip-rule:evenodd;fill:#F6A13F;}
	.st14{fill:#384797;}
	.st15{fill-rule:evenodd;clip-rule:evenodd;fill:#2CA948;}
	.st16{fill:#273269;}
	.st17{fill:#51B3E6;}
	.st18{fill-rule:evenodd;clip-rule:evenodd;fill:#010202;}
	.st19{fill:#010202;}
	.st20{fill:#DCE063;}
	.st21{fill:#A8D8D8;}
	.st22{fill:#F5DF40;}
	.st23{fill-rule:evenodd;clip-rule:evenodd;fill:#222C56;}
</style>
<g id="marcado_pago">
	<g id="layer1-2" transform="translate(206.861 159.518)">
		<g id="Grupo_9" transform="translate(70.837 -14.518)">
			<g id="g1222" transform="translate(0)">
				<path id="path1224" class="st16" d="M-204.35-113.03c0-8.21-10.21-14.91-22.8-14.91c-12.59,0-22.8,6.7-22.8,14.91
					c0,0.21,0,0.8,0,0.87c0,8.71,8.92,15.77,22.8,15.77c13.96,0,22.8-7.06,22.8-15.77V-113.03z"/>
			</g>
			<g id="g1226" transform="translate(0.883 0.88)">
				<path id="path1228" class="st17" d="M-206.11-113.92c0,7.74-9.81,14.02-21.92,14.02c-12.11,0-21.92-6.28-21.92-14.02
					s9.81-14.03,21.92-14.03S-206.11-121.66-206.11-113.92"/>
			</g>
			<g id="g1230" transform="translate(15.388 5.406)">
				<path id="path1232" class="st4" d="M-249.81-122.87c-0.01,0.02-0.23,0.25-0.09,0.43c0.71,0.55,1.64,0.72,2.5,0.45
					c0.84-0.33,1.6-0.82,2.26-1.43c0.76-0.69,1.64-1.25,2.58-1.65c0.61-0.22,1.27-0.24,1.89-0.05c0.63,0.23,1.21,0.57,1.72,1.01
					c1.5,1.13,7.53,6.39,8.57,7.3c3.1-1.35,6.33-2.38,9.64-3.1c-0.59-2.88-2.22-5.44-4.58-7.2c-3.47,1.46-7.72,2.22-11.87,0.19
					c-1.41-0.64-2.94-0.98-4.48-1.02c-3.29,0.08-4.72,1.5-6.23,3.01L-249.81-122.87z"/>
			</g>
			<g id="g1234" transform="translate(1.049 5.772)">
				<path id="path1236" class="st4" d="M-216.28-116.6c-0.07-0.06-7.09-6.21-8.68-7.4c-0.55-0.49-1.24-0.82-1.97-0.93
					c-0.32-0.02-0.63,0.01-0.94,0.09c-0.94,0.35-1.81,0.87-2.57,1.53c-0.72,0.68-1.57,1.21-2.51,1.55
					c-0.94,0.19-1.92,0.05-2.76-0.42c-0.2-0.12-0.35-0.29-0.46-0.5c-0.11-0.33-0.02-0.69,0.23-0.92l1.94-2.09
					c0.22-0.22,0.45-0.45,0.69-0.67c-0.6,0.09-1.19,0.23-1.77,0.4c-0.67,0.22-1.36,0.35-2.06,0.39c-0.71-0.07-1.41-0.18-2.1-0.33
					c-1.92-0.5-3.79-1.17-5.59-2.02c-2.58,1.75-4.42,4.4-5.13,7.44c0.4,0.11,1.03,0.29,1.3,0.35c6.24,1.39,8.17,2.81,8.53,3.11
					c0.39-0.44,0.95-0.7,1.54-0.7c0.67,0,1.3,0.33,1.69,0.88c0.42-0.34,0.94-0.52,1.49-0.52c0.3,0,0.61,0.05,0.89,0.15
					c0.56,0.18,1.02,0.59,1.25,1.14c0.27-0.13,0.57-0.19,0.87-0.19c0.36,0,0.71,0.08,1.04,0.23c0.94,0.44,1.44,1.47,1.22,2.48
					c0.08-0.01,0.17-0.01,0.25-0.01c1.36,0,2.47,1.1,2.47,2.47c0,0.41-0.1,0.81-0.29,1.17c0.64,0.39,1.39,0.59,2.14,0.57
					c0.38,0,0.75-0.16,1.01-0.44c0.06-0.09,0.13-0.19,0.07-0.26l-1.76-1.95c0,0-0.29-0.27-0.2-0.38c0.09-0.11,0.28,0.05,0.41,0.15
					c0.89,0.75,1.99,1.88,1.99,1.88c0.02,0.01,0.09,0.15,0.49,0.23c0.49,0.09,0.99-0.03,1.39-0.32c0.11-0.09,0.21-0.2,0.31-0.31
					c0,0.01-0.01,0.01-0.01,0.02c0.25-0.35,0.23-0.83-0.05-1.16l-2.05-2.3c0,0-0.3-0.28-0.2-0.39c0.09-0.09,0.28,0.05,0.41,0.16
					c0.65,0.54,1.57,1.47,2.45,2.33c0.6,0.41,1.4,0.38,1.97-0.07c0.47-0.26,0.75-0.76,0.73-1.29c-0.05-0.33-0.2-0.63-0.43-0.86
					l-2.8-2.82c0,0-0.3-0.25-0.19-0.38c0.09-0.11,0.28,0.05,0.4,0.15c0.89,0.75,3.31,2.96,3.31,2.96c0.58,0.37,1.33,0.36,1.9-0.04
					c0.36-0.21,0.6-0.58,0.63-1C-215.79-115.89-215.96-116.31-216.28-116.6"/>
			</g>
			<g id="g1238" transform="translate(10.89 16.529)">
				<path id="path1240" class="st4" d="M-239.72-123.79c-0.33,0.05-0.65,0.12-0.97,0.22c-0.03-0.02,0.03-0.2,0.07-0.3
					s0.61-1.82-0.78-2.42c-0.64-0.35-1.43-0.23-1.95,0.29c-0.06,0.06-0.09,0.06-0.09-0.02c-0.02-0.66-0.45-1.23-1.08-1.43
					c-0.89-0.27-1.86,0.07-2.38,0.85c-0.1-0.76-0.74-1.33-1.51-1.33c-0.85,0-1.53,0.68-1.53,1.53c0,0.84,0.69,1.53,1.53,1.53l0,0
					c0.39,0,0.77-0.15,1.06-0.43c0.01,0.01,0.01,0.02,0.01,0.05c-0.21,0.97,0.33,1.96,1.26,2.31c0.5,0.19,1.06,0.1,1.48-0.23
					c0.12-0.08,0.14-0.05,0.12,0.07c-0.08,0.71,0.38,1.37,1.08,1.54c0.54,0.27,1.19,0.14,1.6-0.3c0.14-0.12,0.17-0.1,0.18,0.09
					c0.04,1.03,0.89,1.84,1.92,1.84c1.06,0,1.92-0.86,1.92-1.92C-237.8-122.92-238.66-123.78-239.72-123.79"/>
			</g>
			<g id="g1242" transform="translate(0.917 4.676)">
				<path id="path1244" class="st16" d="M-229.75-108.22c-0.96,0.01-1.74-0.75-1.78-1.7c0-0.08-0.01-0.3-0.19-0.3
					c-0.08,0.01-0.16,0.05-0.22,0.11c-0.23,0.24-0.54,0.39-0.88,0.4c-0.2,0-0.4-0.05-0.58-0.12c-1.02-0.41-1.03-1.11-0.99-1.39
					c0.02-0.07,0.01-0.15-0.04-0.21l-0.06-0.06h-0.06c-0.07,0-0.13,0.03-0.18,0.07c-0.25,0.19-0.55,0.3-0.86,0.31
					c-0.17,0-0.33-0.03-0.48-0.09c-0.88-0.33-1.38-1.25-1.17-2.17c0.01-0.07-0.01-0.13-0.06-0.18l-0.1-0.08l-0.09,0.09
					c-0.26,0.25-0.6,0.39-0.96,0.39c-0.77,0-1.39-0.63-1.39-1.39c0.01-0.77,0.63-1.39,1.39-1.39c0.7,0,1.29,0.52,1.37,1.22
					l0.05,0.37l0.2-0.32c0.37-0.54,0.97-0.87,1.62-0.89c0.2,0,0.41,0.04,0.6,0.1c0.58,0.18,0.98,0.71,0.99,1.31
					c0.02,0.18,0.14,0.19,0.17,0.19c0.06,0,0.12-0.04,0.16-0.08c0.27-0.28,0.64-0.44,1.02-0.43c0.26,0,0.52,0.06,0.77,0.17
					c1.31,0.56,0.72,2.23,0.71,2.24c-0.11,0.28-0.12,0.4-0.01,0.47l0.05,0.03h0.04c0.09-0.01,0.17-0.03,0.25-0.07
					c0.22-0.09,0.46-0.14,0.7-0.15l0,0c0.98,0,1.78,0.8,1.79,1.78C-227.96-109.02-228.76-108.22-229.75-108.22 M-215.87-116.24
					c-2.16-1.89-7.16-6.24-8.52-7.25c-0.52-0.44-1.12-0.79-1.76-1.03c-0.28-0.09-0.57-0.13-0.87-0.13c-0.37,0.01-0.74,0.07-1.1,0.18
					c-0.95,0.39-1.83,0.95-2.59,1.64l-0.04,0.03c-0.64,0.6-1.39,1.08-2.21,1.41c-0.27,0.06-0.54,0.09-0.82,0.09
					c-0.56,0.05-1.11-0.13-1.54-0.5c-0.04-0.05-0.01-0.13,0.07-0.24l0.01-0.02l1.9-2.05c1.49-1.49,2.9-2.9,6.14-2.97
					c0.05,0,0.11,0,0.16,0c1.47,0.06,2.92,0.41,4.26,1.01c1.8,0.9,3.79,1.38,5.81,1.4c2.21-0.04,4.39-0.56,6.38-1.53
					c-0.25-0.21-0.51-0.41-0.77-0.61c-1.76,0.81-3.67,1.24-5.6,1.27c-1.89-0.02-3.74-0.46-5.43-1.31c-1.46-0.67-3.03-1.04-4.64-1.1
					c-0.06,0-0.12,0-0.18,0c-1.93-0.03-3.81,0.64-5.29,1.88c-0.9,0.05-1.78,0.21-2.64,0.48c-0.6,0.2-1.23,0.32-1.86,0.36
					c-0.24,0-0.67-0.02-0.7-0.02c-2.28-0.4-4.52-1.02-6.68-1.85c-0.27,0.19-0.54,0.39-0.79,0.6c2.33,0.97,4.76,1.67,7.24,2.09
					c0.3,0.02,0.61,0.06,0.93,0.06c0.71-0.03,1.42-0.17,2.1-0.39c0.4-0.12,0.85-0.24,1.32-0.33l-0.37,0.37l-1.93,2.09
					c-0.3,0.27-0.41,0.69-0.26,1.07c0.11,0.23,0.29,0.43,0.51,0.56c0.62,0.35,1.33,0.53,2.05,0.52c0.28,0,0.55-0.03,0.82-0.09
					c0.95-0.34,1.82-0.88,2.56-1.57c0.75-0.64,1.6-1.15,2.52-1.51c0.23-0.06,0.46-0.09,0.7-0.09c0.06,0,0.12,0,0.18,0.01
					c0.71,0.12,1.37,0.43,1.91,0.91c1.59,1.19,8.61,7.33,8.68,7.4c0.28,0.27,0.44,0.64,0.42,1.03c-0.03,0.37-0.24,0.71-0.56,0.9
					c-0.27,0.18-0.59,0.27-0.92,0.28c-0.29,0-0.57-0.08-0.81-0.24c-0.03-0.02-2.43-2.23-3.32-2.97c-0.11-0.12-0.26-0.2-0.41-0.22
					c-0.07,0-0.14,0.03-0.19,0.09c-0.14,0.17,0.02,0.41,0.2,0.57l2.81,2.82c0.21,0.21,0.34,0.47,0.39,0.76
					c0.02,0.48-0.24,0.93-0.67,1.16c-0.29,0.21-0.64,0.32-1,0.33c-0.29,0-0.56-0.09-0.8-0.25l-0.4-0.39
					c-0.74-0.73-1.5-1.48-2.05-1.94c-0.11-0.12-0.26-0.19-0.42-0.22c-0.07,0-0.13,0.03-0.18,0.08c-0.06,0.07-0.11,0.2,0.05,0.41
					c0.04,0.06,0.09,0.11,0.14,0.16l2.05,2.3c0.24,0.28,0.26,0.69,0.04,0.98l-0.07,0.09c-0.06,0.07-0.13,0.13-0.19,0.18
					c-0.29,0.21-0.64,0.32-1,0.32c-0.09,0-0.19-0.01-0.28-0.02c-0.15-0.01-0.29-0.07-0.4-0.17l-0.02-0.03
					c-0.11-0.11-1.15-1.17-2-1.88c-0.11-0.11-0.25-0.19-0.4-0.21c-0.07,0-0.14,0.03-0.18,0.08c-0.17,0.19,0.08,0.46,0.19,0.56
					l1.75,1.93c-0.02,0.04-0.04,0.08-0.07,0.12c-0.06,0.09-0.27,0.3-0.91,0.38c-0.08,0.01-0.16,0.01-0.23,0.01
					c-0.6-0.04-1.19-0.21-1.72-0.51c0.17-0.35,0.25-0.72,0.25-1.11c0-1.44-1.17-2.61-2.61-2.61c-0.03,0-0.06,0-0.1,0
					c0.16-1.02-0.38-2.02-1.32-2.45c-0.34-0.15-0.72-0.24-1.09-0.24c-0.27,0-0.54,0.05-0.8,0.15c-0.26-0.52-0.72-0.91-1.28-1.08
					c-0.3-0.11-0.62-0.16-0.94-0.17c-0.52,0-1.03,0.16-1.46,0.47c-0.42-0.52-1.05-0.82-1.72-0.83c-0.58,0-1.14,0.23-1.56,0.64
					c-0.54-0.42-2.7-1.79-8.48-3.1c-0.28-0.06-0.92-0.25-1.32-0.36c-0.07,0.31-0.11,0.63-0.15,0.95c0,0,1.07,0.26,1.28,0.3
					c5.9,1.31,7.86,2.68,8.19,2.93c-0.11,0.27-0.17,0.56-0.17,0.85c0,1.22,0.99,2.21,2.21,2.22c0.14,0,0.27-0.01,0.4-0.04
					c0.18,0.89,0.81,1.62,1.67,1.93c0.25,0.1,0.52,0.15,0.79,0.15c0.17,0,0.34-0.02,0.5-0.06c0.26,0.6,0.75,1.07,1.37,1.28
					c0.28,0.11,0.57,0.17,0.87,0.18c0.23,0,0.46-0.04,0.68-0.12c0.4,0.98,1.35,1.62,2.41,1.62c0.7,0,1.38-0.29,1.87-0.79
					c0.67,0.39,1.43,0.62,2.21,0.66c0.11,0,0.22-0.01,0.34-0.02c0.58-0.02,1.13-0.28,1.5-0.73c0.03-0.05,0.06-0.1,0.09-0.15
					c0.23,0.07,0.47,0.11,0.71,0.11c0.52-0.01,1.02-0.19,1.43-0.51c0.43-0.28,0.73-0.73,0.84-1.23c0-0.01,0-0.01,0-0.02
					c0.16,0.03,0.32,0.05,0.48,0.05c0.52-0.01,1.04-0.17,1.47-0.46c0.67-0.39,1.07-1.11,1.05-1.89c0.16,0.03,0.32,0.05,0.48,0.05
					c0.49-0.01,0.97-0.15,1.37-0.42c0.55-0.33,0.91-0.91,0.96-1.55c0.04-0.44-0.07-0.88-0.3-1.26c2.95-1.2,6-2.16,9.11-2.85
					c-0.03-0.32-0.07-0.63-0.13-0.94C-209.57-118.63-212.78-117.59-215.87-116.24"/>
			</g>
		</g>
		<g id="Grupo_11" transform="translate(57.139 19.766)">
			<g id="g1246" transform="translate(61.946 3.015)">
				<path id="path1248" class="st16" d="M-243.26-120.48c-0.4,0.54-1.05,0.84-1.72,0.8c-0.67,0.03-1.31-0.27-1.72-0.8
					c-0.44-0.67-0.65-1.46-0.6-2.26c-0.05-0.8,0.16-1.59,0.6-2.25c0.41-0.53,1.05-0.83,1.72-0.79c0.67-0.04,1.31,0.26,1.72,0.79
					c0.44,0.67,0.65,1.46,0.6,2.25C-242.61-121.94-242.82-121.15-243.26-120.48 M-241.22-126.4c-0.93-1.08-2.32-1.65-3.75-1.54
					c-1.42-0.11-2.81,0.47-3.75,1.54c-0.83,1.04-1.26,2.33-1.24,3.65c-0.03,1.33,0.4,2.63,1.24,3.67c0.94,1.07,2.33,1.63,3.75,1.52
					c1.42,0.11,2.81-0.46,3.75-1.52c0.83-1.04,1.27-2.34,1.23-3.67C-239.96-124.07-240.39-125.36-241.22-126.4"/>
			</g>
			<g id="g1250" transform="translate(42.25 3.063)">
				<path id="path1252" class="st16" d="M-243.85-121.73c0.06,0.67-0.21,1.34-0.73,1.77c-0.45,0.32-0.99,0.49-1.54,0.49
					c-0.32,0.01-0.64-0.09-0.9-0.29c-0.27-0.24-0.4-0.59-0.37-0.95c-0.02-0.45,0.21-0.87,0.6-1.09c0.37-0.18,0.77-0.3,1.18-0.35
					l0.58-0.11c0.23-0.04,0.46-0.1,0.68-0.18c0.18-0.06,0.34-0.15,0.5-0.25L-243.85-121.73z M-242.55-127.31
					c-0.89-0.44-1.87-0.66-2.87-0.64c-1.3-0.14-2.6,0.34-3.5,1.29c-0.45,0.61-0.7,1.35-0.72,2.11h2.47c0.04-0.33,0.16-0.64,0.36-0.9
					c0.35-0.33,0.82-0.5,1.3-0.45c0.43-0.02,0.85,0.05,1.24,0.23c0.29,0.17,0.46,0.49,0.42,0.83c-0.01,0.34-0.23,0.63-0.55,0.73
					c-0.33,0.12-0.67,0.2-1.02,0.23l-0.88,0.11c-0.79,0.07-1.55,0.28-2.26,0.63c-0.93,0.53-1.47,1.54-1.4,2.61
					c-0.05,0.81,0.27,1.6,0.87,2.15c0.62,0.5,1.4,0.77,2.21,0.76c5.58,0.25,5.52-2.94,5.58-3.61v-3.67
					C-241.19-125.88-241.69-126.82-242.55-127.31"/>
			</g>
			<g id="g1254" transform="translate(31.981 3.094)">
				<path id="path1256" class="st16" d="M-245.01-125.78c0.54-0.04,1.06,0.18,1.41,0.59c0.21,0.29,0.34,0.63,0.39,0.98h2.75
					c-0.02-1.14-0.56-2.21-1.46-2.91c-0.95-0.58-2.05-0.87-3.17-0.82c-1.34-0.07-2.64,0.44-3.57,1.4c-0.91,1.09-1.38,2.48-1.29,3.9
					c-0.06,1.31,0.36,2.59,1.17,3.62c0.94,1,2.28,1.51,3.65,1.39c1.45,0.1,2.85-0.53,3.75-1.67c0.5-0.63,0.81-1.4,0.89-2.2h-2.74
					c-0.03,0.46-0.2,0.89-0.48,1.25c-0.35,0.36-0.84,0.53-1.34,0.48c-0.81,0.05-1.56-0.45-1.81-1.22c-0.2-0.55-0.29-1.14-0.27-1.72
					c-0.02-0.61,0.07-1.22,0.27-1.8C-246.62-125.3-245.85-125.83-245.01-125.78"/>
			</g>
			<g id="g1258" transform="translate(25.916 3.094)">
				<path id="path1260" class="st16" d="M-244.62-127.94c-5.66,0-5.32,5.01-5.32,5.01v5.09h2.57v-4.78
					c-0.03-0.59,0.07-1.19,0.3-1.74c0.43-0.71,1.24-1.1,2.07-1c0.08,0,0.18,0,0.3,0.01c0.12,0.01,0.27,0.02,0.43,0.03v-2.61
					c-0.11-0.01-0.18-0.01-0.22-0.02C-244.54-127.94-244.57-127.94-244.62-127.94"/>
			</g>
			<g id="g1262" transform="translate(15.055 3.094)">
				<path id="path1264" class="st16" d="M-246.64-125.28c0.41-0.39,0.96-0.59,1.52-0.56c0.55-0.02,1.09,0.17,1.51,0.52
					c0.43,0.4,0.67,0.96,0.68,1.54h-4.39C-247.26-124.33-247.02-124.86-246.64-125.28 M-243.19-120.5c-0.1,0.15-0.22,0.28-0.35,0.39
					c-0.42,0.29-0.93,0.43-1.43,0.39c-0.48,0.03-0.95-0.09-1.37-0.33c-0.68-0.45-1.08-1.22-1.04-2.04h7.1
					c0.02-0.65-0.01-1.29-0.08-1.94c-0.1-0.72-0.37-1.41-0.78-2.02c-0.41-0.63-1-1.13-1.69-1.44c-0.72-0.31-1.5-0.47-2.29-0.45
					c-1.3-0.05-2.56,0.44-3.49,1.35c-0.96,1.06-1.44,2.46-1.35,3.89c-0.14,1.46,0.41,2.9,1.49,3.9c0.97,0.79,2.19,1.22,3.44,1.2
					c1.37,0.08,2.72-0.43,3.68-1.42c0.42-0.41,0.73-0.92,0.89-1.48H-243.19z"/>
			</g>
			<g id="g1266" transform="translate(0 3.061)">
				<path id="path1268" class="st16" d="M-235.93-117.81h-2.34v-5.9c0.1-0.91-0.56-1.72-1.46-1.81c-0.09-0.01-0.17-0.01-0.26-0.01
					c-0.95-0.03-1.75,0.72-1.78,1.67c0,0.05,0,0.1,0,0.15v5.9h-2.35v-5.9c0.11-0.9-0.53-1.71-1.43-1.81
					c-0.09-0.01-0.18-0.01-0.28-0.01c-0.95-0.04-1.75,0.7-1.78,1.65c0,0.06,0,0.11,0,0.17v5.9h-2.35v-5.85
					c-0.14-2.22,1.54-4.13,3.76-4.27c0.12-0.01,0.24-0.01,0.37-0.01c1.13-0.03,2.21,0.47,2.92,1.36c0.72-0.87,1.79-1.37,2.91-1.36
					c2.56,0,4.07,1.77,4.07,4.28L-235.93-117.81z"/>
			</g>
			<g id="g1270" transform="translate(51.681)">
				<path id="path1272" class="st16" d="M-243.53-117.45c-0.37,0.54-0.99,0.84-1.65,0.81c-0.64,0.04-1.26-0.27-1.62-0.81
					c-0.38-0.68-0.57-1.45-0.53-2.23c-0.03-0.74,0.15-1.46,0.52-2.1c0.35-0.56,0.98-0.89,1.64-0.84c0.47-0.01,0.93,0.16,1.29,0.47
					c0.66,0.7,0.99,1.66,0.9,2.62C-242.93-118.79-243.13-118.07-243.53-117.45 M-240.45-127.93c0,0-2.59-0.28-2.59,1.8v2.75
					c-0.27-0.45-0.66-0.82-1.12-1.08c-0.48-0.27-1.02-0.4-1.57-0.39c-1.19-0.04-2.34,0.49-3.07,1.43c-0.82,1.16-1.23,2.57-1.15,4
					c-0.05,1.28,0.36,2.54,1.17,3.55c0.99,0.92,2.31,1.4,3.66,1.32c4.73,0,4.67-4.05,4.67-4.05L-240.45-127.93z"/>
			</g>
		</g>
		<g id="Grupo_10" transform="translate(73.148 37.026)">
			<g id="g1274" transform="translate(0 0.064)">
				<path id="path1276" class="st17" d="M-243.08-122.73c0.05-0.79-0.15-1.57-0.57-2.23c-0.37-0.52-0.98-0.82-1.62-0.78
					c-0.63-0.02-1.22,0.27-1.58,0.78c-0.4,0.67-0.59,1.45-0.53,2.23c-0.06,0.75,0.14,1.5,0.57,2.12c0.37,0.52,0.98,0.82,1.62,0.78
					c0.62,0.02,1.2-0.28,1.55-0.78C-243.24-121.24-243.04-121.98-243.08-122.73 M-247.38-115.79c0,0.35-0.15,0.69-0.41,0.92
					c-0.25,0.22-0.58,0.35-0.91,0.34h-1.24v-8.92c-0.11-1.37,0.47-2.7,1.54-3.56c1.13-0.78,2.52-1.12,3.88-0.93
					c1.09,0.04,2.12,0.53,2.83,1.37c0.85,1.05,1.28,2.37,1.21,3.72c0.06,1.36-0.33,2.69-1.13,3.8c-0.69,0.91-1.77,1.44-2.91,1.42
					c-0.57,0.01-1.14-0.1-1.66-0.33c-0.51-0.25-0.93-0.66-1.21-1.15L-247.38-115.79z"/>
			</g>
			<g id="g1278" transform="translate(19.733 0.027)">
				<path id="path1280" class="st17" d="M-247.43-122.69c0,1.71,0.49,2.66,1.48,2.85c0.8,0.25,1.67-0.03,2.19-0.69
					c0.27-0.38,0.43-0.82,0.48-1.28c0.1-0.57,0.1-1.16,0.02-1.73c-0.08-0.55-0.29-1.08-0.62-1.53c-0.32-0.45-0.85-0.7-1.4-0.67
					c-0.7-0.07-1.38,0.3-1.7,0.93C-247.29-124.15-247.44-123.43-247.43-122.69 M-243.21-118.42v-0.63c-0.4,0.66-1.05,1.13-1.8,1.3
					c-0.75,0.17-1.53,0.11-2.24-0.19c-0.79-0.34-1.46-0.92-1.91-1.65c-0.57-0.96-0.85-2.07-0.8-3.18c-0.06-1.33,0.31-2.64,1.06-3.74
					c0.84-0.99,2.1-1.53,3.39-1.43c1.18-0.11,2.36,0.24,3.3,0.97c1.07,0.86,1.64,2.2,1.52,3.57v5.25c0.08,2.42-1.82,4.44-4.23,4.52
					c-0.19,0.01-0.39,0-0.58-0.02c-1.99,0.06-3.74-1.27-4.22-3.2h2.7c0.21,0.36,0.53,0.64,0.91,0.8c0.38,0.18,0.81,0.24,1.22,0.15
					c0.44-0.11,0.84-0.37,1.12-0.72C-243.4-117.15-243.2-117.77-243.21-118.42"/>
			</g>
			<g id="g1282" transform="translate(10.141 0.102)">
				<path id="path1284" class="st17" d="M-243.85-121.73c0.06,0.67-0.21,1.34-0.73,1.77c-0.45,0.32-0.99,0.49-1.54,0.49
					c-0.32,0.01-0.64-0.1-0.9-0.29c-0.27-0.24-0.4-0.59-0.37-0.95c-0.02-0.45,0.21-0.87,0.61-1.09c0.37-0.18,0.77-0.3,1.17-0.35
					l0.58-0.11c0.23-0.04,0.46-0.1,0.68-0.18c0.18-0.06,0.34-0.15,0.5-0.25L-243.85-121.73z M-242.55-127.31
					c-0.89-0.44-1.87-0.65-2.87-0.64c-1.3-0.14-2.6,0.34-3.5,1.29c-0.45,0.61-0.7,1.35-0.72,2.11h2.47c0.04-0.33,0.16-0.64,0.36-0.9
					c0.35-0.33,0.82-0.5,1.3-0.45c0.43-0.03,0.85,0.05,1.24,0.23c0.29,0.17,0.46,0.49,0.42,0.83c-0.01,0.34-0.23,0.63-0.55,0.73
					c-0.33,0.12-0.67,0.19-1.02,0.22l-0.87,0.11c-0.79,0.07-1.55,0.28-2.26,0.63c-0.93,0.53-1.47,1.54-1.4,2.61
					c-0.05,0.81,0.27,1.6,0.86,2.15c0.63,0.5,1.41,0.77,2.21,0.76c5.58,0.25,5.52-2.94,5.57-3.61v-3.67
					C-241.19-125.88-241.69-126.83-242.55-127.31"/>
			</g>
			<g id="g1286" transform="translate(29.975)">
				<path id="path1288" class="st17" d="M-243.26-120.48c-0.4,0.54-1.05,0.84-1.72,0.8c-0.67,0.03-1.31-0.27-1.72-0.8
					c-0.44-0.67-0.66-1.46-0.61-2.26c-0.05-0.8,0.16-1.59,0.61-2.25c0.41-0.53,1.05-0.83,1.72-0.79c0.67-0.04,1.31,0.26,1.72,0.79
					c0.44,0.67,0.65,1.46,0.6,2.25C-242.61-121.94-242.82-121.15-243.26-120.48 M-241.22-126.39c-0.93-1.08-2.33-1.65-3.75-1.55
					c-1.42-0.11-2.81,0.47-3.75,1.55c-0.83,1.04-1.26,2.33-1.24,3.65c-0.03,1.33,0.4,2.63,1.24,3.67c0.94,1.07,2.33,1.63,3.75,1.52
					c1.42,0.11,2.81-0.46,3.75-1.52c0.83-1.04,1.27-2.34,1.23-3.67C-239.96-124.06-240.4-125.36-241.22-126.39"/>
			</g>
		</g>
	</g>
</g>
</svg>
