<?xml version="1.0" encoding="utf-8"?>
<!-- Generator: Adobe Illustrator 26.0.2, SVG Export Plug-In . SVG Version: 6.00 Build 0)  -->
<svg version="1.1" id="Camada_1" xmlns="http://www.w3.org/2000/svg" xmlns:xlink="http://www.w3.org/1999/xlink" x="0px" y="0px"
	 viewBox="0 0 100 100" style="enable-background:new 0 0 100 100;" xml:space="preserve">
<style type="text/css">
	.st0{fill:#EF791A;}
	.st1{fill-rule:evenodd;clip-rule:evenodd;fill:#EF791A;}
	.st2{clip-path:url(#SVGID_00000016795512488368385470000018378883202394414741_);}
	.st3{fill:#E41513;}
	.st4{fill:#FFFFFF;}
	.st5{clip-path:url(#SVGID_00000086650508742482319870000011229494078640708741_);}
	.st6{fill-rule:evenodd;clip-rule:evenodd;fill:#FAEA26;}
	.st7{fill-rule:evenodd;clip-rule:evenodd;fill:#1E5DA9;}
	.st8{fill:#623E91;}
	.st9{fill:#01498F;}
	.st10{fill:#FFE512;}
	.st11{fill:#CF1B30;}
	.st12{fill-rule:evenodd;clip-rule:evenodd;fill:#076DB6;}
	.st13{fill-rule:evenodd;clip-rule:evenodd;fill:#F6A13F;}
	.st14{fill:#384797;}
	.st15{fill-rule:evenodd;clip-rule:evenodd;fill:#2CA948;}
	.st16{fill:#273269;}
	.st17{fill:#51B3E6;}
	.st18{fill-rule:evenodd;clip-rule:evenodd;fill:#010202;}
	.st19{fill:#010202;}
	.st20{fill:#DCE063;}
	.st21{fill:#A8D8D8;}
	.st22{fill:#F5DF40;}
	.st23{fill-rule:evenodd;clip-rule:evenodd;fill:#222C56;}
</style>
<g id="nubank">
	<g id="Grupo_2" transform="translate(338.155 117.098)">
		<path id="path2-2" class="st8" d="M-313.52-84.82c2.52-2.7,6.06-4.22,9.75-4.18c7.62,0,12.68,5.57,13.64,13.9
			c0.29,3.64,0.39,7.29,0.31,10.95c0,0.45,0,0.91,0,1.38v16.56h-10.48v-12.25c0,0-0.02-10.48-0.09-12.44
			c-0.28-8.53-5.33-13.9-13.14-13.9c-2.35,2.49-3.62,5.53-3.8,10.18c-0.03,0.65-0.02,2.95-0.01,5.98c0,1.57,0.01,3.34,0.01,5.17
			c0.01,7.99,0,17.27,0,17.27h-10.49v-18.85c0-0.65-0.01-1.3-0.02-1.95c-0.02-1.32-0.05-2.64,0.02-3.95
			c0.05-2.2,0.57-4.36,1.52-6.34c2.36-4.59,7.07-7.49,12.23-7.53C-313.88-84.83-313.7-84.83-313.52-84.82L-313.52-84.82z"/>
		<path id="path4-2" class="st8" d="M-248.5-63.23c0.07-1.31,0.05-2.64,0.02-3.95c-0.01-0.65-0.02-1.31-0.02-1.95v-18.85h-10.48
			c0,0-0.01,9.29,0,17.27c0,1.83,0.01,3.6,0.01,5.17c0.01,3.03,0.02,5.33-0.01,5.98c-0.19,4.65-1.45,7.69-3.8,10.18
			c-7.8-0.01-12.86-5.37-13.14-13.9c-0.06-1.96-0.09-6.82-0.09-12.45v-12.25l-10.47,0.01v16.56c0,0.47,0,0.93,0,1.38
			c-0.08,3.65,0.02,7.3,0.31,10.95c0.96,8.34,6.02,13.9,13.64,13.9c3.69,0.04,7.23-1.48,9.75-4.18c0.18,0.01,0.36,0.01,0.53,0.01
			c5.16-0.03,9.88-2.94,12.23-7.53C-249.07-58.87-248.55-61.03-248.5-63.23L-248.5-63.23z"/>
	</g>
</g>
</svg>
