<?xml version="1.0" encoding="utf-8"?>
<!-- Generator: Adobe Illustrator 26.0.2, SVG Export Plug-In . SVG Version: 6.00 Build 0)  -->
<svg version="1.1" id="Camada_1" xmlns="http://www.w3.org/2000/svg" xmlns:xlink="http://www.w3.org/1999/xlink" x="0px" y="0px"
	 viewBox="0 0 100 100" style="enable-background:new 0 0 100 100;" xml:space="preserve">
<style type="text/css">
	.st0{fill:#EF791A;}
	.st1{fill-rule:evenodd;clip-rule:evenodd;fill:#EF791A;}
	.st2{clip-path:url(#SVGID_00000059291950891955589470000011238213187853953194_);}
	.st3{fill:#E41513;}
	.st4{fill:#FFFFFF;}
	.st5{clip-path:url(#SVGID_00000045584921163902119360000010280865941832572598_);}
	.st6{fill-rule:evenodd;clip-rule:evenodd;fill:#FAEA26;}
	.st7{fill-rule:evenodd;clip-rule:evenodd;fill:#1E5DA9;}
	.st8{fill:#623E91;}
	.st9{fill:#01498F;}
	.st10{fill:#FFE512;}
	.st11{fill:#CF1B30;}
	.st12{fill-rule:evenodd;clip-rule:evenodd;fill:#076DB6;}
	.st13{fill-rule:evenodd;clip-rule:evenodd;fill:#F6A13F;}
	.st14{fill:#384797;}
	.st15{fill-rule:evenodd;clip-rule:evenodd;fill:#2CA948;}
	.st16{fill:#273269;}
	.st17{fill:#51B3E6;}
	.st18{fill-rule:evenodd;clip-rule:evenodd;fill:#010202;}
	.st19{fill:#010202;}
	.st20{fill:#DCE063;}
	.st21{fill:#A8D8D8;}
	.st22{fill:#F5DF40;}
	.st23{fill-rule:evenodd;clip-rule:evenodd;fill:#222C56;}
</style>
<g id="Grupo_8" transform="translate(-427.946 -1052.915)">
	<g id="Grupo_12" transform="translate(-18 20)">
		<path id="Caminho_1" class="st18" d="M493.91,1107.02l0.73-3.43c0.88,0,2.26-0.12,2.87,0.49c0.22,0.21,0.35,0.5,0.35,0.8
			c0.06,0.81-0.42,1.57-1.18,1.86C495.78,1107.01,494.84,1107.11,493.91,1107.02 M495.71,1102.12h-0.76c0-0.12,0.12-0.62,0.15-0.78
			l0.49-2.36c0.84-0.1,1.68-0.01,2.48,0.24c0.41,0.19,0.64,0.63,0.56,1.07c-0.01,0.62-0.35,1.18-0.9,1.46
			C497.11,1102.05,496.41,1102.18,495.71,1102.12 M491.29,1108.51h3.92c1.8,0,3.77-0.36,4.67-1.76c0.68-1.07,0.78-2.93-0.69-3.66
			c-0.17-0.09-0.35-0.16-0.53-0.22l-0.2-0.06c0.53-0.1,1.03-0.31,1.47-0.62c0.08-0.06,0.12-0.09,0.19-0.15
			c0.13-0.1,0.25-0.22,0.35-0.36c0.28-0.35,0.48-0.77,0.57-1.21c0.18-0.67,0.04-1.38-0.37-1.94c-0.76-0.75-1.81-1.13-2.87-1.03
			h-4.11c-0.08,0-0.07,0.04-0.08,0.11l-0.25,1.21c-0.27,1.36-0.62,2.79-0.89,4.15l-1.03,4.82c-0.03,0.13-0.05,0.21-0.07,0.34
			C491.32,1108.25,491.3,1108.38,491.29,1108.51"/>
		<path id="Caminho_2" class="st18" d="M485.42,1107.12c-0.82,0-1.1-0.49-1.1-1.29c0-1.03,0.36-2.04,1.01-2.84
			c0.6-0.79,1.51-1.29,2.5-1.37h0.32c0.2,0,0.3,0.07,0.46,0.07c0,0.14-0.58,2.43-0.63,2.58c-0.08,0.27-0.18,0.54-0.3,0.8
			c-0.24,0.6-0.61,1.15-1.09,1.59C486.26,1106.94,485.84,1107.1,485.42,1107.12 M484.44,1108.51c0.62,0.01,1.23-0.13,1.78-0.41
			c0.44-0.28,0.84-0.64,1.17-1.05c-0.03,0.17-0.07,0.33-0.12,0.49c-0.04,0.17-0.08,0.35-0.12,0.51c-0.08,0.32-0.19,0.64-0.32,0.94
			c-0.41,0.98-1.35,1.63-2.41,1.68c-0.3,0.02-0.6,0.02-0.9,0c-0.37-0.02-0.73-0.08-1.09-0.18c-0.16-0.05-0.32-0.1-0.47-0.16
			c-0.08-0.03-0.13-0.06-0.22-0.1c-0.07-0.04-0.14-0.07-0.22-0.09c-0.02,0.14-0.05,0.28-0.1,0.41l-0.34,1.22l0.62,0.18
			c1.77,0.48,3.65,0.37,5.35-0.32c0.76-0.4,1.36-1.03,1.73-1.8c0.51-1.16,0.87-2.37,1.08-3.62l0.86-3.84
			c0.04-0.19,0.42-1.78,0.42-1.94c-0.87-0.23-1.76-0.35-2.66-0.37c-0.65,0-1.3,0.09-1.92,0.27c-0.92,0.26-1.78,0.7-2.53,1.3
			c-0.25,0.2-0.49,0.42-0.7,0.66l-0.26,0.3c-0.48,0.6-0.82,1.29-1.01,2.04C481.53,1106.7,482.16,1108.51,484.44,1108.51"/>
		<path id="Caminho_3" class="st18" d="M466.03,1102.81c0.21-0.89,0.39-1.84,0.59-2.74c0.04-0.16,0.19-0.81,0.19-0.93
			c0.98,0,2.36-0.16,2.95,0.76c0.28,0.6,0.24,1.3-0.1,1.87C468.93,1102.89,467.47,1102.81,466.03,1102.81 M462.43,1108.51h2.41
			l0.75-3.54c0.05-0.17,0.08-0.35,0.1-0.53c1.99,0,3.82,0.19,5.34-1.02c0.88-0.72,1.39-1.79,1.39-2.93c0.05-0.62-0.13-1.24-0.5-1.74
			c-0.13-0.19-0.29-0.36-0.47-0.5c-0.18-0.15-0.38-0.28-0.59-0.39c-1.13-0.38-2.33-0.5-3.51-0.36h-2.58
			c-0.02,0.18-1.35,6.33-1.46,6.87c-0.09,0.46-0.2,0.92-0.3,1.38l-0.44,2.05c-0.02,0.1-0.05,0.23-0.07,0.34
			C462.46,1108.26,462.44,1108.38,462.43,1108.51"/>
		<path id="Caminho_4" class="st18" d="M529.47,1100.23L529.47,1100.23l-1.81,1.65c-0.22,0.2-0.58,0.56-0.77,0.71l-1.53,1.39
			c0.3,0.57,0.8,1.4,1.15,2l0.49,0.85c0.31,0.55,0.68,1.14,0.97,1.69h-2.63c-0.07-0.19-0.17-0.38-0.28-0.55l-0.71-1.36l-0.13-0.26
			l-0.42-0.82c-0.1-0.19-0.65-1.27-0.71-1.32c0,0.12-0.19,0.96-0.22,1.1c-0.21,1-0.44,2.25-0.66,3.21c-0.7,0-1.4-0.01-2.1,0
			c-0.29,0-0.21,0-0.16-0.26c0.31-1.56,0.69-3.17,1-4.72l1.45-6.9h2.29c0,0.14-0.49,2.38-0.54,2.63c-0.06,0.28-0.12,0.57-0.18,0.86
			c-0.08,0.38-0.71,3.32-0.72,3.47l3.38-3.22c0.19-0.18,0.09-0.14,0.44-0.14C527.87,1100.23,528.67,1100.23,529.47,1100.23"/>
		<path id="Caminho_5" class="st18" d="M477.99,1106.61L477.99,1106.61C477.99,1106.62,477.99,1106.61,477.99,1106.61
			 M475.87,1107.14c-0.86,0-1.12-0.6-1.12-1.41c0.02-1.02,0.39-2.01,1.04-2.8c0.14-0.17,0.3-0.33,0.47-0.48
			c0.17-0.16,0.36-0.3,0.56-0.41c0.49-0.3,1.05-0.46,1.62-0.45c0.19,0,0.38,0.03,0.56,0.1c-0.02,0.15-0.05,0.3-0.09,0.44
			c-0.18,1-0.46,1.97-0.83,2.92l-0.7,1.17c-0.27,0.36-0.63,0.65-1.05,0.83C476.19,1107.11,476.03,1107.14,475.87,1107.14
			 M474.73,1108.68c0.75,0.04,1.5-0.2,2.09-0.66c0.24-0.19,0.45-0.4,0.64-0.63c0.1-0.12,0.19-0.24,0.27-0.36
			c0.05-0.07,0.08-0.11,0.13-0.19c0.03-0.07,0.08-0.13,0.13-0.19c-0.01,0.16-0.04,0.32-0.08,0.48l-0.19,1.2
			c-0.01,0.11-0.05,0.16,0.07,0.17h2.24c0.03-0.15,0.02-0.39,0.04-0.54l0.05-0.56c0.16-1.39,0.71-3.57,1.01-4.98l0.43-1.98
			c0-0.05-0.17-0.08-0.22-0.1c-0.27-0.07-0.53-0.13-0.81-0.17l-0.85-0.1c-0.88-0.09-1.77-0.03-2.64,0.19
			c-0.94,0.24-1.82,0.69-2.57,1.3c-0.36,0.29-0.68,0.62-0.97,0.98c-0.4,0.5-0.7,1.07-0.91,1.68c-0.06,0.17-0.11,0.34-0.14,0.51
			c-0.07,0.38-0.12,0.77-0.15,1.16c0,0.38,0.05,0.77,0.15,1.14C472.75,1108.05,473.69,1108.73,474.73,1108.68"/>
		<path id="Caminho_6" class="st18" d="M504.9,1107.14c-0.59,0.04-1.11-0.4-1.15-0.99c0-0.07,0-0.13,0-0.2
			c-0.04-0.89,0.2-1.77,0.68-2.51c0.06-0.1,0.11-0.18,0.19-0.28l0.43-0.52c0.24-0.24,0.51-0.45,0.81-0.63
			c0.48-0.29,1.04-0.44,1.6-0.42c0.19,0,0.38,0.03,0.56,0.1c-0.02,0.15-0.06,0.29-0.1,0.44c-0.03,0.15-0.07,0.29-0.1,0.43
			c-0.15,0.85-0.4,1.69-0.73,2.49c-0.32,0.86-0.94,1.57-1.75,2C505.2,1107.1,505.05,1107.13,504.9,1107.14 M501.32,1106.03
			c-0.15,1.31,0.79,2.49,2.1,2.64c0.1,0.01,0.21,0.02,0.31,0.01c0.75,0.04,1.5-0.2,2.09-0.66c0.24-0.18,0.45-0.39,0.64-0.62
			c0.1-0.11,0.19-0.24,0.27-0.36l0.26-0.4c0,0.19-0.29,1.54-0.29,1.88h2.34c0-0.14,0.02-0.16,0.02-0.27
			c0.03-0.63,0.1-1.26,0.22-1.88c0.14-0.68,0.27-1.32,0.43-1.99l0.82-3.69c0.03-0.09,0.04-0.18,0.05-0.27
			c-0.53-0.16-1.08-0.27-1.63-0.32c-0.45-0.03-0.44-0.04-0.93-0.05c-0.11,0-0.14-0.02-0.22-0.02l-0.68,0.05
			c-1.45,0.15-2.81,0.76-3.9,1.72c-0.04,0.04-0.09,0.08-0.13,0.11l-0.68,0.78c-0.36,0.49-0.64,1.04-0.82,1.62
			C501.41,1104.87,501.32,1105.45,501.32,1106.03"/>
		<path id="Caminho_7" class="st18" d="M514.25,1101.64c0-0.22,0.22-1.26,0.22-1.41h-2.07c-0.09,0.01-0.08,0.01-0.1,0.1
			c-0.12,0.84-0.16,1.09-0.34,1.93l-0.52,2.5c-0.09,0.42-0.18,0.82-0.26,1.25c-0.08,0.4-0.18,0.83-0.26,1.25
			c-0.04,0.21-0.08,0.41-0.13,0.62l-0.14,0.64h2.31l0.2-0.99c0.03-0.17,0.06-0.31,0.1-0.48l0.32-1.48c0.15-0.97,0.41-1.92,0.76-2.84
			c0.1-0.19,0.22-0.36,0.36-0.52l0.32-0.29c0.76-0.51,2.01-0.45,2.09,0.6c-0.11,1.02-0.3,2.03-0.55,3.03l-0.61,2.97h2.29l1.08-5.11
			c0.17-0.59,0.21-1.21,0.13-1.82c-0.16-0.79-0.82-1.39-1.62-1.47c-0.87-0.15-1.77,0.02-2.53,0.49c-0.37,0.27-0.69,0.59-0.96,0.96
			C514.29,1101.59,514.27,1101.61,514.25,1101.64"/>
	</g>
	<g id="Grupo_7" transform="translate(441.612 1052.915)">
		<path id="Caminho_8" class="st19" d="M54.65,32.87c-4.23-10.12-15.86-14.89-25.98-10.66S13.79,38.07,18.02,48.19
			c4.22,10.09,15.79,14.86,25.9,10.69C54.04,54.7,58.87,43.1,54.69,32.97C54.68,32.93,54.66,32.9,54.65,32.87"/>
		<path id="Caminho_9" class="st19" d="M43.44,23.24c-9.51-3.96-20.44,0.54-24.4,10.05s0.54,20.44,10.05,24.4s20.44-0.54,24.4-10.05
			c0-0.01,0.01-0.01,0.01-0.02c3.97-9.47-0.49-20.37-9.97-24.34C43.5,23.26,43.47,23.25,43.44,23.24"/>
		<path id="Caminho_10" class="st20" d="M52.81,37.78c-0.03-9.11-7.45-16.47-16.56-16.44s-16.47,7.45-16.44,16.56
			c0.03,9.09,7.41,16.44,16.5,16.44C45.44,54.33,52.83,46.91,52.81,37.78C52.81,37.78,52.81,37.78,52.81,37.78"/>
		<path id="Caminho_12" class="st21" d="M47.24,45.37c-0.03-7.57-6.18-13.68-13.75-13.65c-7.57,0.03-13.68,6.18-13.65,13.75
			c0.03,7.55,6.15,13.65,13.7,13.65C41.12,59.1,47.26,52.95,47.24,45.37C47.24,45.37,47.24,45.37,47.24,45.37"/>
		<path id="Caminho_13" class="st19" d="M33.58,59.74c-7.88-0.01-14.26-6.4-14.25-14.27s6.4-14.26,14.27-14.25
			s14.26,6.4,14.25,14.27c-0.01,7.87-6.38,14.25-14.25,14.25H33.58z M33.55,32.24c-7.24-0.02-13.13,5.84-13.15,13.08
			c-0.02,7.24,5.84,13.13,13.08,13.15s13.13-5.84,13.15-13.08c0.01-3.01-1.02-5.94-2.91-8.28C41.23,34.04,37.5,32.25,33.55,32.24z"
			/>
		<path id="Caminho_14" class="st22" d="M54.01,45.94c-0.02-4.69-3.84-8.49-8.53-8.47c-4.69,0.02-8.49,3.84-8.47,8.53
			c0.02,4.68,3.82,8.47,8.5,8.47C50.21,54.47,54.01,50.65,54.01,45.94C54.01,45.95,54.01,45.95,54.01,45.94"/>
		<path id="Caminho_15" class="st19" d="M45.51,55.1c-5.06,0.02-9.17-4.06-9.19-9.12c-0.02-5.06,4.06-9.17,9.12-9.19
			s9.17,4.06,9.19,9.12c0,0.01,0,0.02,0,0.03C54.64,50.99,50.56,55.09,45.51,55.1C45.51,55.1,45.51,55.1,45.51,55.1 M45.51,38.04
			c-4.37-0.02-7.93,3.5-7.95,7.87c-0.02,4.37,3.5,7.93,7.87,7.95c4.37,0.02,7.93-3.5,7.95-7.87c0-0.02,0-0.04,0-0.05
			c0.01-4.35-3.51-7.89-7.86-7.9C45.52,38.04,45.52,38.04,45.51,38.04"/>
	</g>
</g>
</svg>
