<svg xmlns="http://www.w3.org/2000/svg" width="70.623" height="46.487" viewBox="0 0 70.623 46.487">
  <g id="Grupo_16" data-name="Grupo 16" transform="translate(-15 -27)">
    <g id="Grupo_15" data-name="Grupo 15">
      <g id="Grupo_5" data-name="Grupo 5" transform="translate(-1 4)">
        <path id="path2" d="M-8.726,38.925a5.354,5.354,0,0,1,.3-1.574,7.237,7.237,0,0,0,2.86.61c1.452,0,2.261-.466,2.261-1.4s-.6-1.33-2.062-1.973l-.8-.344c-1.474-.643-2.472-1.474-2.472-3.126,0-1.785,1.23-2.926,3.769-2.926a8.631,8.631,0,0,1,2.86.454,6.3,6.3,0,0,1-.31,1.563,8.032,8.032,0,0,0-2.561-.454c-1.363,0-1.984.532-1.984,1.363a2.4,2.4,0,0,0,.325.89,7.331,7.331,0,0,0,1.382.861l.842.355c1.984.842,2.816,1.74,2.816,3.259,0,1.8-1.363,3.037-4.013,3.037A7.5,7.5,0,0,1-8.726,38.925ZM6.9,31.454v7.815H5.33l-.089-.942a2.4,2.4,0,0,1-2.206,1.12c-2.062,0-3.436-1.5-3.436-4.124,0-2.749,1.474-4.312,4.368-4.312A8.516,8.516,0,0,1,6.9,31.454Zm-1.729,6.03V32.573a6.569,6.569,0,0,0-1.23-.089c-1.785,0-2.6,1.1-2.6,2.849,0,1.6.643,2.716,2.173,2.716A2.739,2.739,0,0,0,5.174,37.484Zm10.531-3.47v5.254H13.987V34.314c0-1.23-.41-1.829-2.128-1.829a9.44,9.44,0,0,0-1.363.122v6.662H8.777V31.454a14.587,14.587,0,0,1,3.126-.432C14.774,31.01,15.705,32.119,15.705,34.014Zm4.767,3.968a3.972,3.972,0,0,0,1.341-.233c-.044.466-.111,1-.2,1.452a3.813,3.813,0,0,1-1.452.244c-1.674,0-2.738-.765-2.738-2.672v-8.2a6.028,6.028,0,0,1,1.718-.255v2.96h2.716a13.3,13.3,0,0,1-.155,1.474H19.142v3.835c0,1.009.5,1.4,1.33,1.4Zm9.223-6.54v7.815H28.121l-.1-.942a2.4,2.4,0,0,1-2.206,1.12c-2.062,0-3.436-1.5-3.436-4.124,0-2.749,1.474-4.312,4.368-4.312a9.1,9.1,0,0,1,2.949.443Zm-1.718,6.041V32.573a6.569,6.569,0,0,0-1.23-.089c-1.785,0-2.616,1.1-2.616,2.849,0,1.6.643,2.716,2.173,2.716A2.747,2.747,0,0,0,27.976,37.484Zm10.52-3.47v5.254H36.778V34.314c0-1.23-.41-1.829-2.128-1.829a9.152,9.152,0,0,0-1.352.122v6.662H31.568V31.454a14.587,14.587,0,0,1,3.126-.432C37.576,31.01,38.5,32.119,38.5,34.014Zm8.724-5.7V39.257H45.646l-.089-1a2.381,2.381,0,0,1-2.239,1.186c-2.062,0-3.436-1.5-3.436-4.124,0-2.749,1.474-4.312,4.356-4.312a7.117,7.117,0,0,1,1.286.122V28.56a5.2,5.2,0,0,1,1.7-.244Zm-1.7,9.134V32.64a6.373,6.373,0,0,0-1.375-.155c-1.707,0-2.516,1.064-2.516,2.849,0,1.6.643,2.716,2.173,2.716a2.767,2.767,0,0,0,1.718-.6Zm10.353-1.53H50.39a2.244,2.244,0,0,0,2.561,2.062,6.531,6.531,0,0,0,2.749-.6c-.067.454-.155,1.053-.266,1.563a5.987,5.987,0,0,1-2.527.5c-2.882,0-4.268-1.6-4.268-4.268,0-2.328,1.075-4.179,3.813-4.179a3.263,3.263,0,0,1,3.514,3.58,10.76,10.76,0,0,1-.089,1.341Zm-5.52-1.441h3.88a1.783,1.783,0,0,0-1.873-2.029c-1.23,0-1.873.7-2.006,2.029Zm11.54-3.4a6.6,6.6,0,0,1-.155,1.474,12.7,12.7,0,0,0-1.3-.067,9.686,9.686,0,0,0-1.264.089v6.7H57.463V31.454a10.706,10.706,0,0,1,2.938-.432,13.606,13.606,0,0,1,1.5.055Z" transform="translate(24.726 29.963)" />
        <path id="path2-2" data-name="path2" d="M47.456,13.761a6.9,6.9,0,0,0-.9-3.127l-4.931-8.52A6.721,6.721,0,0,1,40.846.037l-.21.357a6.865,6.865,0,0,0,0,6.841l3.945,6.841a6.865,6.865,0,0,1,0,6.841l-.21.357a6.413,6.413,0,0,0-.776-2.056l-3.609-6.274L37.677,8.955A6.806,6.806,0,0,1,36.9,6.9l-.21.357a6.877,6.877,0,0,0-.021,6.82h0l3.966,6.841a6.865,6.865,0,0,1,0,6.841l-.21.357a6.944,6.944,0,0,0-.776-2.056L34.719,17.5a6.782,6.782,0,0,1-.9-3.714c-5.288,1.364-8.939,4.3-8.939,7.7,0,4.721,7.051,8.541,15.759,8.541a24.462,24.462,0,0,0,11.223-2.542c2.629-1.332,4.536-3.543,4.536-6C56.4,18.083,52.744,15.146,47.456,13.761Z" transform="translate(9.364 22.963)" />
      </g>
    </g>
  </g>
</svg>
