<svg width="136" height="40" viewBox="0 0 136 40" fill="none" xmlns="http://www.w3.org/2000/svg">
<path d="M129.616 0.000335693H6.85629C3.49055 0.000335693 0.762085 2.7288 0.762085 6.09454V33.9054C0.762085 37.2712 3.49055 39.9996 6.85629 39.9996H129.616C132.981 39.9996 135.71 37.2712 135.71 33.9054V6.09454C135.71 2.7288 132.981 0.000335693 129.616 0.000335693Z" fill="black"/>
<path d="M27.7366 20.3732C27.7387 19.4616 27.998 18.569 28.4848 17.7982C28.9715 17.0274 29.666 16.4096 30.4882 16.0159C29.2626 14.2558 27.2381 13.4008 24.9491 13.4008C23.8294 13.3461 22.715 13.5885 21.7192 14.1035C21.4488 14.2588 21.1424 14.3405 20.8306 14.3405C20.5189 14.3405 20.2125 14.2588 19.9421 14.1035C18.9467 13.5873 17.8321 13.3448 16.7122 13.4008C12.9716 13.4008 9.94031 15.6837 9.94031 20.4518C9.94031 25.2199 12.971 32.9285 16.7122 32.9285C17.5553 32.8691 18.3744 32.622 19.1097 32.2051C19.6458 31.9463 20.2335 31.8119 20.8289 31.8119C21.4242 31.8119 22.0118 31.9463 22.548 32.2051C23.2838 32.6222 24.1036 32.8694 24.9473 32.9285C27.6287 32.9285 29.9445 28.9624 31.0415 24.9621C30.0809 24.6374 29.2459 24.0204 28.6533 23.1976C28.0607 22.3748 27.7402 21.3872 27.7366 20.3732Z" fill="white"/>
<path d="M24.0321 10.8333C24.9674 9.80343 25.4981 8.46962 25.5258 7.07867C24.1551 7.29841 22.9034 7.98783 21.9851 9.02889C21.0668 10.0699 20.539 11.3979 20.492 12.7853C21.8692 12.5839 23.1268 11.8905 24.0321 10.8333Z" fill="white"/>
<path d="M89.7374 21.883C89.1305 21.6297 88.5065 21.4191 87.8702 21.2529C87.3658 21.1178 86.8684 20.9575 86.3801 20.7726C86.0392 20.6402 85.7339 20.4301 85.4885 20.159C85.2407 19.869 85.1116 19.4961 85.1271 19.115C85.1134 18.8526 85.1609 18.5906 85.2658 18.3496C85.3707 18.1087 85.5302 17.8955 85.7317 17.7268C86.178 17.382 86.7321 17.2064 87.2955 17.2313C87.8889 17.2016 88.4735 17.3837 88.9451 17.745C89.3271 18.0325 89.5809 18.4583 89.6521 18.931H91.3335C91.3012 18.5033 91.1788 18.0873 90.9744 17.7103C90.77 17.3332 90.4882 17.0037 90.1475 16.7432C89.3676 16.1692 88.4154 15.8782 87.4479 15.918C86.7508 15.9047 86.0592 16.0424 85.4203 16.3214C84.8628 16.5638 84.3866 16.9613 84.0485 17.4665C83.7203 17.9714 83.5505 18.5629 83.5609 19.165C83.5285 19.7847 83.7035 20.3975 84.0583 20.9067C84.3665 21.3219 84.7778 21.6494 85.2515 21.8568C85.8554 22.1047 86.4772 22.3068 87.1115 22.4613C87.6185 22.5919 88.1183 22.7491 88.6087 22.9324C88.964 23.0688 89.2816 23.288 89.5351 23.5717C89.7904 23.8775 89.9224 24.2676 89.905 24.6656C89.9121 24.9322 89.859 25.197 89.7497 25.4403C89.6404 25.6836 89.4777 25.8992 89.2737 26.0709C88.7862 26.4599 88.1723 26.6553 87.5496 26.6194C86.918 26.6638 86.2937 26.4617 85.8079 26.0557C85.4162 25.6937 85.1733 25.1988 85.1265 24.6674H83.4945C83.4948 25.2738 83.6833 25.8651 84.0338 26.3598C84.4016 26.8636 84.8985 27.2588 85.4721 27.5037C86.1276 27.7879 86.8364 27.9285 87.5508 27.9163C88.2799 27.9342 89.0022 27.7724 89.654 27.4452C90.2076 27.1679 90.6735 26.7426 91.0002 26.2166C91.297 25.7303 91.4539 25.1714 91.4536 24.6016C91.4878 23.9753 91.31 23.3558 90.949 22.8428C90.6322 22.4262 90.2155 22.0961 89.7374 21.883Z" fill="white"/>
<path d="M47.7824 16.1429L43.5414 27.8036H45.1582L46.0991 25.1946H51.2146L52.1574 27.8036H53.7724L49.5424 16.1429H47.7824ZM46.5373 23.9496L48.6526 18.0272L50.7679 23.9496H46.5373Z" fill="white"/>
<path d="M63.1096 19.0204C62.4341 18.6251 61.6636 18.4214 60.881 18.431C60.1472 18.4146 59.4228 18.5978 58.7851 18.9612C58.2234 19.2744 57.7544 19.7304 57.4255 20.2831V18.5864H55.8934V32.1838H57.4316V26.1073C57.7688 26.6569 58.2405 27.1114 58.8022 27.4279C59.4344 27.7896 60.1528 27.9728 60.881 27.9581C61.6672 27.9686 62.4404 27.758 63.1127 27.3504C63.7851 26.9428 64.3295 26.3546 64.6838 25.6527C65.0744 24.8817 65.2704 24.0268 65.2548 23.1626C65.2741 22.2996 65.0778 21.4454 64.6838 20.6774C64.3239 19.989 63.7787 19.415 63.1096 19.0204ZM63.2699 25.0018C63.0128 25.5003 62.6187 25.9149 62.1339 26.1969C61.6568 26.4673 61.1178 26.6094 60.5695 26.6094C60.0212 26.6094 59.4822 26.4673 59.0052 26.1969C58.5194 25.9136 58.123 25.4995 57.8613 25.0018C57.5803 24.4387 57.4341 23.8181 57.4341 23.1888C57.4341 22.5595 57.5803 21.9389 57.8613 21.3758C58.1234 20.8784 58.5198 20.4644 59.0052 20.1807C59.4777 19.9068 60.0149 19.7643 60.561 19.7681C61.1118 19.7621 61.6544 19.9017 62.1339 20.1728C62.6175 20.448 63.0118 20.8565 63.2699 21.3496C63.5607 21.9088 63.7058 22.5324 63.6916 23.1626C63.7069 23.8013 63.5619 24.4336 63.2699 25.0018Z" fill="white"/>
<path d="M74.7619 19.0204C74.0858 18.6253 73.3151 18.4216 72.5321 18.431C71.7983 18.4146 71.0739 18.5978 70.4363 18.9612C69.8746 19.2744 69.4055 19.7304 69.0766 20.2831V18.5864H67.5555V32.1838H69.0876V26.1073C69.4243 26.6573 69.8961 27.1119 70.4582 27.4279C71.0903 27.7896 71.8088 27.9728 72.5369 27.9581C73.3232 27.969 74.0966 27.7586 74.769 27.3509C75.4415 26.9433 75.9857 26.3548 76.3397 25.6527C76.7305 24.8817 76.9265 24.0268 76.9107 23.1626C76.9295 22.3006 76.7333 21.4475 76.3397 20.6804C75.9791 19.9906 75.4325 19.4155 74.7619 19.0204ZM74.9131 25.0018C74.6561 25.4999 74.2625 25.9144 73.7784 26.1969C73.2998 26.4722 72.7563 26.6147 72.2042 26.6095C71.6581 26.6133 71.1208 26.4708 70.6483 26.1969C70.1626 25.9136 69.7662 25.4995 69.5045 25.0018C69.2236 24.4387 69.0774 23.8181 69.0774 23.1888C69.0774 22.5595 69.2236 21.9389 69.5045 21.3758C69.7667 20.8784 70.1629 20.4644 70.6483 20.1807C71.1208 19.9068 71.6581 19.7643 72.2042 19.7681C72.7554 19.7623 73.2983 19.9019 73.7784 20.1728C74.2613 20.4485 74.6551 20.8569 74.9131 21.3496C75.2039 21.9088 75.349 22.5324 75.3348 23.1626C75.3525 23.8004 75.2103 24.4325 74.921 25.0012L74.9131 25.0018Z" fill="white"/>
<path d="M95.8497 16.2621H94.3195V18.5839H93.1244V19.8454H94.3195V25.2876C94.2859 25.6369 94.3254 25.9894 94.4355 26.3226C94.5455 26.6558 94.7237 26.9625 94.9588 27.2231C95.5008 27.6549 96.1862 27.8654 96.8772 27.8124H98.2563V26.5162H97.1295C96.7754 26.5524 96.4206 26.4531 96.1368 26.2383C95.9191 25.972 95.8159 25.6304 95.8497 25.2882V19.8491H98.2563V18.5839H95.8497V16.2621Z" fill="white"/>
<path d="M106.986 19.0128C106.254 18.6312 105.44 18.432 104.614 18.432C103.787 18.432 102.973 18.6312 102.241 19.0128C101.536 19.3962 100.955 19.9727 100.567 20.6747C100.147 21.4394 99.9345 22.301 99.9517 23.1733C99.933 24.049 100.138 24.915 100.548 25.689C100.927 26.393 101.5 26.9739 102.198 27.3631C102.916 27.7603 103.726 27.9635 104.546 27.9524C105.38 27.9626 106.202 27.7598 106.934 27.3631C107.648 26.975 108.239 26.3952 108.641 25.689C109.073 24.9223 109.291 24.0534 109.272 23.1733C109.292 22.2984 109.081 21.4338 108.659 20.6668C108.268 19.9692 107.688 19.396 106.986 19.0128ZM107.263 25.0565C106.991 25.5453 106.585 25.9469 106.093 26.2143C105.618 26.4707 105.086 26.6037 104.546 26.6013C104.018 26.6062 103.498 26.4757 103.035 26.2223C102.562 25.9564 102.179 25.5556 101.934 25.0711C101.642 24.4806 101.501 23.8274 101.522 23.1691C101.502 22.5157 101.647 21.8678 101.943 21.2854C102.194 20.7988 102.583 20.3975 103.062 20.1323C103.535 19.8833 104.062 19.7531 104.597 19.7531C105.132 19.7531 105.658 19.8833 106.132 20.1323C106.617 20.3979 107.015 20.7984 107.277 21.2854C107.584 21.8647 107.734 22.5139 107.714 23.1691C107.732 23.8266 107.576 24.4772 107.261 25.0546L107.263 25.0565Z" fill="white"/>
<path d="M113.097 20.0805V18.5831H111.567V27.7982H113.097V22.7881C113.097 20.927 113.953 19.9958 115.666 19.9946H116.07V18.4064C115.433 18.3863 114.801 18.5376 114.242 18.8446C113.748 19.1364 113.35 19.5659 113.097 20.0805Z" fill="white"/>
<path d="M126.532 22.8412C126.545 22.0514 126.356 21.2713 125.984 20.5747C125.624 19.9136 125.084 19.3682 124.427 19.0018C123.717 18.6112 122.916 18.4137 122.105 18.429C121.275 18.4129 120.454 18.6132 119.724 19.0104C119.037 19.3949 118.478 19.9727 118.117 20.6722C117.722 21.4478 117.526 22.309 117.546 23.1788C117.527 24.0534 117.729 24.9186 118.133 25.6945C118.504 26.396 119.067 26.9769 119.757 27.3686C120.474 27.7683 121.284 27.9716 122.105 27.9579C123.092 27.9923 124.062 27.6996 124.864 27.1254C125.589 26.5936 126.111 25.8311 126.345 24.9632H124.7C124.53 25.4651 124.202 25.8987 123.766 26.1991C123.274 26.5227 122.693 26.6848 122.104 26.6628C121.716 26.6761 121.329 26.611 120.966 26.4715C120.603 26.332 120.272 26.1209 119.993 25.8508C119.713 25.5807 119.491 25.2571 119.339 24.8993C119.188 24.5414 119.109 24.1568 119.109 23.7681H126.479C126.513 23.4603 126.531 23.1509 126.532 22.8412ZM119.129 22.5224C119.164 21.7432 119.498 21.0076 120.063 20.4693C120.602 19.9778 121.309 19.7127 122.039 19.7289C122.549 19.7229 123.053 19.8351 123.512 20.0567C123.949 20.2682 124.316 20.6012 124.569 21.016C124.838 21.4732 124.972 21.9968 124.956 22.5267L119.129 22.5224Z" fill="white"/>
<path d="M43.8734 13.9765V7.97878H45.9703C46.3881 7.97878 46.7327 8.05102 47.0041 8.1955C47.2755 8.33802 47.4775 8.53033 47.6103 8.77243C47.7431 9.01257 47.8094 9.27908 47.8094 9.57193C47.8094 9.82965 47.7636 10.0425 47.6718 10.2104C47.582 10.3783 47.4629 10.511 47.3145 10.6087C47.1681 10.7063 47.009 10.7785 46.8371 10.8254V10.8839C47.0207 10.8957 47.2052 10.9601 47.3907 11.0772C47.5761 11.1944 47.7313 11.3623 47.8563 11.5809C47.9813 11.7996 48.0437 12.0671 48.0437 12.3834C48.0437 12.6841 47.9754 12.9545 47.8387 13.1946C47.7021 13.4347 47.4863 13.6251 47.1915 13.7657C46.8967 13.9063 46.5131 13.9765 46.0406 13.9765H43.8734ZM44.5997 13.3322H46.0406C46.515 13.3322 46.8518 13.2405 47.0509 13.057C47.252 12.8715 47.3526 12.647 47.3526 12.3834C47.3526 12.1803 47.3008 11.9929 47.1974 11.8211C47.0939 11.6473 46.9465 11.5087 46.7551 11.4052C46.5638 11.2998 46.3373 11.2471 46.0757 11.2471H44.5997V13.3322ZM44.5997 10.6145H45.9469C46.1655 10.6145 46.3627 10.5716 46.5384 10.4857C46.7161 10.3998 46.8567 10.2787 46.9601 10.1225C47.0656 9.96632 47.1183 9.78279 47.1183 9.57193C47.1183 9.30836 47.0265 9.08481 46.843 8.90129C46.6595 8.71581 46.3686 8.62307 45.9703 8.62307H44.5997V10.6145Z" fill="white"/>
<path d="M50.4671 14.082C50.1821 14.082 49.9234 14.0283 49.6911 13.9209C49.4587 13.8116 49.2742 13.6544 49.1376 13.4494C49.0009 13.2424 48.9326 12.9925 48.9326 12.6997C48.9326 12.442 48.9833 12.233 49.0848 12.073C49.1864 11.9109 49.3221 11.784 49.4919 11.6922C49.6618 11.6005 49.8492 11.5321 50.0542 11.4872C50.2612 11.4404 50.4691 11.4033 50.678 11.3759C50.9513 11.3408 51.1729 11.3144 51.3428 11.2969C51.5146 11.2774 51.6396 11.2451 51.7176 11.2002C51.7977 11.1553 51.8377 11.0772 51.8377 10.9659V10.9425C51.8377 10.6536 51.7586 10.429 51.6005 10.2689C51.4443 10.1088 51.2071 10.0288 50.8889 10.0288C50.5589 10.0288 50.3002 10.101 50.1128 10.2455C49.9253 10.39 49.7936 10.5442 49.7174 10.7082L49.0614 10.4739C49.1786 10.2006 49.3347 9.9878 49.53 9.83551C49.7272 9.68127 49.9419 9.57389 50.1743 9.51336C50.4086 9.45089 50.6389 9.41965 50.8654 9.41965C51.0099 9.41965 51.1759 9.43722 51.3633 9.47236C51.5527 9.50555 51.7352 9.57486 51.9109 9.68029C52.0886 9.78572 52.236 9.94484 52.3532 10.1577C52.4703 10.3705 52.5289 10.6555 52.5289 11.0128V13.9765H51.8377V13.3674H51.8026C51.7557 13.465 51.6776 13.5695 51.5683 13.6807C51.459 13.792 51.3135 13.8867 51.1319 13.9648C50.9504 14.0429 50.7288 14.082 50.4671 14.082ZM50.5726 13.4611C50.8459 13.4611 51.0763 13.4074 51.2637 13.3C51.4531 13.1927 51.5956 13.054 51.6913 12.8842C51.7889 12.7143 51.8377 12.5357 51.8377 12.3482V11.7157C51.8084 11.7508 51.744 11.783 51.6444 11.8123C51.5468 11.8396 51.4336 11.864 51.3047 11.8855C51.1778 11.905 51.0538 11.9226 50.9328 11.9382C50.8137 11.9519 50.717 11.9636 50.6429 11.9734C50.4632 11.9968 50.2953 12.0349 50.1391 12.0876C49.9849 12.1384 49.8599 12.2155 49.7643 12.319C49.6706 12.4205 49.6237 12.5591 49.6237 12.7348C49.6237 12.975 49.7125 13.1565 49.8902 13.2795C50.0698 13.4006 50.2973 13.4611 50.5726 13.4611Z" fill="white"/>
<path d="M53.7904 13.9765V9.47822H54.4815V13.9765H53.7904ZM54.1418 8.7285C54.0071 8.7285 53.8909 8.68262 53.7933 8.59086C53.6976 8.49909 53.6498 8.38878 53.6498 8.25993C53.6498 8.13107 53.6976 8.02076 53.7933 7.92899C53.8909 7.83723 54.0071 7.79135 54.1418 7.79135C54.2765 7.79135 54.3917 7.83723 54.4874 7.92899C54.585 8.02076 54.6338 8.13107 54.6338 8.25993C54.6338 8.38878 54.585 8.49909 54.4874 8.59086C54.3917 8.68262 54.2765 8.7285 54.1418 8.7285Z" fill="white"/>
<path d="M56.2628 9.47822L57.3405 11.3174L58.4183 9.47822H59.2148L57.7623 11.7274L59.2148 13.9765H58.4183L57.3405 12.2311L56.2628 13.9765H55.4662L56.8954 11.7274L55.4662 9.47822H56.2628Z" fill="white"/>
<path d="M61.5248 14.082C61.2397 14.082 60.981 14.0283 60.7487 13.9209C60.5164 13.8116 60.3319 13.6544 60.1952 13.4494C60.0585 13.2424 59.9902 12.9925 59.9902 12.6997C59.9902 12.442 60.041 12.233 60.1425 12.073C60.244 11.9109 60.3797 11.784 60.5495 11.6922C60.7194 11.6005 60.9068 11.5321 61.1118 11.4872C61.3188 11.4404 61.5267 11.4033 61.7356 11.3759C62.009 11.3408 62.2306 11.3144 62.4004 11.2969C62.5722 11.2774 62.6972 11.2451 62.7753 11.2002C62.8553 11.1553 62.8954 11.0772 62.8954 10.9659V10.9425C62.8954 10.6536 62.8163 10.429 62.6581 10.2689C62.5019 10.1088 62.2647 10.0288 61.9465 10.0288C61.6165 10.0288 61.3578 10.101 61.1704 10.2455C60.983 10.39 60.8512 10.5442 60.7751 10.7082L60.119 10.4739C60.2362 10.2006 60.3924 9.9878 60.5876 9.83551C60.7848 9.68127 60.9996 9.57389 61.2319 9.51336C61.4662 9.45089 61.6966 9.41965 61.9231 9.41965C62.0675 9.41965 62.2335 9.43722 62.4209 9.47236C62.6103 9.50555 62.7929 9.57486 62.9686 9.68029C63.1462 9.78572 63.2936 9.94484 63.4108 10.1577C63.5279 10.3705 63.5865 10.6555 63.5865 11.0128V13.9765H62.8954V13.3674H62.8602C62.8134 13.465 62.7353 13.5695 62.6259 13.6807C62.5166 13.792 62.3711 13.8867 62.1896 13.9648C62.008 14.0429 61.7864 14.082 61.5248 14.082ZM61.6302 13.4611C61.9035 13.4611 62.1339 13.4074 62.3213 13.3C62.5107 13.1927 62.6533 13.054 62.7489 12.8842C62.8465 12.7143 62.8954 12.5357 62.8954 12.3482V11.7157C62.8661 11.7508 62.8016 11.783 62.7021 11.8123C62.6044 11.8396 62.4912 11.864 62.3623 11.8855C62.2354 11.905 62.1115 11.9226 61.9904 11.9382C61.8713 11.9519 61.7747 11.9636 61.7005 11.9734C61.5209 11.9968 61.353 12.0349 61.1968 12.0876C61.0425 12.1384 60.9176 12.2155 60.8219 12.319C60.7282 12.4205 60.6813 12.5591 60.6813 12.7348C60.6813 12.975 60.7702 13.1565 60.9478 13.2795C61.1275 13.4006 61.3549 13.4611 61.6302 13.4611Z" fill="white"/>
<path d="M64.848 13.9765V9.47822H65.5157V10.1577H65.5626C65.6446 9.93508 65.7929 9.75448 66.0077 9.61586C66.2225 9.47724 66.4646 9.40793 66.734 9.40793C66.7848 9.40793 66.8482 9.40891 66.9244 9.41086C67.0005 9.41281 67.0581 9.41574 67.0971 9.41965V10.1225C67.0737 10.1167 67.02 10.1079 66.9361 10.0962C66.8541 10.0825 66.7672 10.0757 66.6754 10.0757C66.4568 10.0757 66.2615 10.1215 66.0897 10.2133C65.9199 10.3031 65.7851 10.4281 65.6856 10.5882C65.5879 10.7463 65.5391 10.9269 65.5391 11.1299V13.9765H64.848Z" fill="white"/>
<path d="M70.927 11.2705V13.9765H70.2359V9.47822H70.9036V10.1811H70.9622C71.0676 9.95265 71.2277 9.76913 71.4424 9.63051C71.6572 9.48993 71.9345 9.41965 72.2742 9.41965C72.5787 9.41965 72.8452 9.48213 73.0737 9.60708C73.3021 9.73008 73.4798 9.91751 73.6067 10.1694C73.7336 10.4193 73.797 10.7356 73.797 11.1182V13.9765H73.1059V11.1651C73.1059 10.8117 73.0141 10.5364 72.8306 10.3392C72.6471 10.1401 72.3952 10.0405 72.075 10.0405C71.8544 10.0405 71.6572 10.0883 71.4834 10.184C71.3116 10.2797 71.1759 10.4193 71.0764 10.6028C70.9768 10.7863 70.927 11.0089 70.927 11.2705Z" fill="white"/>
<path d="M76.3837 14.082C76.0987 14.082 75.84 14.0283 75.6076 13.9209C75.3753 13.8116 75.1908 13.6544 75.0541 13.4494C74.9175 13.2424 74.8491 12.9925 74.8491 12.6997C74.8491 12.442 74.8999 12.233 75.0014 12.073C75.1029 11.9109 75.2386 11.784 75.4085 11.6922C75.5784 11.6005 75.7658 11.5321 75.9708 11.4872C76.1777 11.4404 76.3857 11.4033 76.5946 11.3759C76.8679 11.3408 77.0895 11.3144 77.2594 11.2969C77.4312 11.2774 77.5561 11.2451 77.6342 11.2002C77.7143 11.1553 77.7543 11.0772 77.7543 10.9659V10.9425C77.7543 10.6536 77.6752 10.429 77.5171 10.2689C77.3609 10.1088 77.1237 10.0288 76.8054 10.0288C76.4755 10.0288 76.2168 10.101 76.0294 10.2455C75.8419 10.39 75.7101 10.5442 75.634 10.7082L74.978 10.4739C75.0951 10.2006 75.2513 9.9878 75.4466 9.83551C75.6438 9.68127 75.8585 9.57389 76.0909 9.51336C76.3251 9.45089 76.5555 9.41965 76.782 9.41965C76.9265 9.41965 77.0924 9.43722 77.2799 9.47236C77.4692 9.50555 77.6518 9.57486 77.8275 9.68029C78.0052 9.78572 78.1526 9.94484 78.2697 10.1577C78.3869 10.3705 78.4454 10.6555 78.4454 11.0128V13.9765H77.7543V13.3674H77.7192C77.6723 13.465 77.5942 13.5695 77.4849 13.6807C77.3755 13.792 77.2301 13.8867 77.0485 13.9648C76.8669 14.0429 76.6453 14.082 76.3837 14.082ZM76.4891 13.4611C76.7625 13.4611 76.9929 13.4074 77.1803 13.3C77.3697 13.1927 77.5122 13.054 77.6079 12.8842C77.7055 12.7143 77.7543 12.5357 77.7543 12.3482V11.7157C77.725 11.7508 77.6606 11.783 77.561 11.8123C77.4634 11.8396 77.3502 11.864 77.2213 11.8855C77.0944 11.905 76.9704 11.9226 76.8494 11.9382C76.7303 11.9519 76.6336 11.9636 76.5594 11.9734C76.3798 11.9968 76.2119 12.0349 76.0557 12.0876C75.9015 12.1384 75.7765 12.2155 75.6809 12.319C75.5871 12.4205 75.5403 12.5591 75.5403 12.7348C75.5403 12.975 75.6291 13.1565 75.8068 13.2795C75.9864 13.4006 76.2139 13.4611 76.4891 13.4611Z" fill="white"/>
</svg>
