<svg width="136" height="40" viewBox="0 0 136 40" fill="none" xmlns="http://www.w3.org/2000/svg">
<path d="M129.144 0.000335693H6.38449C3.01875 0.000335693 0.290283 2.72431 0.290283 6.08451V33.8496C0.290283 37.2098 3.01875 39.9338 6.38449 39.9338H129.144C132.509 39.9338 135.238 37.2098 135.238 33.8496V6.08451C135.238 2.72431 132.509 0.000335693 129.144 0.000335693Z" fill="black"/>
<path d="M9.87415 7.57455C9.65519 7.78237 9.48506 8.03803 9.37647 8.32244C9.26788 8.60684 9.22364 8.91262 9.24706 9.21694V31.4051C9.22368 31.7097 9.26792 32.0158 9.3765 32.3005C9.48508 32.5852 9.65519 32.8412 9.87415 33.0494L22.3226 20.3113L9.87415 7.57455Z" fill="url(#paint0_linear_13459_20461)"/>
<path d="M26.4536 15.6742L12.049 7.26352C11.1977 6.76634 10.4338 6.77559 9.92944 7.19443L22.2934 19.9668L26.4536 15.6742Z" fill="url(#paint1_linear_13459_20461)"/>
<path d="M9.92944 32.7401C10.4338 33.1575 11.1979 33.168 12.0493 32.671L26.4536 24.264L22.3002 19.9671L9.92944 32.7401Z" fill="url(#paint2_linear_13459_20461)"/>
<path d="M32.6314 19.7567C32.5739 19.516 32.466 19.2887 32.3141 19.0884C32.1621 18.8882 31.9693 18.7191 31.7471 18.5913C31.6604 18.5356 31.5693 18.4799 31.4702 18.4265L26.6519 15.8343L22.3225 19.9654L26.6519 24.0964L31.4696 21.5042C32.3552 21.0276 32.7431 20.3809 32.6314 19.7567Z" fill="url(#paint3_linear_13459_20461)"/>
<path d="M44.9508 23.7544H49.1008C49.0398 24.664 48.63 25.5181 47.9526 26.1477C47.2661 26.747 46.3678 27.0644 45.4461 27.0333C44.7591 27.0434 44.0818 26.8756 43.4834 26.547C42.8993 26.2212 42.4231 25.7398 42.1108 25.1595C41.7813 24.508 41.6099 23.7916 41.6099 23.0655C41.6099 22.3394 41.7813 21.6229 42.1108 20.9714C42.4208 20.3878 42.8974 19.9037 43.4834 19.5772C44.0816 19.2483 44.759 19.0801 45.4461 19.0898C46.1179 19.0758 46.7803 19.2453 47.3581 19.5791C47.9072 19.9044 48.3439 20.3819 48.6123 20.9503H50.2384C49.8852 20.0239 49.2325 19.2341 48.3785 18.6995C47.5442 18.2015 46.5896 17.9266 45.6111 17.9025C44.6327 17.8783 43.665 18.1058 42.8057 18.5619C42.0152 18.9972 41.3626 19.6351 40.9186 20.4062C40.4627 21.2229 40.2239 22.1376 40.2239 23.067C40.2239 23.9964 40.4627 24.9111 40.9186 25.7278C41.3638 26.4959 42.0164 27.131 42.8057 27.5642C43.6109 28.0084 44.5225 28.2374 45.448 28.2278C46.3176 28.2404 47.1759 28.0342 47.9396 27.6294C48.6742 27.2376 49.2954 26.6717 49.7455 25.9842C50.2009 25.2968 50.4775 24.5118 50.5515 23.6971V22.68H44.9508V23.7544Z" fill="white"/>
<path d="M57.4731 20.4706C56.8238 20.1398 56.1026 19.9671 55.3706 19.9671C54.6386 19.9671 53.9174 20.1398 53.2681 20.4706C52.6441 20.8051 52.1297 21.3058 51.7845 21.9147C51.4127 22.5782 51.2252 23.3255 51.2406 24.0821C51.2235 24.8419 51.4059 25.5934 51.7703 26.2646C52.1054 26.876 52.6122 27.3809 53.231 27.7196C53.8678 28.063 54.5848 28.2385 55.3118 28.2289C56.0499 28.2377 56.7782 28.0625 57.4279 27.7196C58.0608 27.3815 58.585 26.8777 58.9419 26.2646C59.3071 25.5942 59.4992 24.8467 59.5016 24.087C59.504 23.3274 59.3165 22.5787 58.9555 21.9062C58.6098 21.3003 58.0958 20.8026 57.4731 20.4706ZM57.7209 25.7159C57.4807 26.1411 57.1216 26.4904 56.6858 26.7229C56.2645 26.9454 55.793 27.0611 55.3143 27.0594C54.8454 27.0641 54.3831 26.9508 53.9719 26.7302C53.5514 26.5 53.2112 26.1518 52.995 25.7305C52.7351 25.2175 52.6095 24.6494 52.6295 24.0772C52.6112 23.5107 52.739 22.9488 53.0012 22.4433C53.2231 22.0214 53.5681 21.6734 53.9923 21.4436C54.4118 21.2272 54.8788 21.1141 55.353 21.1141C55.8272 21.1141 56.2942 21.2272 56.7137 21.4436C57.1434 21.6736 57.4956 22.0209 57.7271 22.4433C58 22.9455 58.1339 23.5087 58.1155 24.0772C58.1346 24.6482 57.9977 25.2139 57.7191 25.7159H57.7209Z" fill="white"/>
<path d="M67.1141 20.4706C66.4646 20.1398 65.7433 19.9671 65.0111 19.9671C64.279 19.9671 63.5577 20.1398 62.9082 20.4706C62.2834 20.8043 61.7687 21.3052 61.4243 21.9147C61.0524 22.5782 60.8649 23.3255 60.8803 24.0821C60.8628 24.8418 61.0448 25.5933 61.4088 26.2646C61.7444 26.8762 62.2517 27.381 62.8711 27.7196C63.5075 28.063 64.2243 28.2385 64.951 28.2289C65.6899 28.2378 66.4189 28.0625 67.0694 27.7196C67.702 27.3814 68.226 26.8776 68.5825 26.2646C68.9652 25.5992 69.1578 24.8454 69.1401 24.0821C69.1571 23.323 68.9695 22.573 68.5961 21.9074C68.2506 21.3012 67.7368 20.803 67.1141 20.4706ZM67.3619 25.7159C67.1219 26.1417 66.7621 26.4912 66.3253 26.7229C65.904 26.9456 65.4324 27.0613 64.9535 27.0594C64.4846 27.0637 64.0223 26.9504 63.6109 26.7302C63.191 26.4991 62.8509 26.1512 62.6338 25.7305C62.3751 25.2171 62.25 24.6492 62.2694 24.0772C62.2512 23.5107 62.379 22.9488 62.6412 22.4433C62.8636 22.0217 63.2085 21.6739 63.6325 21.4436C64.0521 21.2272 64.5192 21.1141 64.9935 21.1141C65.4678 21.1141 65.9349 21.2272 66.3544 21.4436C66.7836 21.6749 67.1347 22.0233 67.365 22.4464C67.6378 22.9496 67.7717 23.5139 67.7535 24.0833C67.7716 24.6519 67.6359 25.2151 67.36 25.7159H67.3619Z" fill="white"/>
<path d="M76.8456 21.6001C76.5891 21.1082 76.2139 20.7037 75.7615 20.4314C75.2439 20.113 74.6581 19.953 74.0651 19.9681C73.4304 19.9592 72.8055 20.1407 72.2576 20.493C71.7157 20.8444 71.274 21.3556 70.9826 21.9687C70.6634 22.6517 70.5041 23.4115 70.5193 24.1792C70.5066 24.9492 70.6657 25.7109 70.9826 26.3977C71.2694 27.0235 71.7105 27.5481 72.2556 27.9114C72.8007 28.2747 73.4277 28.4622 74.0651 28.4525C74.6562 28.4668 75.2394 28.301 75.7502 27.9737C76.2034 27.6863 76.5797 27.2727 76.8411 26.7744V28.4973C76.8612 28.8582 76.8142 29.2198 76.7029 29.5601C76.5916 29.9003 76.4183 30.212 76.1937 30.4761C75.9731 30.7114 75.7114 30.8951 75.4243 31.016C75.1373 31.1369 74.831 31.1926 74.5239 31.1798C73.9786 31.1966 73.4411 31.0354 72.9793 30.7165C72.5737 30.4415 72.2741 30.0126 72.137 29.511H70.9096C70.9583 29.9282 71.0867 30.3294 71.2863 30.6882C71.4859 31.047 71.7523 31.3554 72.0679 31.5932C72.7926 32.1251 73.6514 32.3924 74.5222 32.3572C75.1794 32.3738 75.8295 32.2038 76.4095 31.8634C76.936 31.5479 77.3686 31.0723 77.6556 30.4936C77.9538 29.8763 78.1037 29.1855 78.0912 28.4867V20.1007H76.8371L76.8456 21.6001ZM76.5058 25.8186C76.2964 26.2622 75.9771 26.6316 75.5848 26.884C75.197 27.1288 74.7569 27.2556 74.3098 27.2514C73.8662 27.2554 73.4299 27.1285 73.0461 26.884C72.6575 26.6294 72.3414 26.2604 72.1336 25.8186C71.8975 25.3115 71.7806 24.7474 71.7937 24.1779C71.781 23.6154 71.8979 23.0585 72.1336 22.559C72.3419 22.1217 72.6582 21.7578 73.0461 21.5092C73.4354 21.272 73.8735 21.1482 74.3186 21.1495C74.7637 21.1508 75.2011 21.2772 75.5893 21.5167C75.9789 21.7685 76.2965 22.1352 76.5063 22.5752C76.7412 23.075 76.8581 23.6317 76.8462 24.1941C76.8573 24.7583 76.7403 25.3166 76.5058 25.8186Z" fill="white"/>
<path d="M82.223 17.2113H80.8459V28.2274H82.223V17.2113Z" fill="white"/>
<path d="M89.9298 20.4636C89.2763 20.125 88.54 19.9541 87.7945 19.9679C87.0308 19.9539 86.2763 20.1274 85.6052 20.4715C84.9739 20.8035 84.4598 21.3029 84.1268 21.9078C83.764 22.5804 83.5834 23.3272 83.601 24.0816C83.5832 24.8403 83.7696 25.591 84.1429 26.2633C84.4826 26.8724 85.0001 27.377 85.6341 27.7178C86.294 28.0631 87.0386 28.2386 87.7932 28.2268C88.7001 28.2569 89.5921 28.0033 90.3303 27.5057C90.9963 27.0443 91.4762 26.3831 91.691 25.6306H90.1754C90.0198 26.0664 89.7185 26.4428 89.3166 26.7033C88.8653 26.9828 88.3329 27.123 87.7932 27.1045C87.4361 27.1159 87.0802 27.0595 86.7467 26.9386C86.4132 26.8177 86.1089 26.6347 85.852 26.4006C85.5951 26.1665 85.3907 25.8861 85.2512 25.576C85.1116 25.2658 85.0396 24.9324 85.0395 24.5955H91.8151C91.8455 24.329 91.861 24.0612 91.8614 23.7932C91.8734 23.1095 91.7006 22.4342 91.3594 21.8308C91.0299 21.2566 90.5341 20.7825 89.9298 20.4636ZM85.0537 23.512C85.0857 22.8368 85.3934 22.1994 85.9125 21.7333C86.4083 21.3066 87.0597 21.0767 87.7309 21.0915C88.1996 21.0861 88.6632 21.1834 89.0852 21.3757C89.4843 21.56 89.8189 21.8483 90.0494 22.2066C90.2954 22.6017 90.4189 23.054 90.4061 23.512H85.0537Z" fill="white"/>
<path d="M100.695 17.91H97.3699V28.2284H98.7147V23.9239H100.694C101.665 24.002 102.628 23.696 103.376 23.0716C103.657 22.7866 103.88 22.4488 104.031 22.0776C104.181 21.7065 104.258 21.3092 104.255 20.9085C104.252 20.5078 104.171 20.1115 104.015 19.7424C103.859 19.3733 103.632 19.0386 103.347 18.7573C102.604 18.1458 101.654 17.8426 100.695 17.91ZM102.346 22.3202C101.875 22.6843 101.285 22.8583 100.691 22.8078H98.7147V19.0193H100.694C102.153 19.0193 102.882 19.6559 102.882 20.9292C102.899 21.1861 102.859 21.4435 102.767 21.6836C102.674 21.9238 102.531 22.141 102.346 22.3202Z" fill="white"/>
<path d="M107.009 17.2113H105.632V28.2274H107.009V17.2113Z" fill="white"/>
<path d="M115.973 21.5575C115.695 21.0802 115.289 20.6867 114.799 20.4194C114.232 20.1076 113.59 19.9518 112.94 19.9683C112.249 19.9599 111.568 20.1366 110.971 20.4795C110.38 20.8216 109.898 21.3194 109.581 21.9164C109.233 22.5815 109.059 23.3213 109.076 24.0688C109.062 24.8186 109.235 25.5603 109.581 26.2291C109.893 26.8361 110.37 27.3465 110.959 27.7036C111.55 28.0554 112.23 28.2371 112.922 28.2281C113.568 28.2442 114.208 28.0883 114.771 27.777C115.269 27.5018 115.682 27.1012 115.969 26.6165V28.1044H117.337V20.0981H115.969L115.973 21.5575ZM115.602 25.6652C115.374 26.0971 115.027 26.4568 114.599 26.7026C114.176 26.941 113.696 27.0645 113.209 27.0603C112.725 27.0642 112.249 26.9407 111.831 26.7026C111.406 26.4556 111.061 26.0961 110.835 25.6652C110.578 25.1714 110.45 24.6222 110.465 24.0676C110.451 23.5199 110.578 22.9776 110.835 22.4912C111.061 22.0647 111.407 21.7102 111.83 21.4689C112.255 21.238 112.732 21.1174 113.218 21.1187C113.703 21.1199 114.18 21.243 114.603 21.4762C115.03 21.7208 115.377 22.0779 115.607 22.507C115.863 22.9934 115.991 23.5356 115.977 24.0834C115.989 24.6334 115.859 25.1775 115.601 25.6658L115.602 25.6652Z" fill="white"/>
<path d="M124.963 19.9677L122.565 26.4143L120.139 19.9677H118.714L121.831 27.8382L120.308 31.6718H121.632L126.287 19.9671L124.963 19.9677Z" fill="white"/>
<path d="M42.762 14.3518H40.9124V8.21216H42.8439C43.4253 8.21216 43.9229 8.33507 44.3365 8.5809C44.7501 8.82473 45.0672 9.17547 45.2876 9.63315C45.5081 10.0888 45.6183 10.6344 45.6183 11.27C45.6183 11.9095 45.5071 12.4601 45.2847 12.9218C45.0623 13.3815 44.7384 13.7352 44.3131 13.983C43.8877 14.2289 43.3707 14.3518 42.762 14.3518ZM41.6382 13.6922H42.7151C43.2107 13.6922 43.6214 13.5943 43.9472 13.3985C44.2731 13.2026 44.516 12.9238 44.676 12.5621C44.836 12.2003 44.9159 11.7696 44.9159 11.27C44.9159 10.7743 44.8369 10.3476 44.6789 9.98989C44.5209 9.63015 44.2848 9.35435 43.9707 9.16248C43.6565 8.96862 43.2653 8.87169 42.7971 8.87169H41.6382V13.6922Z" fill="white"/>
<path d="M47.5616 8.21216V14.3518H46.8358V8.21216H47.5616Z" fill="white"/>
<path d="M52.2947 9.74707C52.2595 9.44328 52.1171 9.20745 51.8674 9.03957C51.6176 8.87169 51.3113 8.78775 50.9484 8.78775C50.6831 8.78775 50.4509 8.83172 50.2519 8.91966C50.0548 9.00759 49.9007 9.12851 49.7895 9.2824C49.6802 9.43629 49.6256 9.61116 49.6256 9.80702C49.6256 9.97091 49.6636 10.1118 49.7397 10.2297C49.8178 10.3456 49.9173 10.4426 50.0382 10.5205C50.1592 10.5965 50.286 10.6594 50.4187 10.7094C50.5514 10.7573 50.6733 10.7963 50.7845 10.8263L51.3933 10.9942C51.5493 11.0361 51.723 11.0941 51.9142 11.1681C52.1074 11.242 52.2917 11.3429 52.4673 11.4708C52.6449 11.5967 52.7912 11.7586 52.9063 11.9565C53.0214 12.1543 53.079 12.3972 53.079 12.685C53.079 13.0167 52.9941 13.3165 52.8244 13.5843C52.6566 13.8521 52.4107 14.065 52.0869 14.2229C51.7649 14.3808 51.3737 14.4597 50.9133 14.4597C50.4841 14.4597 50.1124 14.3888 49.7983 14.2469C49.4861 14.105 49.2403 13.9071 49.0608 13.6533C48.8832 13.3995 48.7827 13.1047 48.7593 12.7689H49.5085C49.528 13.0007 49.6041 13.1926 49.7368 13.3445C49.8714 13.4944 50.0412 13.6063 50.246 13.6803C50.4528 13.7522 50.6753 13.7882 50.9133 13.7882C51.1903 13.7882 51.4391 13.7422 51.6596 13.6503C51.8801 13.5563 52.0547 13.4264 52.1834 13.2606C52.3122 13.0927 52.3766 12.8968 52.3766 12.673C52.3766 12.4691 52.321 12.3032 52.2098 12.1753C52.0986 12.0474 51.9522 11.9435 51.7708 11.8636C51.5893 11.7836 51.3933 11.7137 51.1825 11.6537L50.445 11.4379C49.9768 11.3 49.6061 11.1031 49.3329 10.8473C49.0598 10.5915 48.9232 10.2567 48.9232 9.843C48.9232 9.49924 49.0139 9.19946 49.1954 8.94364C49.3788 8.68582 49.6246 8.48597 49.9329 8.34407C50.2431 8.20017 50.5894 8.12822 50.9718 8.12822C51.3581 8.12822 51.7015 8.19917 52.002 8.34107C52.3025 8.48097 52.5405 8.67283 52.7161 8.91666C52.8936 9.16049 52.9873 9.43729 52.997 9.74707H52.2947Z" fill="white"/>
<path d="M54.2723 14.3518V8.21216H56.2975C56.7677 8.21216 57.1521 8.2991 57.4506 8.47298C57.7511 8.64485 57.9735 8.87769 58.1179 9.17148C58.2622 9.46527 58.3344 9.79303 58.3344 10.1548C58.3344 10.5165 58.2622 10.8453 58.1179 11.1411C57.9754 11.4369 57.755 11.6727 57.4565 11.8486C57.1579 12.0224 56.7755 12.1094 56.3092 12.1094H54.8576V11.4499H56.2858C56.6077 11.4499 56.8663 11.3929 57.0614 11.279C57.2565 11.1651 57.3979 11.0112 57.4857 10.8173C57.5755 10.6214 57.6203 10.4006 57.6203 10.1548C57.6203 9.90895 57.5755 9.68911 57.4857 9.49525C57.3979 9.30138 57.2555 9.14949 57.0584 9.03957C56.8614 8.92765 56.5999 8.87169 56.2741 8.87169H54.9981V14.3518H54.2723Z" fill="white"/>
<path d="M64.5608 11.282C64.5608 11.9295 64.4467 12.4891 64.2184 12.9608C63.9901 13.4324 63.677 13.7962 63.2789 14.052C62.8809 14.3078 62.4263 14.4357 61.9151 14.4357C61.404 14.4357 60.9494 14.3078 60.5513 14.052C60.1533 13.7962 59.8402 13.4324 59.6119 12.9608C59.3836 12.4891 59.2695 11.9295 59.2695 11.282C59.2695 10.6344 59.3836 10.0748 59.6119 9.60317C59.8402 9.13151 60.1533 8.76777 60.5513 8.51195C60.9494 8.25613 61.404 8.12822 61.9151 8.12822C62.4263 8.12822 62.8809 8.25613 63.2789 8.51195C63.677 8.76777 63.9901 9.13151 64.2184 9.60317C64.4467 10.0748 64.5608 10.6344 64.5608 11.282ZM63.8584 11.282C63.8584 10.7503 63.7716 10.3017 63.5979 9.93593C63.4262 9.57019 63.1931 9.29339 62.8985 9.10552C62.6058 8.91766 62.278 8.82373 61.9151 8.82373C61.5522 8.82373 61.2235 8.91766 60.9289 9.10552C60.6362 9.29339 60.4031 9.57019 60.2294 9.93593C60.0577 10.3017 59.9719 10.7503 59.9719 11.282C59.9719 11.8136 60.0577 12.2623 60.2294 12.628C60.4031 12.9937 60.6362 13.2706 60.9289 13.4584C61.2235 13.6463 61.5522 13.7402 61.9151 13.7402C62.278 13.7402 62.6058 13.6463 62.8985 13.4584C63.1931 13.2706 63.4262 12.9937 63.5979 12.628C63.7716 12.2623 63.8584 11.8136 63.8584 11.282Z" fill="white"/>
<path d="M70.534 8.21216V14.3518H69.8316L66.5655 9.53122H66.507V14.3518H65.7812V8.21216H66.4836L69.7614 13.0447H69.8199V8.21216H70.534Z" fill="white"/>
<path d="M72.7121 8.21216V14.3518H71.9863V8.21216H72.7121ZM72.0331 7.58861L72.7472 6.1976H73.555L72.6419 7.58861H72.0331Z" fill="white"/>
<path d="M74.4132 8.21216L76.1926 13.3805H76.2628L78.0422 8.21216H78.8031L76.6023 14.3518H75.8531L73.6523 8.21216H74.4132Z" fill="white"/>
<path d="M79.7367 14.3518V8.21216H83.354V8.87169H80.4625V10.9462H83.1667V11.6057H80.4625V13.6922H83.4008V14.3518H79.7367Z" fill="white"/>
<path d="M84.6622 14.3518V8.21216H85.388V13.6922H88.1741V14.3518H84.6622Z" fill="white"/>
<path d="M96.3686 8.21216V14.3518H95.6662L92.4001 9.53122H92.3416V14.3518H91.6158V8.21216H92.3182L95.596 13.0447H95.6545V8.21216H96.3686Z" fill="white"/>
<path d="M102.878 11.282C102.878 11.9295 102.764 12.4891 102.536 12.9608C102.307 13.4324 101.994 13.7962 101.596 14.052C101.198 14.3078 100.744 14.4357 100.232 14.4357C99.7213 14.4357 99.2667 14.3078 98.8687 14.052C98.4706 13.7962 98.1575 13.4324 97.9292 12.9608C97.7009 12.4891 97.5868 11.9295 97.5868 11.282C97.5868 10.6344 97.7009 10.0748 97.9292 9.60317C98.1575 9.13151 98.4706 8.76777 98.8687 8.51195C99.2667 8.25613 99.7213 8.12822 100.232 8.12822C100.744 8.12822 101.198 8.25613 101.596 8.51195C101.994 8.76777 102.307 9.13151 102.536 9.60317C102.764 10.0748 102.878 10.6344 102.878 11.282ZM102.176 11.282C102.176 10.7503 102.089 10.3017 101.915 9.93593C101.744 9.57019 101.51 9.29339 101.216 9.10552C100.923 8.91766 100.595 8.82373 100.232 8.82373C99.8696 8.82373 99.5408 8.91766 99.2462 9.10552C98.9535 9.29339 98.7204 9.57019 98.5467 9.93593C98.375 10.3017 98.2892 10.7503 98.2892 11.282C98.2892 11.8136 98.375 12.2623 98.5467 12.628C98.7204 12.9937 98.9535 13.2706 99.2462 13.4584C99.5408 13.6463 99.8696 13.7402 100.232 13.7402C100.595 13.7402 100.923 13.6463 101.216 13.4584C101.51 13.2706 101.744 12.9937 101.915 12.628C102.089 12.2623 102.176 11.8136 102.176 11.282Z" fill="white"/>
<defs>
<linearGradient id="paint0_linear_13459_20461" x1="15.7295" y1="28.8715" x2="15.9775" y2="11.3729" gradientUnits="userSpaceOnUse">
<stop stop-color="#00E3FF"/>
<stop offset="1" stop-color="#00C2FF"/>
</linearGradient>
<linearGradient id="paint1_linear_13459_20461" x1="9.92944" y1="13.4259" x2="26.4536" y2="13.4259" gradientUnits="userSpaceOnUse">
<stop stop-color="#00F076"/>
<stop offset="1" stop-color="#11D574"/>
</linearGradient>
<linearGradient id="paint2_linear_13459_20461" x1="9.92944" y1="26.508" x2="26.4536" y2="26.508" gradientUnits="userSpaceOnUse">
<stop stop-color="#FF3A44"/>
<stop offset="1" stop-color="#E02453"/>
</linearGradient>
<linearGradient id="paint3_linear_13459_20461" x1="22.3122" y1="19.9654" x2="32.6501" y2="19.9654" gradientUnits="userSpaceOnUse">
<stop stop-color="#FFBB00"/>
<stop offset="1" stop-color="#FFDD00"/>
</linearGradient>
</defs>
</svg>
